SplineFontDB: 3.2
FontName: zzz
FullName: zzz
FamilyName: zzz
Weight: Regular
Copyright: Copyright (c) 2022, Jing Qi
UComments: "2022-5-12: Created with FontForge (http://fontforge.org)"
Version: 001.000
ItalicAngle: 0
UnderlinePosition: -102
UnderlineWidth: 51
Ascent: 819
Descent: 205
InvalidEm: 0
LayerCount: 2
Layer: 0 0 "Back" 1
Layer: 1 0 "Fore" 0
XUID: [1021 403 -1045519785 477150]
StyleMap: 0x0000
FSType: 0
OS2Version: 0
OS2_WeightWidthSlopeOnly: 0
OS2_UseTypoMetrics: 1
CreationTime: 1652416395
ModificationTime: 1652419810
OS2TypoAscent: 0
OS2TypoAOffset: 1
OS2TypoDescent: 0
OS2TypoDOffset: 1
OS2TypoLinegap: 92
OS2WinAscent: 0
OS2WinAOffset: 1
OS2WinDescent: 0
OS2WinDOffset: 1
HheadAscent: 0
HheadAOffset: 1
HheadDescent: 0
HheadDOffset: 1
MarkAttachClasses: 1
DEI: 91125
Encoding: ISO8859-1
UnicodeInterp: none
NameList: AGL For New Fonts
DisplaySize: -48
AntiAlias: 1
FitToEm: 0
WinInfo: 46 23 9
BeginPrivate: 0
EndPrivate
BeginChars: 256 62

StartChar: Z
Encoding: 90 90 0
Width: 1024
Flags: HW
LayerCount: 2
Fore
SplineSet
465 772 m 0
 465 798 486 819 512 819 c 0
 538 819 559 798 559 772 c 0
 559 746 538 726 512 726 c 0
 486 726 465 746 465 772 c 0
465 307 m 0
 465 333 486 354 512 354 c 0
 538 354 559 333 559 307 c 0
 559 281 538 260 512 260 c 0
 486 260 465 281 465 307 c 0
465 -158 m 0
 465 -132 486 -111 512 -111 c 0
 538 -111 559 -132 559 -158 c 0
 559 -184 538 -205 512 -205 c 0
 486 -205 465 -184 465 -158 c 0
868 540 m 0
 868 566 889 586 915 586 c 0
 941 586 962 566 962 540 c 0
 962 514 941 493 915 493 c 0
 889 493 868 514 868 540 c 0
767 482 m 0
 767 508 788 528 814 528 c 0
 840 528 861 508 861 482 c 0
 861 456 840 435 814 435 c 0
 788 435 767 456 767 482 c 0
566 365 m 0
 566 391 587 412 613 412 c 0
 639 412 659 391 659 365 c 0
 659 339 639 319 613 319 c 0
 587 319 566 339 566 365 c 0
667 423 m 0
 667 449 687 470 713 470 c 0
 739 470 760 449 760 423 c 0
 760 397 739 377 713 377 c 0
 687 377 667 397 667 423 c 0
365 249 m 0
 365 275 385 296 411 296 c 0
 437 296 458 275 458 249 c 0
 458 223 437 202 411 202 c 0
 385 202 365 223 365 249 c 0
163 133 m 0
 163 159 184 179 210 179 c 0
 236 179 257 159 257 133 c 0
 257 107 236 86 210 86 c 0
 184 86 163 107 163 133 c 0
264 191 m 0
 264 217 285 238 311 238 c 0
 337 238 357 217 357 191 c 0
 357 165 337 144 311 144 c 0
 285 144 264 165 264 191 c 0
62 75 m 0
 62 101 83 121 109 121 c 0
 135 121 156 101 156 75 c 0
 156 49 135 28 109 28 c 0
 83 28 62 49 62 75 c 0
566 714 m 0
 566 740 587 761 613 761 c 0
 639 761 659 740 659 714 c 0
 659 688 639 668 613 668 c 0
 587 668 566 688 566 714 c 0
767 598 m 0
 767 624 788 645 814 645 c 0
 840 645 861 624 861 598 c 0
 861 572 840 551 814 551 c 0
 788 551 767 572 767 598 c 0
667 656 m 0
 667 682 687 703 713 703 c 0
 739 703 760 682 760 656 c 0
 760 630 739 610 713 610 c 0
 687 610 667 630 667 656 c 0
163 16 m 0
 163 42 184 63 210 63 c 0
 236 63 257 42 257 16 c 0
 257 -10 236 -30 210 -30 c 0
 184 -30 163 -10 163 16 c 0
365 -100 m 0
 365 -74 385 -53 411 -53 c 0
 437 -53 458 -74 458 -100 c 0
 458 -126 437 -147 411 -147 c 0
 385 -147 365 -126 365 -100 c 0
264 -42 m 0
 264 -16 285 5 311 5 c 0
 337 5 357 -16 357 -42 c 0
 357 -68 337 -88 311 -88 c 0
 285 -88 264 -68 264 -42 c 0
EndSplineSet
Validated: 1
EndChar

StartChar: Y
Encoding: 89 89 1
Width: 1024
Flags: HW
LayerCount: 2
Fore
SplineSet
465 307 m 0
 465 333 486 354 512 354 c 0
 538 354 559 333 559 307 c 0
 559 281 538 260 512 260 c 0
 486 260 465 281 465 307 c 0
465 191 m 0
 465 217 486 238 512 238 c 0
 538 238 559 217 559 191 c 0
 559 165 538 144 512 144 c 0
 486 144 465 165 465 191 c 0
465 -42 m 0
 465 -16 486 5 512 5 c 0
 538 5 559 -16 559 -42 c 0
 559 -68 538 -88 512 -88 c 0
 486 -88 465 -68 465 -42 c 0
465 75 m 0
 465 101 486 121 512 121 c 0
 538 121 559 101 559 75 c 0
 559 49 538 28 512 28 c 0
 486 28 465 49 465 75 c 0
465 -158 m 0
 465 -132 486 -111 512 -111 c 0
 538 -111 559 -132 559 -158 c 0
 559 -184 538 -205 512 -205 c 0
 486 -205 465 -184 465 -158 c 0
868 540 m 0
 868 566 889 586 915 586 c 0
 941 586 962 566 962 540 c 0
 962 514 941 493 915 493 c 0
 889 493 868 514 868 540 c 0
767 482 m 0
 767 508 788 528 814 528 c 0
 840 528 861 508 861 482 c 0
 861 456 840 435 814 435 c 0
 788 435 767 456 767 482 c 0
566 365 m 0
 566 391 587 412 613 412 c 0
 639 412 659 391 659 365 c 0
 659 339 639 319 613 319 c 0
 587 319 566 339 566 365 c 0
667 423 m 0
 667 449 687 470 713 470 c 0
 739 470 760 449 760 423 c 0
 760 397 739 377 713 377 c 0
 687 377 667 397 667 423 c 0
62 540 m 0
 62 566 83 586 109 586 c 0
 135 586 156 566 156 540 c 0
 156 514 135 493 109 493 c 0
 83 493 62 514 62 540 c 0
163 482 m 0
 163 508 184 528 210 528 c 0
 236 528 257 508 257 482 c 0
 257 456 236 435 210 435 c 0
 184 435 163 456 163 482 c 0
365 365 m 0
 365 391 385 412 411 412 c 0
 437 412 458 391 458 365 c 0
 458 339 437 319 411 319 c 0
 385 319 365 339 365 365 c 0
264 423 m 0
 264 449 285 470 311 470 c 0
 337 470 357 449 357 423 c 0
 357 397 337 377 311 377 c 0
 285 377 264 397 264 423 c 0
EndSplineSet
Validated: 1
EndChar

StartChar: X
Encoding: 88 88 2
Width: 1024
Flags: HW
LayerCount: 2
Fore
SplineSet
465 772 m 0
 465 798 486 819 512 819 c 0
 538 819 559 798 559 772 c 0
 559 746 538 726 512 726 c 0
 486 726 465 746 465 772 c 0
465 656 m 0
 465 682 486 703 512 703 c 0
 538 703 559 682 559 656 c 0
 559 630 538 610 512 610 c 0
 486 610 465 630 465 656 c 0
465 423 m 0
 465 449 486 470 512 470 c 0
 538 470 559 449 559 423 c 0
 559 397 538 377 512 377 c 0
 486 377 465 397 465 423 c 0
465 540 m 0
 465 566 486 586 512 586 c 0
 538 586 559 566 559 540 c 0
 559 514 538 493 512 493 c 0
 486 493 465 514 465 540 c 0
465 307 m 0
 465 333 486 354 512 354 c 0
 538 354 559 333 559 307 c 0
 559 281 538 260 512 260 c 0
 486 260 465 281 465 307 c 0
465 191 m 0
 465 217 486 238 512 238 c 0
 538 238 559 217 559 191 c 0
 559 165 538 144 512 144 c 0
 486 144 465 165 465 191 c 0
465 -42 m 0
 465 -16 486 5 512 5 c 0
 538 5 559 -16 559 -42 c 0
 559 -68 538 -88 512 -88 c 0
 486 -88 465 -68 465 -42 c 0
465 75 m 0
 465 101 486 121 512 121 c 0
 538 121 559 101 559 75 c 0
 559 49 538 28 512 28 c 0
 486 28 465 49 465 75 c 0
465 -158 m 0
 465 -132 486 -111 512 -111 c 0
 538 -111 559 -132 559 -158 c 0
 559 -184 538 -205 512 -205 c 0
 486 -205 465 -184 465 -158 c 0
868 540 m 0
 868 566 889 586 915 586 c 0
 941 586 962 566 962 540 c 0
 962 514 941 493 915 493 c 0
 889 493 868 514 868 540 c 0
767 482 m 0
 767 508 788 528 814 528 c 0
 840 528 861 508 861 482 c 0
 861 456 840 435 814 435 c 0
 788 435 767 456 767 482 c 0
566 365 m 0
 566 391 587 412 613 412 c 0
 639 412 659 391 659 365 c 0
 659 339 639 319 613 319 c 0
 587 319 566 339 566 365 c 0
667 423 m 0
 667 449 687 470 713 470 c 0
 739 470 760 449 760 423 c 0
 760 397 739 377 713 377 c 0
 687 377 667 397 667 423 c 0
365 249 m 0
 365 275 385 296 411 296 c 0
 437 296 458 275 458 249 c 0
 458 223 437 202 411 202 c 0
 385 202 365 223 365 249 c 0
163 133 m 0
 163 159 184 179 210 179 c 0
 236 179 257 159 257 133 c 0
 257 107 236 86 210 86 c 0
 184 86 163 107 163 133 c 0
264 191 m 0
 264 217 285 238 311 238 c 0
 337 238 357 217 357 191 c 0
 357 165 337 144 311 144 c 0
 285 144 264 165 264 191 c 0
62 75 m 0
 62 101 83 121 109 121 c 0
 135 121 156 101 156 75 c 0
 156 49 135 28 109 28 c 0
 83 28 62 49 62 75 c 0
EndSplineSet
Validated: 1
EndChar

StartChar: W
Encoding: 87 87 3
Width: 1024
Flags: HW
LayerCount: 2
Fore
SplineSet
465 307 m 0
 465 333 486 354 512 354 c 0
 538 354 559 333 559 307 c 0
 559 281 538 260 512 260 c 0
 486 260 465 281 465 307 c 0
868 540 m 0
 868 566 889 586 915 586 c 0
 941 586 962 566 962 540 c 0
 962 514 941 493 915 493 c 0
 889 493 868 514 868 540 c 0
365 249 m 0
 365 275 385 296 411 296 c 0
 437 296 458 275 458 249 c 0
 458 223 437 202 411 202 c 0
 385 202 365 223 365 249 c 0
163 133 m 0
 163 159 184 179 210 179 c 0
 236 179 257 159 257 133 c 0
 257 107 236 86 210 86 c 0
 184 86 163 107 163 133 c 0
264 191 m 0
 264 217 285 238 311 238 c 0
 337 238 357 217 357 191 c 0
 357 165 337 144 311 144 c 0
 285 144 264 165 264 191 c 0
62 75 m 0
 62 101 83 121 109 121 c 0
 135 121 156 101 156 75 c 0
 156 49 135 28 109 28 c 0
 83 28 62 49 62 75 c 0
62 540 m 0
 62 566 83 586 109 586 c 0
 135 586 156 566 156 540 c 0
 156 514 135 493 109 493 c 0
 83 493 62 514 62 540 c 0
566 249 m 0
 566 275 587 296 613 296 c 0
 639 296 659 275 659 249 c 0
 659 223 639 202 613 202 c 0
 587 202 566 223 566 249 c 0
767 133 m 0
 767 159 788 179 814 179 c 0
 840 179 861 159 861 133 c 0
 861 107 840 86 814 86 c 0
 788 86 767 107 767 133 c 0
667 191 m 0
 667 217 687 238 713 238 c 0
 739 238 760 217 760 191 c 0
 760 165 739 144 713 144 c 0
 687 144 667 165 667 191 c 0
868 75 m 0
 868 101 889 121 915 121 c 0
 941 121 962 101 962 75 c 0
 962 49 941 28 915 28 c 0
 889 28 868 49 868 75 c 0
62 423 m 0
 62 449 83 470 109 470 c 0
 135 470 156 449 156 423 c 0
 156 397 135 377 109 377 c 0
 83 377 62 397 62 423 c 0
62 191 m 0
 62 217 83 238 109 238 c 0
 135 238 156 217 156 191 c 0
 156 165 135 144 109 144 c 0
 83 144 62 165 62 191 c 0
62 307 m 0
 62 333 83 354 109 354 c 0
 135 354 156 333 156 307 c 0
 156 281 135 260 109 260 c 0
 83 260 62 281 62 307 c 0
868 423 m 0
 868 449 889 470 915 470 c 0
 941 470 962 449 962 423 c 0
 962 397 941 377 915 377 c 0
 889 377 868 397 868 423 c 0
868 191 m 0
 868 217 889 238 915 238 c 0
 941 238 962 217 962 191 c 0
 962 165 941 144 915 144 c 0
 889 144 868 165 868 191 c 0
868 307 m 0
 868 333 889 354 915 354 c 0
 941 354 962 333 962 307 c 0
 962 281 941 260 915 260 c 0
 889 260 868 281 868 307 c 0
EndSplineSet
Validated: 1
EndChar

StartChar: V
Encoding: 86 86 4
Width: 1024
Flags: HW
LayerCount: 2
Fore
SplineSet
465 -158 m 0
 465 -132 486 -111 512 -111 c 0
 538 -111 559 -132 559 -158 c 0
 559 -184 538 -205 512 -205 c 0
 486 -205 465 -184 465 -158 c 0
868 540 m 0
 868 566 889 586 915 586 c 0
 941 586 962 566 962 540 c 0
 962 514 941 493 915 493 c 0
 889 493 868 514 868 540 c 0
62 75 m 0
 62 101 83 121 109 121 c 0
 135 121 156 101 156 75 c 0
 156 49 135 28 109 28 c 0
 83 28 62 49 62 75 c 0
62 540 m 0
 62 566 83 586 109 586 c 0
 135 586 156 566 156 540 c 0
 156 514 135 493 109 493 c 0
 83 493 62 514 62 540 c 0
868 75 m 0
 868 101 889 121 915 121 c 0
 941 121 962 101 962 75 c 0
 962 49 941 28 915 28 c 0
 889 28 868 49 868 75 c 0
163 16 m 0
 163 42 184 63 210 63 c 0
 236 63 257 42 257 16 c 0
 257 -10 236 -30 210 -30 c 0
 184 -30 163 -10 163 16 c 0
365 -100 m 0
 365 -74 385 -53 411 -53 c 0
 437 -53 458 -74 458 -100 c 0
 458 -126 437 -147 411 -147 c 0
 385 -147 365 -126 365 -100 c 0
264 -42 m 0
 264 -16 285 5 311 5 c 0
 337 5 357 -16 357 -42 c 0
 357 -68 337 -88 311 -88 c 0
 285 -88 264 -68 264 -42 c 0
767 16 m 0
 767 42 788 63 814 63 c 0
 840 63 861 42 861 16 c 0
 861 -10 840 -30 814 -30 c 0
 788 -30 767 -10 767 16 c 0
566 -100 m 0
 566 -74 587 -53 613 -53 c 0
 639 -53 659 -74 659 -100 c 0
 659 -126 639 -147 613 -147 c 0
 587 -147 566 -126 566 -100 c 0
667 -42 m 0
 667 -16 687 5 713 5 c 0
 739 5 760 -16 760 -42 c 0
 760 -68 739 -88 713 -88 c 0
 687 -88 667 -68 667 -42 c 0
62 423 m 0
 62 449 83 470 109 470 c 0
 135 470 156 449 156 423 c 0
 156 397 135 377 109 377 c 0
 83 377 62 397 62 423 c 0
62 191 m 0
 62 217 83 238 109 238 c 0
 135 238 156 217 156 191 c 0
 156 165 135 144 109 144 c 0
 83 144 62 165 62 191 c 0
62 307 m 0
 62 333 83 354 109 354 c 0
 135 354 156 333 156 307 c 0
 156 281 135 260 109 260 c 0
 83 260 62 281 62 307 c 0
868 423 m 0
 868 449 889 470 915 470 c 0
 941 470 962 449 962 423 c 0
 962 397 941 377 915 377 c 0
 889 377 868 397 868 423 c 0
868 191 m 0
 868 217 889 238 915 238 c 0
 941 238 962 217 962 191 c 0
 962 165 941 144 915 144 c 0
 889 144 868 165 868 191 c 0
868 307 m 0
 868 333 889 354 915 354 c 0
 941 354 962 333 962 307 c 0
 962 281 941 260 915 260 c 0
 889 260 868 281 868 307 c 0
EndSplineSet
Validated: 1
EndChar

StartChar: U
Encoding: 85 85 5
Width: 1024
Flags: HW
LayerCount: 2
Fore
SplineSet
465 772 m 0
 465 798 486 819 512 819 c 0
 538 819 559 798 559 772 c 0
 559 746 538 726 512 726 c 0
 486 726 465 746 465 772 c 0
465 -158 m 0
 465 -132 486 -111 512 -111 c 0
 538 -111 559 -132 559 -158 c 0
 559 -184 538 -205 512 -205 c 0
 486 -205 465 -184 465 -158 c 0
868 540 m 0
 868 566 889 586 915 586 c 0
 941 586 962 566 962 540 c 0
 962 514 941 493 915 493 c 0
 889 493 868 514 868 540 c 0
62 75 m 0
 62 101 83 121 109 121 c 0
 135 121 156 101 156 75 c 0
 156 49 135 28 109 28 c 0
 83 28 62 49 62 75 c 0
62 540 m 0
 62 566 83 586 109 586 c 0
 135 586 156 566 156 540 c 0
 156 514 135 493 109 493 c 0
 83 493 62 514 62 540 c 0
868 75 m 0
 868 101 889 121 915 121 c 0
 941 121 962 101 962 75 c 0
 962 49 941 28 915 28 c 0
 889 28 868 49 868 75 c 0
163 16 m 0
 163 42 184 63 210 63 c 0
 236 63 257 42 257 16 c 0
 257 -10 236 -30 210 -30 c 0
 184 -30 163 -10 163 16 c 0
365 -100 m 0
 365 -74 385 -53 411 -53 c 0
 437 -53 458 -74 458 -100 c 0
 458 -126 437 -147 411 -147 c 0
 385 -147 365 -126 365 -100 c 0
264 -42 m 0
 264 -16 285 5 311 5 c 0
 337 5 357 -16 357 -42 c 0
 357 -68 337 -88 311 -88 c 0
 285 -88 264 -68 264 -42 c 0
364 714 m 0
 364 740 385 761 411 761 c 0
 437 761 458 740 458 714 c 0
 458 688 437 668 411 668 c 0
 385 668 364 688 364 714 c 0
163 598 m 0
 163 624 183 645 209 645 c 0
 235 645 256 624 256 598 c 0
 256 572 235 551 209 551 c 0
 183 551 163 572 163 598 c 0
264 656 m 0
 264 682 284 703 310 703 c 0
 336 703 357 682 357 656 c 0
 357 630 336 610 310 610 c 0
 284 610 264 630 264 656 c 0
767 16 m 0
 767 42 788 63 814 63 c 0
 840 63 861 42 861 16 c 0
 861 -10 840 -30 814 -30 c 0
 788 -30 767 -10 767 16 c 0
566 -100 m 0
 566 -74 587 -53 613 -53 c 0
 639 -53 659 -74 659 -100 c 0
 659 -126 639 -147 613 -147 c 0
 587 -147 566 -126 566 -100 c 0
667 -42 m 0
 667 -16 687 5 713 5 c 0
 739 5 760 -16 760 -42 c 0
 760 -68 739 -88 713 -88 c 0
 687 -88 667 -68 667 -42 c 0
62 423 m 0
 62 449 83 470 109 470 c 0
 135 470 156 449 156 423 c 0
 156 397 135 377 109 377 c 0
 83 377 62 397 62 423 c 0
62 191 m 0
 62 217 83 238 109 238 c 0
 135 238 156 217 156 191 c 0
 156 165 135 144 109 144 c 0
 83 144 62 165 62 191 c 0
62 307 m 0
 62 333 83 354 109 354 c 0
 135 354 156 333 156 307 c 0
 156 281 135 260 109 260 c 0
 83 260 62 281 62 307 c 0
868 423 m 0
 868 449 889 470 915 470 c 0
 941 470 962 449 962 423 c 0
 962 397 941 377 915 377 c 0
 889 377 868 397 868 423 c 0
868 191 m 0
 868 217 889 238 915 238 c 0
 941 238 962 217 962 191 c 0
 962 165 941 144 915 144 c 0
 889 144 868 165 868 191 c 0
868 307 m 0
 868 333 889 354 915 354 c 0
 941 354 962 333 962 307 c 0
 962 281 941 260 915 260 c 0
 889 260 868 281 868 307 c 0
EndSplineSet
Validated: 1
EndChar

StartChar: T
Encoding: 84 84 6
Width: 1024
Flags: HW
LayerCount: 2
Fore
SplineSet
465 772 m 0
 465 798 486 819 512 819 c 0
 538 819 559 798 559 772 c 0
 559 746 538 726 512 726 c 0
 486 726 465 746 465 772 c 0
465 656 m 0
 465 682 486 703 512 703 c 0
 538 703 559 682 559 656 c 0
 559 630 538 610 512 610 c 0
 486 610 465 630 465 656 c 0
465 423 m 0
 465 449 486 470 512 470 c 0
 538 470 559 449 559 423 c 0
 559 397 538 377 512 377 c 0
 486 377 465 397 465 423 c 0
465 540 m 0
 465 566 486 586 512 586 c 0
 538 586 559 566 559 540 c 0
 559 514 538 493 512 493 c 0
 486 493 465 514 465 540 c 0
465 307 m 0
 465 333 486 354 512 354 c 0
 538 354 559 333 559 307 c 0
 559 281 538 260 512 260 c 0
 486 260 465 281 465 307 c 0
465 191 m 0
 465 217 486 238 512 238 c 0
 538 238 559 217 559 191 c 0
 559 165 538 144 512 144 c 0
 486 144 465 165 465 191 c 0
465 -42 m 0
 465 -16 486 5 512 5 c 0
 538 5 559 -16 559 -42 c 0
 559 -68 538 -88 512 -88 c 0
 486 -88 465 -68 465 -42 c 0
465 75 m 0
 465 101 486 121 512 121 c 0
 538 121 559 101 559 75 c 0
 559 49 538 28 512 28 c 0
 486 28 465 49 465 75 c 0
465 -158 m 0
 465 -132 486 -111 512 -111 c 0
 538 -111 559 -132 559 -158 c 0
 559 -184 538 -205 512 -205 c 0
 486 -205 465 -184 465 -158 c 0
868 540 m 0
 868 566 889 586 915 586 c 0
 941 586 962 566 962 540 c 0
 962 514 941 493 915 493 c 0
 889 493 868 514 868 540 c 0
62 540 m 0
 62 566 83 586 109 586 c 0
 135 586 156 566 156 540 c 0
 156 514 135 493 109 493 c 0
 83 493 62 514 62 540 c 0
566 714 m 0
 566 740 587 761 613 761 c 0
 639 761 659 740 659 714 c 0
 659 688 639 668 613 668 c 0
 587 668 566 688 566 714 c 0
767 598 m 0
 767 624 788 645 814 645 c 0
 840 645 861 624 861 598 c 0
 861 572 840 551 814 551 c 0
 788 551 767 572 767 598 c 0
667 656 m 0
 667 682 687 703 713 703 c 0
 739 703 760 682 760 656 c 0
 760 630 739 610 713 610 c 0
 687 610 667 630 667 656 c 0
364 714 m 0
 364 740 385 761 411 761 c 0
 437 761 458 740 458 714 c 0
 458 688 437 668 411 668 c 0
 385 668 364 688 364 714 c 0
163 598 m 0
 163 624 183 645 209 645 c 0
 235 645 256 624 256 598 c 0
 256 572 235 551 209 551 c 0
 183 551 163 572 163 598 c 0
264 656 m 0
 264 682 284 703 310 703 c 0
 336 703 357 682 357 656 c 0
 357 630 336 610 310 610 c 0
 284 610 264 630 264 656 c 0
EndSplineSet
Validated: 1
EndChar

StartChar: S
Encoding: 83 83 7
Width: 1024
Flags: HW
LayerCount: 2
Fore
SplineSet
465 772 m 0
 465 798 486 819 512 819 c 0
 538 819 559 798 559 772 c 0
 559 746 538 726 512 726 c 0
 486 726 465 746 465 772 c 0
465 307 m 0
 465 333 486 354 512 354 c 0
 538 354 559 333 559 307 c 0
 559 281 538 260 512 260 c 0
 486 260 465 281 465 307 c 0
465 -158 m 0
 465 -132 486 -111 512 -111 c 0
 538 -111 559 -132 559 -158 c 0
 559 -184 538 -205 512 -205 c 0
 486 -205 465 -184 465 -158 c 0
868 540 m 0
 868 566 889 586 915 586 c 0
 941 586 962 566 962 540 c 0
 962 514 941 493 915 493 c 0
 889 493 868 514 868 540 c 0
62 75 m 0
 62 101 83 121 109 121 c 0
 135 121 156 101 156 75 c 0
 156 49 135 28 109 28 c 0
 83 28 62 49 62 75 c 0
62 540 m 0
 62 566 83 586 109 586 c 0
 135 586 156 566 156 540 c 0
 156 514 135 493 109 493 c 0
 83 493 62 514 62 540 c 0
163 482 m 0
 163 508 184 528 210 528 c 0
 236 528 257 508 257 482 c 0
 257 456 236 435 210 435 c 0
 184 435 163 456 163 482 c 0
365 365 m 0
 365 391 385 412 411 412 c 0
 437 412 458 391 458 365 c 0
 458 339 437 319 411 319 c 0
 385 319 365 339 365 365 c 0
264 423 m 0
 264 449 285 470 311 470 c 0
 337 470 357 449 357 423 c 0
 357 397 337 377 311 377 c 0
 285 377 264 397 264 423 c 0
566 249 m 0
 566 275 587 296 613 296 c 0
 639 296 659 275 659 249 c 0
 659 223 639 202 613 202 c 0
 587 202 566 223 566 249 c 0
767 133 m 0
 767 159 788 179 814 179 c 0
 840 179 861 159 861 133 c 0
 861 107 840 86 814 86 c 0
 788 86 767 107 767 133 c 0
667 191 m 0
 667 217 687 238 713 238 c 0
 739 238 760 217 760 191 c 0
 760 165 739 144 713 144 c 0
 687 144 667 165 667 191 c 0
868 75 m 0
 868 101 889 121 915 121 c 0
 941 121 962 101 962 75 c 0
 962 49 941 28 915 28 c 0
 889 28 868 49 868 75 c 0
566 714 m 0
 566 740 587 761 613 761 c 0
 639 761 659 740 659 714 c 0
 659 688 639 668 613 668 c 0
 587 668 566 688 566 714 c 0
767 598 m 0
 767 624 788 645 814 645 c 0
 840 645 861 624 861 598 c 0
 861 572 840 551 814 551 c 0
 788 551 767 572 767 598 c 0
667 656 m 0
 667 682 687 703 713 703 c 0
 739 703 760 682 760 656 c 0
 760 630 739 610 713 610 c 0
 687 610 667 630 667 656 c 0
163 16 m 0
 163 42 184 63 210 63 c 0
 236 63 257 42 257 16 c 0
 257 -10 236 -30 210 -30 c 0
 184 -30 163 -10 163 16 c 0
365 -100 m 0
 365 -74 385 -53 411 -53 c 0
 437 -53 458 -74 458 -100 c 0
 458 -126 437 -147 411 -147 c 0
 385 -147 365 -126 365 -100 c 0
264 -42 m 0
 264 -16 285 5 311 5 c 0
 337 5 357 -16 357 -42 c 0
 357 -68 337 -88 311 -88 c 0
 285 -88 264 -68 264 -42 c 0
364 714 m 0
 364 740 385 761 411 761 c 0
 437 761 458 740 458 714 c 0
 458 688 437 668 411 668 c 0
 385 668 364 688 364 714 c 0
163 598 m 0
 163 624 183 645 209 645 c 0
 235 645 256 624 256 598 c 0
 256 572 235 551 209 551 c 0
 183 551 163 572 163 598 c 0
264 656 m 0
 264 682 284 703 310 703 c 0
 336 703 357 682 357 656 c 0
 357 630 336 610 310 610 c 0
 284 610 264 630 264 656 c 0
767 16 m 0
 767 42 788 63 814 63 c 0
 840 63 861 42 861 16 c 0
 861 -10 840 -30 814 -30 c 0
 788 -30 767 -10 767 16 c 0
566 -100 m 0
 566 -74 587 -53 613 -53 c 0
 639 -53 659 -74 659 -100 c 0
 659 -126 639 -147 613 -147 c 0
 587 -147 566 -126 566 -100 c 0
667 -42 m 0
 667 -16 687 5 713 5 c 0
 739 5 760 -16 760 -42 c 0
 760 -68 739 -88 713 -88 c 0
 687 -88 667 -68 667 -42 c 0
EndSplineSet
Validated: 1
EndChar

StartChar: R
Encoding: 82 82 8
Width: 1024
Flags: HW
LayerCount: 2
Fore
SplineSet
465 772 m 0
 465 798 486 819 512 819 c 0
 538 819 559 798 559 772 c 0
 559 746 538 726 512 726 c 0
 486 726 465 746 465 772 c 0
465 656 m 0
 465 682 486 703 512 703 c 0
 538 703 559 682 559 656 c 0
 559 630 538 610 512 610 c 0
 486 610 465 630 465 656 c 0
465 423 m 0
 465 449 486 470 512 470 c 0
 538 470 559 449 559 423 c 0
 559 397 538 377 512 377 c 0
 486 377 465 397 465 423 c 0
465 540 m 0
 465 566 486 586 512 586 c 0
 538 586 559 566 559 540 c 0
 559 514 538 493 512 493 c 0
 486 493 465 514 465 540 c 0
465 307 m 0
 465 333 486 354 512 354 c 0
 538 354 559 333 559 307 c 0
 559 281 538 260 512 260 c 0
 486 260 465 281 465 307 c 0
465 191 m 0
 465 217 486 238 512 238 c 0
 538 238 559 217 559 191 c 0
 559 165 538 144 512 144 c 0
 486 144 465 165 465 191 c 0
465 -42 m 0
 465 -16 486 5 512 5 c 0
 538 5 559 -16 559 -42 c 0
 559 -68 538 -88 512 -88 c 0
 486 -88 465 -68 465 -42 c 0
465 75 m 0
 465 101 486 121 512 121 c 0
 538 121 559 101 559 75 c 0
 559 49 538 28 512 28 c 0
 486 28 465 49 465 75 c 0
465 -158 m 0
 465 -132 486 -111 512 -111 c 0
 538 -111 559 -132 559 -158 c 0
 559 -184 538 -205 512 -205 c 0
 486 -205 465 -184 465 -158 c 0
868 540 m 0
 868 566 889 586 915 586 c 0
 941 586 962 566 962 540 c 0
 962 514 941 493 915 493 c 0
 889 493 868 514 868 540 c 0
767 482 m 0
 767 508 788 528 814 528 c 0
 840 528 861 508 861 482 c 0
 861 456 840 435 814 435 c 0
 788 435 767 456 767 482 c 0
566 365 m 0
 566 391 587 412 613 412 c 0
 639 412 659 391 659 365 c 0
 659 339 639 319 613 319 c 0
 587 319 566 339 566 365 c 0
667 423 m 0
 667 449 687 470 713 470 c 0
 739 470 760 449 760 423 c 0
 760 397 739 377 713 377 c 0
 687 377 667 397 667 423 c 0
566 249 m 0
 566 275 587 296 613 296 c 0
 639 296 659 275 659 249 c 0
 659 223 639 202 613 202 c 0
 587 202 566 223 566 249 c 0
767 133 m 0
 767 159 788 179 814 179 c 0
 840 179 861 159 861 133 c 0
 861 107 840 86 814 86 c 0
 788 86 767 107 767 133 c 0
667 191 m 0
 667 217 687 238 713 238 c 0
 739 238 760 217 760 191 c 0
 760 165 739 144 713 144 c 0
 687 144 667 165 667 191 c 0
868 75 m 0
 868 101 889 121 915 121 c 0
 941 121 962 101 962 75 c 0
 962 49 941 28 915 28 c 0
 889 28 868 49 868 75 c 0
566 714 m 0
 566 740 587 761 613 761 c 0
 639 761 659 740 659 714 c 0
 659 688 639 668 613 668 c 0
 587 668 566 688 566 714 c 0
767 598 m 0
 767 624 788 645 814 645 c 0
 840 645 861 624 861 598 c 0
 861 572 840 551 814 551 c 0
 788 551 767 572 767 598 c 0
667 656 m 0
 667 682 687 703 713 703 c 0
 739 703 760 682 760 656 c 0
 760 630 739 610 713 610 c 0
 687 610 667 630 667 656 c 0
EndSplineSet
Validated: 1
EndChar

StartChar: Q
Encoding: 81 81 9
Width: 1024
Flags: HW
LayerCount: 2
Fore
SplineSet
465 772 m 0
 465 798 486 819 512 819 c 0
 538 819 559 798 559 772 c 0
 559 746 538 726 512 726 c 0
 486 726 465 746 465 772 c 0
465 -158 m 0
 465 -132 486 -111 512 -111 c 0
 538 -111 559 -132 559 -158 c 0
 559 -184 538 -205 512 -205 c 0
 486 -205 465 -184 465 -158 c 0
868 540 m 0
 868 566 889 586 915 586 c 0
 941 586 962 566 962 540 c 0
 962 514 941 493 915 493 c 0
 889 493 868 514 868 540 c 0
62 75 m 0
 62 101 83 121 109 121 c 0
 135 121 156 101 156 75 c 0
 156 49 135 28 109 28 c 0
 83 28 62 49 62 75 c 0
62 540 m 0
 62 566 83 586 109 586 c 0
 135 586 156 566 156 540 c 0
 156 514 135 493 109 493 c 0
 83 493 62 514 62 540 c 0
566 249 m 0
 566 275 587 296 613 296 c 0
 639 296 659 275 659 249 c 0
 659 223 639 202 613 202 c 0
 587 202 566 223 566 249 c 0
767 133 m 0
 767 159 788 179 814 179 c 0
 840 179 861 159 861 133 c 0
 861 107 840 86 814 86 c 0
 788 86 767 107 767 133 c 0
667 191 m 0
 667 217 687 238 713 238 c 0
 739 238 760 217 760 191 c 0
 760 165 739 144 713 144 c 0
 687 144 667 165 667 191 c 0
868 75 m 0
 868 101 889 121 915 121 c 0
 941 121 962 101 962 75 c 0
 962 49 941 28 915 28 c 0
 889 28 868 49 868 75 c 0
566 714 m 0
 566 740 587 761 613 761 c 0
 639 761 659 740 659 714 c 0
 659 688 639 668 613 668 c 0
 587 668 566 688 566 714 c 0
767 598 m 0
 767 624 788 645 814 645 c 0
 840 645 861 624 861 598 c 0
 861 572 840 551 814 551 c 0
 788 551 767 572 767 598 c 0
667 656 m 0
 667 682 687 703 713 703 c 0
 739 703 760 682 760 656 c 0
 760 630 739 610 713 610 c 0
 687 610 667 630 667 656 c 0
163 16 m 0
 163 42 184 63 210 63 c 0
 236 63 257 42 257 16 c 0
 257 -10 236 -30 210 -30 c 0
 184 -30 163 -10 163 16 c 0
365 -100 m 0
 365 -74 385 -53 411 -53 c 0
 437 -53 458 -74 458 -100 c 0
 458 -126 437 -147 411 -147 c 0
 385 -147 365 -126 365 -100 c 0
264 -42 m 0
 264 -16 285 5 311 5 c 0
 337 5 357 -16 357 -42 c 0
 357 -68 337 -88 311 -88 c 0
 285 -88 264 -68 264 -42 c 0
364 714 m 0
 364 740 385 761 411 761 c 0
 437 761 458 740 458 714 c 0
 458 688 437 668 411 668 c 0
 385 668 364 688 364 714 c 0
163 598 m 0
 163 624 183 645 209 645 c 0
 235 645 256 624 256 598 c 0
 256 572 235 551 209 551 c 0
 183 551 163 572 163 598 c 0
264 656 m 0
 264 682 284 703 310 703 c 0
 336 703 357 682 357 656 c 0
 357 630 336 610 310 610 c 0
 284 610 264 630 264 656 c 0
767 16 m 0
 767 42 788 63 814 63 c 0
 840 63 861 42 861 16 c 0
 861 -10 840 -30 814 -30 c 0
 788 -30 767 -10 767 16 c 0
566 -100 m 0
 566 -74 587 -53 613 -53 c 0
 639 -53 659 -74 659 -100 c 0
 659 -126 639 -147 613 -147 c 0
 587 -147 566 -126 566 -100 c 0
667 -42 m 0
 667 -16 687 5 713 5 c 0
 739 5 760 -16 760 -42 c 0
 760 -68 739 -88 713 -88 c 0
 687 -88 667 -68 667 -42 c 0
62 423 m 0
 62 449 83 470 109 470 c 0
 135 470 156 449 156 423 c 0
 156 397 135 377 109 377 c 0
 83 377 62 397 62 423 c 0
62 191 m 0
 62 217 83 238 109 238 c 0
 135 238 156 217 156 191 c 0
 156 165 135 144 109 144 c 0
 83 144 62 165 62 191 c 0
62 307 m 0
 62 333 83 354 109 354 c 0
 135 354 156 333 156 307 c 0
 156 281 135 260 109 260 c 0
 83 260 62 281 62 307 c 0
868 423 m 0
 868 449 889 470 915 470 c 0
 941 470 962 449 962 423 c 0
 962 397 941 377 915 377 c 0
 889 377 868 397 868 423 c 0
868 191 m 0
 868 217 889 238 915 238 c 0
 941 238 962 217 962 191 c 0
 962 165 941 144 915 144 c 0
 889 144 868 165 868 191 c 0
868 307 m 0
 868 333 889 354 915 354 c 0
 941 354 962 333 962 307 c 0
 962 281 941 260 915 260 c 0
 889 260 868 281 868 307 c 0
EndSplineSet
Validated: 1
EndChar

StartChar: E
Encoding: 69 69 10
Width: 1024
Flags: HW
LayerCount: 2
Fore
SplineSet
465 772 m 0
 465 798 486 819 512 819 c 0
 538 819 559 798 559 772 c 0
 559 746 538 726 512 726 c 0
 486 726 465 746 465 772 c 0
465 307 m 0
 465 333 486 354 512 354 c 0
 538 354 559 333 559 307 c 0
 559 281 538 260 512 260 c 0
 486 260 465 281 465 307 c 0
465 -158 m 0
 465 -132 486 -111 512 -111 c 0
 538 -111 559 -132 559 -158 c 0
 559 -184 538 -205 512 -205 c 0
 486 -205 465 -184 465 -158 c 0
62 75 m 0
 62 101 83 121 109 121 c 0
 135 121 156 101 156 75 c 0
 156 49 135 28 109 28 c 0
 83 28 62 49 62 75 c 0
62 540 m 0
 62 566 83 586 109 586 c 0
 135 586 156 566 156 540 c 0
 156 514 135 493 109 493 c 0
 83 493 62 514 62 540 c 0
163 482 m 0
 163 508 184 528 210 528 c 0
 236 528 257 508 257 482 c 0
 257 456 236 435 210 435 c 0
 184 435 163 456 163 482 c 0
365 365 m 0
 365 391 385 412 411 412 c 0
 437 412 458 391 458 365 c 0
 458 339 437 319 411 319 c 0
 385 319 365 339 365 365 c 0
264 423 m 0
 264 449 285 470 311 470 c 0
 337 470 357 449 357 423 c 0
 357 397 337 377 311 377 c 0
 285 377 264 397 264 423 c 0
566 714 m 0
 566 740 587 761 613 761 c 0
 639 761 659 740 659 714 c 0
 659 688 639 668 613 668 c 0
 587 668 566 688 566 714 c 0
767 598 m 0
 767 624 788 645 814 645 c 0
 840 645 861 624 861 598 c 0
 861 572 840 551 814 551 c 0
 788 551 767 572 767 598 c 0
667 656 m 0
 667 682 687 703 713 703 c 0
 739 703 760 682 760 656 c 0
 760 630 739 610 713 610 c 0
 687 610 667 630 667 656 c 0
163 16 m 0
 163 42 184 63 210 63 c 0
 236 63 257 42 257 16 c 0
 257 -10 236 -30 210 -30 c 0
 184 -30 163 -10 163 16 c 0
365 -100 m 0
 365 -74 385 -53 411 -53 c 0
 437 -53 458 -74 458 -100 c 0
 458 -126 437 -147 411 -147 c 0
 385 -147 365 -126 365 -100 c 0
264 -42 m 0
 264 -16 285 5 311 5 c 0
 337 5 357 -16 357 -42 c 0
 357 -68 337 -88 311 -88 c 0
 285 -88 264 -68 264 -42 c 0
364 714 m 0
 364 740 385 761 411 761 c 0
 437 761 458 740 458 714 c 0
 458 688 437 668 411 668 c 0
 385 668 364 688 364 714 c 0
163 598 m 0
 163 624 183 645 209 645 c 0
 235 645 256 624 256 598 c 0
 256 572 235 551 209 551 c 0
 183 551 163 572 163 598 c 0
264 656 m 0
 264 682 284 703 310 703 c 0
 336 703 357 682 357 656 c 0
 357 630 336 610 310 610 c 0
 284 610 264 630 264 656 c 0
62 423 m 0
 62 449 83 470 109 470 c 0
 135 470 156 449 156 423 c 0
 156 397 135 377 109 377 c 0
 83 377 62 397 62 423 c 0
62 191 m 0
 62 217 83 238 109 238 c 0
 135 238 156 217 156 191 c 0
 156 165 135 144 109 144 c 0
 83 144 62 165 62 191 c 0
62 307 m 0
 62 333 83 354 109 354 c 0
 135 354 156 333 156 307 c 0
 156 281 135 260 109 260 c 0
 83 260 62 281 62 307 c 0
EndSplineSet
Validated: 1
EndChar

StartChar: e
Encoding: 101 101 11
Width: 1024
Flags: HW
LayerCount: 2
Fore
SplineSet
465 772 m 0
 465 798 486 819 512 819 c 0
 538 819 559 798 559 772 c 0
 559 746 538 726 512 726 c 0
 486 726 465 746 465 772 c 0
465 307 m 0
 465 333 486 354 512 354 c 0
 538 354 559 333 559 307 c 0
 559 281 538 260 512 260 c 0
 486 260 465 281 465 307 c 0
465 -158 m 0
 465 -132 486 -111 512 -111 c 0
 538 -111 559 -132 559 -158 c 0
 559 -184 538 -205 512 -205 c 0
 486 -205 465 -184 465 -158 c 0
62 75 m 0
 62 101 83 121 109 121 c 0
 135 121 156 101 156 75 c 0
 156 49 135 28 109 28 c 0
 83 28 62 49 62 75 c 0
62 540 m 0
 62 566 83 586 109 586 c 0
 135 586 156 566 156 540 c 0
 156 514 135 493 109 493 c 0
 83 493 62 514 62 540 c 0
163 482 m 0
 163 508 184 528 210 528 c 0
 236 528 257 508 257 482 c 0
 257 456 236 435 210 435 c 0
 184 435 163 456 163 482 c 0
365 365 m 0
 365 391 385 412 411 412 c 0
 437 412 458 391 458 365 c 0
 458 339 437 319 411 319 c 0
 385 319 365 339 365 365 c 0
264 423 m 0
 264 449 285 470 311 470 c 0
 337 470 357 449 357 423 c 0
 357 397 337 377 311 377 c 0
 285 377 264 397 264 423 c 0
566 714 m 0
 566 740 587 761 613 761 c 0
 639 761 659 740 659 714 c 0
 659 688 639 668 613 668 c 0
 587 668 566 688 566 714 c 0
767 598 m 0
 767 624 788 645 814 645 c 0
 840 645 861 624 861 598 c 0
 861 572 840 551 814 551 c 0
 788 551 767 572 767 598 c 0
667 656 m 0
 667 682 687 703 713 703 c 0
 739 703 760 682 760 656 c 0
 760 630 739 610 713 610 c 0
 687 610 667 630 667 656 c 0
163 16 m 0
 163 42 184 63 210 63 c 0
 236 63 257 42 257 16 c 0
 257 -10 236 -30 210 -30 c 0
 184 -30 163 -10 163 16 c 0
365 -100 m 0
 365 -74 385 -53 411 -53 c 0
 437 -53 458 -74 458 -100 c 0
 458 -126 437 -147 411 -147 c 0
 385 -147 365 -126 365 -100 c 0
264 -42 m 0
 264 -16 285 5 311 5 c 0
 337 5 357 -16 357 -42 c 0
 357 -68 337 -88 311 -88 c 0
 285 -88 264 -68 264 -42 c 0
364 714 m 0
 364 740 385 761 411 761 c 0
 437 761 458 740 458 714 c 0
 458 688 437 668 411 668 c 0
 385 668 364 688 364 714 c 0
163 598 m 0
 163 624 183 645 209 645 c 0
 235 645 256 624 256 598 c 0
 256 572 235 551 209 551 c 0
 183 551 163 572 163 598 c 0
264 656 m 0
 264 682 284 703 310 703 c 0
 336 703 357 682 357 656 c 0
 357 630 336 610 310 610 c 0
 284 610 264 630 264 656 c 0
62 423 m 0
 62 449 83 470 109 470 c 0
 135 470 156 449 156 423 c 0
 156 397 135 377 109 377 c 0
 83 377 62 397 62 423 c 0
62 191 m 0
 62 217 83 238 109 238 c 0
 135 238 156 217 156 191 c 0
 156 165 135 144 109 144 c 0
 83 144 62 165 62 191 c 0
62 307 m 0
 62 333 83 354 109 354 c 0
 135 354 156 333 156 307 c 0
 156 281 135 260 109 260 c 0
 83 260 62 281 62 307 c 0
EndSplineSet
Validated: 1
EndChar

StartChar: P
Encoding: 80 80 12
Width: 1024
Flags: HW
LayerCount: 2
Fore
SplineSet
465 772 m 0
 465 798 486 819 512 819 c 0
 538 819 559 798 559 772 c 0
 559 746 538 726 512 726 c 0
 486 726 465 746 465 772 c 0
465 656 m 0
 465 682 486 703 512 703 c 0
 538 703 559 682 559 656 c 0
 559 630 538 610 512 610 c 0
 486 610 465 630 465 656 c 0
465 423 m 0
 465 449 486 470 512 470 c 0
 538 470 559 449 559 423 c 0
 559 397 538 377 512 377 c 0
 486 377 465 397 465 423 c 0
465 540 m 0
 465 566 486 586 512 586 c 0
 538 586 559 566 559 540 c 0
 559 514 538 493 512 493 c 0
 486 493 465 514 465 540 c 0
465 307 m 0
 465 333 486 354 512 354 c 0
 538 354 559 333 559 307 c 0
 559 281 538 260 512 260 c 0
 486 260 465 281 465 307 c 0
465 191 m 0
 465 217 486 238 512 238 c 0
 538 238 559 217 559 191 c 0
 559 165 538 144 512 144 c 0
 486 144 465 165 465 191 c 0
465 -42 m 0
 465 -16 486 5 512 5 c 0
 538 5 559 -16 559 -42 c 0
 559 -68 538 -88 512 -88 c 0
 486 -88 465 -68 465 -42 c 0
465 75 m 0
 465 101 486 121 512 121 c 0
 538 121 559 101 559 75 c 0
 559 49 538 28 512 28 c 0
 486 28 465 49 465 75 c 0
465 -158 m 0
 465 -132 486 -111 512 -111 c 0
 538 -111 559 -132 559 -158 c 0
 559 -184 538 -205 512 -205 c 0
 486 -205 465 -184 465 -158 c 0
868 540 m 0
 868 566 889 586 915 586 c 0
 941 586 962 566 962 540 c 0
 962 514 941 493 915 493 c 0
 889 493 868 514 868 540 c 0
767 482 m 0
 767 508 788 528 814 528 c 0
 840 528 861 508 861 482 c 0
 861 456 840 435 814 435 c 0
 788 435 767 456 767 482 c 0
566 365 m 0
 566 391 587 412 613 412 c 0
 639 412 659 391 659 365 c 0
 659 339 639 319 613 319 c 0
 587 319 566 339 566 365 c 0
667 423 m 0
 667 449 687 470 713 470 c 0
 739 470 760 449 760 423 c 0
 760 397 739 377 713 377 c 0
 687 377 667 397 667 423 c 0
566 714 m 0
 566 740 587 761 613 761 c 0
 639 761 659 740 659 714 c 0
 659 688 639 668 613 668 c 0
 587 668 566 688 566 714 c 0
767 598 m 0
 767 624 788 645 814 645 c 0
 840 645 861 624 861 598 c 0
 861 572 840 551 814 551 c 0
 788 551 767 572 767 598 c 0
667 656 m 0
 667 682 687 703 713 703 c 0
 739 703 760 682 760 656 c 0
 760 630 739 610 713 610 c 0
 687 610 667 630 667 656 c 0
EndSplineSet
Validated: 1
EndChar

StartChar: O
Encoding: 79 79 13
Width: 1024
Flags: HW
LayerCount: 2
Fore
SplineSet
465 772 m 0
 465 798 486 819 512 819 c 0
 538 819 559 798 559 772 c 0
 559 746 538 726 512 726 c 0
 486 726 465 746 465 772 c 0
465 -158 m 0
 465 -132 486 -111 512 -111 c 0
 538 -111 559 -132 559 -158 c 0
 559 -184 538 -205 512 -205 c 0
 486 -205 465 -184 465 -158 c 0
868 540 m 0
 868 566 889 586 915 586 c 0
 941 586 962 566 962 540 c 0
 962 514 941 493 915 493 c 0
 889 493 868 514 868 540 c 0
62 75 m 0
 62 101 83 121 109 121 c 0
 135 121 156 101 156 75 c 0
 156 49 135 28 109 28 c 0
 83 28 62 49 62 75 c 0
62 540 m 0
 62 566 83 586 109 586 c 0
 135 586 156 566 156 540 c 0
 156 514 135 493 109 493 c 0
 83 493 62 514 62 540 c 0
868 75 m 0
 868 101 889 121 915 121 c 0
 941 121 962 101 962 75 c 0
 962 49 941 28 915 28 c 0
 889 28 868 49 868 75 c 0
566 714 m 0
 566 740 587 761 613 761 c 0
 639 761 659 740 659 714 c 0
 659 688 639 668 613 668 c 0
 587 668 566 688 566 714 c 0
767 598 m 0
 767 624 788 645 814 645 c 0
 840 645 861 624 861 598 c 0
 861 572 840 551 814 551 c 0
 788 551 767 572 767 598 c 0
667 656 m 0
 667 682 687 703 713 703 c 0
 739 703 760 682 760 656 c 0
 760 630 739 610 713 610 c 0
 687 610 667 630 667 656 c 0
163 16 m 0
 163 42 184 63 210 63 c 0
 236 63 257 42 257 16 c 0
 257 -10 236 -30 210 -30 c 0
 184 -30 163 -10 163 16 c 0
365 -100 m 0
 365 -74 385 -53 411 -53 c 0
 437 -53 458 -74 458 -100 c 0
 458 -126 437 -147 411 -147 c 0
 385 -147 365 -126 365 -100 c 0
264 -42 m 0
 264 -16 285 5 311 5 c 0
 337 5 357 -16 357 -42 c 0
 357 -68 337 -88 311 -88 c 0
 285 -88 264 -68 264 -42 c 0
364 714 m 0
 364 740 385 761 411 761 c 0
 437 761 458 740 458 714 c 0
 458 688 437 668 411 668 c 0
 385 668 364 688 364 714 c 0
163 598 m 0
 163 624 183 645 209 645 c 0
 235 645 256 624 256 598 c 0
 256 572 235 551 209 551 c 0
 183 551 163 572 163 598 c 0
264 656 m 0
 264 682 284 703 310 703 c 0
 336 703 357 682 357 656 c 0
 357 630 336 610 310 610 c 0
 284 610 264 630 264 656 c 0
767 16 m 0
 767 42 788 63 814 63 c 0
 840 63 861 42 861 16 c 0
 861 -10 840 -30 814 -30 c 0
 788 -30 767 -10 767 16 c 0
566 -100 m 0
 566 -74 587 -53 613 -53 c 0
 639 -53 659 -74 659 -100 c 0
 659 -126 639 -147 613 -147 c 0
 587 -147 566 -126 566 -100 c 0
667 -42 m 0
 667 -16 687 5 713 5 c 0
 739 5 760 -16 760 -42 c 0
 760 -68 739 -88 713 -88 c 0
 687 -88 667 -68 667 -42 c 0
62 423 m 0
 62 449 83 470 109 470 c 0
 135 470 156 449 156 423 c 0
 156 397 135 377 109 377 c 0
 83 377 62 397 62 423 c 0
62 191 m 0
 62 217 83 238 109 238 c 0
 135 238 156 217 156 191 c 0
 156 165 135 144 109 144 c 0
 83 144 62 165 62 191 c 0
62 307 m 0
 62 333 83 354 109 354 c 0
 135 354 156 333 156 307 c 0
 156 281 135 260 109 260 c 0
 83 260 62 281 62 307 c 0
868 423 m 0
 868 449 889 470 915 470 c 0
 941 470 962 449 962 423 c 0
 962 397 941 377 915 377 c 0
 889 377 868 397 868 423 c 0
868 191 m 0
 868 217 889 238 915 238 c 0
 941 238 962 217 962 191 c 0
 962 165 941 144 915 144 c 0
 889 144 868 165 868 191 c 0
868 307 m 0
 868 333 889 354 915 354 c 0
 941 354 962 333 962 307 c 0
 962 281 941 260 915 260 c 0
 889 260 868 281 868 307 c 0
EndSplineSet
Validated: 1
EndChar

StartChar: N
Encoding: 78 78 14
Width: 1024
Flags: HW
LayerCount: 2
Fore
SplineSet
465 307 m 0
 465 333 486 354 512 354 c 0
 538 354 559 333 559 307 c 0
 559 281 538 260 512 260 c 0
 486 260 465 281 465 307 c 0
868 540 m 0
 868 566 889 586 915 586 c 0
 941 586 962 566 962 540 c 0
 962 514 941 493 915 493 c 0
 889 493 868 514 868 540 c 0
62 75 m 0
 62 101 83 121 109 121 c 0
 135 121 156 101 156 75 c 0
 156 49 135 28 109 28 c 0
 83 28 62 49 62 75 c 0
62 540 m 0
 62 566 83 586 109 586 c 0
 135 586 156 566 156 540 c 0
 156 514 135 493 109 493 c 0
 83 493 62 514 62 540 c 0
163 482 m 0
 163 508 184 528 210 528 c 0
 236 528 257 508 257 482 c 0
 257 456 236 435 210 435 c 0
 184 435 163 456 163 482 c 0
365 365 m 0
 365 391 385 412 411 412 c 0
 437 412 458 391 458 365 c 0
 458 339 437 319 411 319 c 0
 385 319 365 339 365 365 c 0
264 423 m 0
 264 449 285 470 311 470 c 0
 337 470 357 449 357 423 c 0
 357 397 337 377 311 377 c 0
 285 377 264 397 264 423 c 0
566 249 m 0
 566 275 587 296 613 296 c 0
 639 296 659 275 659 249 c 0
 659 223 639 202 613 202 c 0
 587 202 566 223 566 249 c 0
767 133 m 0
 767 159 788 179 814 179 c 0
 840 179 861 159 861 133 c 0
 861 107 840 86 814 86 c 0
 788 86 767 107 767 133 c 0
667 191 m 0
 667 217 687 238 713 238 c 0
 739 238 760 217 760 191 c 0
 760 165 739 144 713 144 c 0
 687 144 667 165 667 191 c 0
868 75 m 0
 868 101 889 121 915 121 c 0
 941 121 962 101 962 75 c 0
 962 49 941 28 915 28 c 0
 889 28 868 49 868 75 c 0
62 423 m 0
 62 449 83 470 109 470 c 0
 135 470 156 449 156 423 c 0
 156 397 135 377 109 377 c 0
 83 377 62 397 62 423 c 0
62 191 m 0
 62 217 83 238 109 238 c 0
 135 238 156 217 156 191 c 0
 156 165 135 144 109 144 c 0
 83 144 62 165 62 191 c 0
62 307 m 0
 62 333 83 354 109 354 c 0
 135 354 156 333 156 307 c 0
 156 281 135 260 109 260 c 0
 83 260 62 281 62 307 c 0
868 423 m 0
 868 449 889 470 915 470 c 0
 941 470 962 449 962 423 c 0
 962 397 941 377 915 377 c 0
 889 377 868 397 868 423 c 0
868 191 m 0
 868 217 889 238 915 238 c 0
 941 238 962 217 962 191 c 0
 962 165 941 144 915 144 c 0
 889 144 868 165 868 191 c 0
868 307 m 0
 868 333 889 354 915 354 c 0
 941 354 962 333 962 307 c 0
 962 281 941 260 915 260 c 0
 889 260 868 281 868 307 c 0
EndSplineSet
Validated: 1
EndChar

StartChar: M
Encoding: 77 77 15
Width: 1024
Flags: HW
LayerCount: 2
Fore
SplineSet
465 307 m 0
 465 333 486 354 512 354 c 0
 538 354 559 333 559 307 c 0
 559 281 538 260 512 260 c 0
 486 260 465 281 465 307 c 0
868 540 m 0
 868 566 889 586 915 586 c 0
 941 586 962 566 962 540 c 0
 962 514 941 493 915 493 c 0
 889 493 868 514 868 540 c 0
767 482 m 0
 767 508 788 528 814 528 c 0
 840 528 861 508 861 482 c 0
 861 456 840 435 814 435 c 0
 788 435 767 456 767 482 c 0
566 365 m 0
 566 391 587 412 613 412 c 0
 639 412 659 391 659 365 c 0
 659 339 639 319 613 319 c 0
 587 319 566 339 566 365 c 0
667 423 m 0
 667 449 687 470 713 470 c 0
 739 470 760 449 760 423 c 0
 760 397 739 377 713 377 c 0
 687 377 667 397 667 423 c 0
62 75 m 0
 62 101 83 121 109 121 c 0
 135 121 156 101 156 75 c 0
 156 49 135 28 109 28 c 0
 83 28 62 49 62 75 c 0
62 540 m 0
 62 566 83 586 109 586 c 0
 135 586 156 566 156 540 c 0
 156 514 135 493 109 493 c 0
 83 493 62 514 62 540 c 0
163 482 m 0
 163 508 184 528 210 528 c 0
 236 528 257 508 257 482 c 0
 257 456 236 435 210 435 c 0
 184 435 163 456 163 482 c 0
365 365 m 0
 365 391 385 412 411 412 c 0
 437 412 458 391 458 365 c 0
 458 339 437 319 411 319 c 0
 385 319 365 339 365 365 c 0
264 423 m 0
 264 449 285 470 311 470 c 0
 337 470 357 449 357 423 c 0
 357 397 337 377 311 377 c 0
 285 377 264 397 264 423 c 0
868 75 m 0
 868 101 889 121 915 121 c 0
 941 121 962 101 962 75 c 0
 962 49 941 28 915 28 c 0
 889 28 868 49 868 75 c 0
62 423 m 0
 62 449 83 470 109 470 c 0
 135 470 156 449 156 423 c 0
 156 397 135 377 109 377 c 0
 83 377 62 397 62 423 c 0
62 191 m 0
 62 217 83 238 109 238 c 0
 135 238 156 217 156 191 c 0
 156 165 135 144 109 144 c 0
 83 144 62 165 62 191 c 0
62 307 m 0
 62 333 83 354 109 354 c 0
 135 354 156 333 156 307 c 0
 156 281 135 260 109 260 c 0
 83 260 62 281 62 307 c 0
868 423 m 0
 868 449 889 470 915 470 c 0
 941 470 962 449 962 423 c 0
 962 397 941 377 915 377 c 0
 889 377 868 397 868 423 c 0
868 191 m 0
 868 217 889 238 915 238 c 0
 941 238 962 217 962 191 c 0
 962 165 941 144 915 144 c 0
 889 144 868 165 868 191 c 0
868 307 m 0
 868 333 889 354 915 354 c 0
 941 354 962 333 962 307 c 0
 962 281 941 260 915 260 c 0
 889 260 868 281 868 307 c 0
EndSplineSet
Validated: 1
EndChar

StartChar: L
Encoding: 76 76 16
Width: 1024
Flags: HW
LayerCount: 2
Fore
SplineSet
465 772 m 0
 465 798 486 819 512 819 c 0
 538 819 559 798 559 772 c 0
 559 746 538 726 512 726 c 0
 486 726 465 746 465 772 c 0
465 656 m 0
 465 682 486 703 512 703 c 0
 538 703 559 682 559 656 c 0
 559 630 538 610 512 610 c 0
 486 610 465 630 465 656 c 0
465 423 m 0
 465 449 486 470 512 470 c 0
 538 470 559 449 559 423 c 0
 559 397 538 377 512 377 c 0
 486 377 465 397 465 423 c 0
465 540 m 0
 465 566 486 586 512 586 c 0
 538 586 559 566 559 540 c 0
 559 514 538 493 512 493 c 0
 486 493 465 514 465 540 c 0
465 307 m 0
 465 333 486 354 512 354 c 0
 538 354 559 333 559 307 c 0
 559 281 538 260 512 260 c 0
 486 260 465 281 465 307 c 0
465 191 m 0
 465 217 486 238 512 238 c 0
 538 238 559 217 559 191 c 0
 559 165 538 144 512 144 c 0
 486 144 465 165 465 191 c 0
465 -42 m 0
 465 -16 486 5 512 5 c 0
 538 5 559 -16 559 -42 c 0
 559 -68 538 -88 512 -88 c 0
 486 -88 465 -68 465 -42 c 0
465 75 m 0
 465 101 486 121 512 121 c 0
 538 121 559 101 559 75 c 0
 559 49 538 28 512 28 c 0
 486 28 465 49 465 75 c 0
465 -158 m 0
 465 -132 486 -111 512 -111 c 0
 538 -111 559 -132 559 -158 c 0
 559 -184 538 -205 512 -205 c 0
 486 -205 465 -184 465 -158 c 0
868 75 m 0
 868 101 889 121 915 121 c 0
 941 121 962 101 962 75 c 0
 962 49 941 28 915 28 c 0
 889 28 868 49 868 75 c 0
767 16 m 0
 767 42 788 63 814 63 c 0
 840 63 861 42 861 16 c 0
 861 -10 840 -30 814 -30 c 0
 788 -30 767 -10 767 16 c 0
566 -100 m 0
 566 -74 587 -53 613 -53 c 0
 639 -53 659 -74 659 -100 c 0
 659 -126 639 -147 613 -147 c 0
 587 -147 566 -126 566 -100 c 0
667 -42 m 0
 667 -16 687 5 713 5 c 0
 739 5 760 -16 760 -42 c 0
 760 -68 739 -88 713 -88 c 0
 687 -88 667 -68 667 -42 c 0
EndSplineSet
Validated: 1
EndChar

StartChar: K
Encoding: 75 75 17
Width: 1024
Flags: HW
LayerCount: 2
Fore
SplineSet
465 772 m 0
 465 798 486 819 512 819 c 0
 538 819 559 798 559 772 c 0
 559 746 538 726 512 726 c 0
 486 726 465 746 465 772 c 0
465 656 m 0
 465 682 486 703 512 703 c 0
 538 703 559 682 559 656 c 0
 559 630 538 610 512 610 c 0
 486 610 465 630 465 656 c 0
465 423 m 0
 465 449 486 470 512 470 c 0
 538 470 559 449 559 423 c 0
 559 397 538 377 512 377 c 0
 486 377 465 397 465 423 c 0
465 540 m 0
 465 566 486 586 512 586 c 0
 538 586 559 566 559 540 c 0
 559 514 538 493 512 493 c 0
 486 493 465 514 465 540 c 0
465 307 m 0
 465 333 486 354 512 354 c 0
 538 354 559 333 559 307 c 0
 559 281 538 260 512 260 c 0
 486 260 465 281 465 307 c 0
465 191 m 0
 465 217 486 238 512 238 c 0
 538 238 559 217 559 191 c 0
 559 165 538 144 512 144 c 0
 486 144 465 165 465 191 c 0
465 -42 m 0
 465 -16 486 5 512 5 c 0
 538 5 559 -16 559 -42 c 0
 559 -68 538 -88 512 -88 c 0
 486 -88 465 -68 465 -42 c 0
465 75 m 0
 465 101 486 121 512 121 c 0
 538 121 559 101 559 75 c 0
 559 49 538 28 512 28 c 0
 486 28 465 49 465 75 c 0
465 -158 m 0
 465 -132 486 -111 512 -111 c 0
 538 -111 559 -132 559 -158 c 0
 559 -184 538 -205 512 -205 c 0
 486 -205 465 -184 465 -158 c 0
868 540 m 0
 868 566 889 586 915 586 c 0
 941 586 962 566 962 540 c 0
 962 514 941 493 915 493 c 0
 889 493 868 514 868 540 c 0
767 482 m 0
 767 508 788 528 814 528 c 0
 840 528 861 508 861 482 c 0
 861 456 840 435 814 435 c 0
 788 435 767 456 767 482 c 0
566 365 m 0
 566 391 587 412 613 412 c 0
 639 412 659 391 659 365 c 0
 659 339 639 319 613 319 c 0
 587 319 566 339 566 365 c 0
667 423 m 0
 667 449 687 470 713 470 c 0
 739 470 760 449 760 423 c 0
 760 397 739 377 713 377 c 0
 687 377 667 397 667 423 c 0
566 249 m 0
 566 275 587 296 613 296 c 0
 639 296 659 275 659 249 c 0
 659 223 639 202 613 202 c 0
 587 202 566 223 566 249 c 0
767 133 m 0
 767 159 788 179 814 179 c 0
 840 179 861 159 861 133 c 0
 861 107 840 86 814 86 c 0
 788 86 767 107 767 133 c 0
667 191 m 0
 667 217 687 238 713 238 c 0
 739 238 760 217 760 191 c 0
 760 165 739 144 713 144 c 0
 687 144 667 165 667 191 c 0
868 75 m 0
 868 101 889 121 915 121 c 0
 941 121 962 101 962 75 c 0
 962 49 941 28 915 28 c 0
 889 28 868 49 868 75 c 0
EndSplineSet
Validated: 1
EndChar

StartChar: J
Encoding: 74 74 18
Width: 1024
Flags: HW
LayerCount: 2
Fore
SplineSet
465 772 m 0
 465 798 486 819 512 819 c 0
 538 819 559 798 559 772 c 0
 559 746 538 726 512 726 c 0
 486 726 465 746 465 772 c 0
465 656 m 0
 465 682 486 703 512 703 c 0
 538 703 559 682 559 656 c 0
 559 630 538 610 512 610 c 0
 486 610 465 630 465 656 c 0
465 423 m 0
 465 449 486 470 512 470 c 0
 538 470 559 449 559 423 c 0
 559 397 538 377 512 377 c 0
 486 377 465 397 465 423 c 0
465 540 m 0
 465 566 486 586 512 586 c 0
 538 586 559 566 559 540 c 0
 559 514 538 493 512 493 c 0
 486 493 465 514 465 540 c 0
465 307 m 0
 465 333 486 354 512 354 c 0
 538 354 559 333 559 307 c 0
 559 281 538 260 512 260 c 0
 486 260 465 281 465 307 c 0
465 191 m 0
 465 217 486 238 512 238 c 0
 538 238 559 217 559 191 c 0
 559 165 538 144 512 144 c 0
 486 144 465 165 465 191 c 0
465 -42 m 0
 465 -16 486 5 512 5 c 0
 538 5 559 -16 559 -42 c 0
 559 -68 538 -88 512 -88 c 0
 486 -88 465 -68 465 -42 c 0
465 75 m 0
 465 101 486 121 512 121 c 0
 538 121 559 101 559 75 c 0
 559 49 538 28 512 28 c 0
 486 28 465 49 465 75 c 0
465 -158 m 0
 465 -132 486 -111 512 -111 c 0
 538 -111 559 -132 559 -158 c 0
 559 -184 538 -205 512 -205 c 0
 486 -205 465 -184 465 -158 c 0
566 714 m 0
 566 740 587 761 613 761 c 0
 639 761 659 740 659 714 c 0
 659 688 639 668 613 668 c 0
 587 668 566 688 566 714 c 0
365 -100 m 0
 365 -74 385 -53 411 -53 c 0
 437 -53 458 -74 458 -100 c 0
 458 -126 437 -147 411 -147 c 0
 385 -147 365 -126 365 -100 c 0
264 -42 m 0
 264 -16 285 5 311 5 c 0
 337 5 357 -16 357 -42 c 0
 357 -68 337 -88 311 -88 c 0
 285 -88 264 -68 264 -42 c 0
364 714 m 0
 364 740 385 761 411 761 c 0
 437 761 458 740 458 714 c 0
 458 688 437 668 411 668 c 0
 385 668 364 688 364 714 c 0
EndSplineSet
Validated: 1
EndChar

StartChar: I
Encoding: 73 73 19
Width: 1024
Flags: HW
LayerCount: 2
Fore
SplineSet
465 772 m 0
 465 798 486 819 512 819 c 0
 538 819 559 798 559 772 c 0
 559 746 538 726 512 726 c 0
 486 726 465 746 465 772 c 0
465 656 m 0
 465 682 486 703 512 703 c 0
 538 703 559 682 559 656 c 0
 559 630 538 610 512 610 c 0
 486 610 465 630 465 656 c 0
465 423 m 0
 465 449 486 470 512 470 c 0
 538 470 559 449 559 423 c 0
 559 397 538 377 512 377 c 0
 486 377 465 397 465 423 c 0
465 540 m 0
 465 566 486 586 512 586 c 0
 538 586 559 566 559 540 c 0
 559 514 538 493 512 493 c 0
 486 493 465 514 465 540 c 0
465 307 m 0
 465 333 486 354 512 354 c 0
 538 354 559 333 559 307 c 0
 559 281 538 260 512 260 c 0
 486 260 465 281 465 307 c 0
465 191 m 0
 465 217 486 238 512 238 c 0
 538 238 559 217 559 191 c 0
 559 165 538 144 512 144 c 0
 486 144 465 165 465 191 c 0
465 -42 m 0
 465 -16 486 5 512 5 c 0
 538 5 559 -16 559 -42 c 0
 559 -68 538 -88 512 -88 c 0
 486 -88 465 -68 465 -42 c 0
465 75 m 0
 465 101 486 121 512 121 c 0
 538 121 559 101 559 75 c 0
 559 49 538 28 512 28 c 0
 486 28 465 49 465 75 c 0
465 -158 m 0
 465 -132 486 -111 512 -111 c 0
 538 -111 559 -132 559 -158 c 0
 559 -184 538 -205 512 -205 c 0
 486 -205 465 -184 465 -158 c 0
566 714 m 0
 566 740 587 761 613 761 c 0
 639 761 659 740 659 714 c 0
 659 688 639 668 613 668 c 0
 587 668 566 688 566 714 c 0
365 -100 m 0
 365 -74 385 -53 411 -53 c 0
 437 -53 458 -74 458 -100 c 0
 458 -126 437 -147 411 -147 c 0
 385 -147 365 -126 365 -100 c 0
364 714 m 0
 364 740 385 761 411 761 c 0
 437 761 458 740 458 714 c 0
 458 688 437 668 411 668 c 0
 385 668 364 688 364 714 c 0
566 -100 m 0
 566 -74 587 -53 613 -53 c 0
 639 -53 659 -74 659 -100 c 0
 659 -126 639 -147 613 -147 c 0
 587 -147 566 -126 566 -100 c 0
EndSplineSet
Validated: 1
EndChar

StartChar: H
Encoding: 72 72 20
Width: 1024
Flags: HW
LayerCount: 2
Fore
SplineSet
465 772 m 0
 465 798 486 819 512 819 c 0
 538 819 559 798 559 772 c 0
 559 746 538 726 512 726 c 0
 486 726 465 746 465 772 c 0
465 307 m 0
 465 333 486 354 512 354 c 0
 538 354 559 333 559 307 c 0
 559 281 538 260 512 260 c 0
 486 260 465 281 465 307 c 0
465 -158 m 0
 465 -132 486 -111 512 -111 c 0
 538 -111 559 -132 559 -158 c 0
 559 -184 538 -205 512 -205 c 0
 486 -205 465 -184 465 -158 c 0
868 540 m 0
 868 566 889 586 915 586 c 0
 941 586 962 566 962 540 c 0
 962 514 941 493 915 493 c 0
 889 493 868 514 868 540 c 0
62 75 m 0
 62 101 83 121 109 121 c 0
 135 121 156 101 156 75 c 0
 156 49 135 28 109 28 c 0
 83 28 62 49 62 75 c 0
62 540 m 0
 62 566 83 586 109 586 c 0
 135 586 156 566 156 540 c 0
 156 514 135 493 109 493 c 0
 83 493 62 514 62 540 c 0
163 482 m 0
 163 508 184 528 210 528 c 0
 236 528 257 508 257 482 c 0
 257 456 236 435 210 435 c 0
 184 435 163 456 163 482 c 0
365 365 m 0
 365 391 385 412 411 412 c 0
 437 412 458 391 458 365 c 0
 458 339 437 319 411 319 c 0
 385 319 365 339 365 365 c 0
264 423 m 0
 264 449 285 470 311 470 c 0
 337 470 357 449 357 423 c 0
 357 397 337 377 311 377 c 0
 285 377 264 397 264 423 c 0
566 249 m 0
 566 275 587 296 613 296 c 0
 639 296 659 275 659 249 c 0
 659 223 639 202 613 202 c 0
 587 202 566 223 566 249 c 0
767 133 m 0
 767 159 788 179 814 179 c 0
 840 179 861 159 861 133 c 0
 861 107 840 86 814 86 c 0
 788 86 767 107 767 133 c 0
667 191 m 0
 667 217 687 238 713 238 c 0
 739 238 760 217 760 191 c 0
 760 165 739 144 713 144 c 0
 687 144 667 165 667 191 c 0
868 75 m 0
 868 101 889 121 915 121 c 0
 941 121 962 101 962 75 c 0
 962 49 941 28 915 28 c 0
 889 28 868 49 868 75 c 0
364 714 m 0
 364 740 385 761 411 761 c 0
 437 761 458 740 458 714 c 0
 458 688 437 668 411 668 c 0
 385 668 364 688 364 714 c 0
163 598 m 0
 163 624 183 645 209 645 c 0
 235 645 256 624 256 598 c 0
 256 572 235 551 209 551 c 0
 183 551 163 572 163 598 c 0
264 656 m 0
 264 682 284 703 310 703 c 0
 336 703 357 682 357 656 c 0
 357 630 336 610 310 610 c 0
 284 610 264 630 264 656 c 0
767 16 m 0
 767 42 788 63 814 63 c 0
 840 63 861 42 861 16 c 0
 861 -10 840 -30 814 -30 c 0
 788 -30 767 -10 767 16 c 0
566 -100 m 0
 566 -74 587 -53 613 -53 c 0
 639 -53 659 -74 659 -100 c 0
 659 -126 639 -147 613 -147 c 0
 587 -147 566 -126 566 -100 c 0
667 -42 m 0
 667 -16 687 5 713 5 c 0
 739 5 760 -16 760 -42 c 0
 760 -68 739 -88 713 -88 c 0
 687 -88 667 -68 667 -42 c 0
62 423 m 0
 62 449 83 470 109 470 c 0
 135 470 156 449 156 423 c 0
 156 397 135 377 109 377 c 0
 83 377 62 397 62 423 c 0
62 191 m 0
 62 217 83 238 109 238 c 0
 135 238 156 217 156 191 c 0
 156 165 135 144 109 144 c 0
 83 144 62 165 62 191 c 0
62 307 m 0
 62 333 83 354 109 354 c 0
 135 354 156 333 156 307 c 0
 156 281 135 260 109 260 c 0
 83 260 62 281 62 307 c 0
868 423 m 0
 868 449 889 470 915 470 c 0
 941 470 962 449 962 423 c 0
 962 397 941 377 915 377 c 0
 889 377 868 397 868 423 c 0
868 191 m 0
 868 217 889 238 915 238 c 0
 941 238 962 217 962 191 c 0
 962 165 941 144 915 144 c 0
 889 144 868 165 868 191 c 0
868 307 m 0
 868 333 889 354 915 354 c 0
 941 354 962 333 962 307 c 0
 962 281 941 260 915 260 c 0
 889 260 868 281 868 307 c 0
EndSplineSet
Validated: 1
EndChar

StartChar: G
Encoding: 71 71 21
Width: 1024
Flags: HW
LayerCount: 2
Fore
SplineSet
465 772 m 0
 465 798 486 819 512 819 c 0
 538 819 559 798 559 772 c 0
 559 746 538 726 512 726 c 0
 486 726 465 746 465 772 c 0
465 307 m 0
 465 333 486 354 512 354 c 0
 538 354 559 333 559 307 c 0
 559 281 538 260 512 260 c 0
 486 260 465 281 465 307 c 0
465 -158 m 0
 465 -132 486 -111 512 -111 c 0
 538 -111 559 -132 559 -158 c 0
 559 -184 538 -205 512 -205 c 0
 486 -205 465 -184 465 -158 c 0
868 540 m 0
 868 566 889 586 915 586 c 0
 941 586 962 566 962 540 c 0
 962 514 941 493 915 493 c 0
 889 493 868 514 868 540 c 0
62 75 m 0
 62 101 83 121 109 121 c 0
 135 121 156 101 156 75 c 0
 156 49 135 28 109 28 c 0
 83 28 62 49 62 75 c 0
62 540 m 0
 62 566 83 586 109 586 c 0
 135 586 156 566 156 540 c 0
 156 514 135 493 109 493 c 0
 83 493 62 514 62 540 c 0
566 249 m 0
 566 275 587 296 613 296 c 0
 639 296 659 275 659 249 c 0
 659 223 639 202 613 202 c 0
 587 202 566 223 566 249 c 0
767 133 m 0
 767 159 788 179 814 179 c 0
 840 179 861 159 861 133 c 0
 861 107 840 86 814 86 c 0
 788 86 767 107 767 133 c 0
667 191 m 0
 667 217 687 238 713 238 c 0
 739 238 760 217 760 191 c 0
 760 165 739 144 713 144 c 0
 687 144 667 165 667 191 c 0
868 75 m 0
 868 101 889 121 915 121 c 0
 941 121 962 101 962 75 c 0
 962 49 941 28 915 28 c 0
 889 28 868 49 868 75 c 0
566 714 m 0
 566 740 587 761 613 761 c 0
 639 761 659 740 659 714 c 0
 659 688 639 668 613 668 c 0
 587 668 566 688 566 714 c 0
767 598 m 0
 767 624 788 645 814 645 c 0
 840 645 861 624 861 598 c 0
 861 572 840 551 814 551 c 0
 788 551 767 572 767 598 c 0
667 656 m 0
 667 682 687 703 713 703 c 0
 739 703 760 682 760 656 c 0
 760 630 739 610 713 610 c 0
 687 610 667 630 667 656 c 0
163 16 m 0
 163 42 184 63 210 63 c 0
 236 63 257 42 257 16 c 0
 257 -10 236 -30 210 -30 c 0
 184 -30 163 -10 163 16 c 0
365 -100 m 0
 365 -74 385 -53 411 -53 c 0
 437 -53 458 -74 458 -100 c 0
 458 -126 437 -147 411 -147 c 0
 385 -147 365 -126 365 -100 c 0
264 -42 m 0
 264 -16 285 5 311 5 c 0
 337 5 357 -16 357 -42 c 0
 357 -68 337 -88 311 -88 c 0
 285 -88 264 -68 264 -42 c 0
364 714 m 0
 364 740 385 761 411 761 c 0
 437 761 458 740 458 714 c 0
 458 688 437 668 411 668 c 0
 385 668 364 688 364 714 c 0
163 598 m 0
 163 624 183 645 209 645 c 0
 235 645 256 624 256 598 c 0
 256 572 235 551 209 551 c 0
 183 551 163 572 163 598 c 0
264 656 m 0
 264 682 284 703 310 703 c 0
 336 703 357 682 357 656 c 0
 357 630 336 610 310 610 c 0
 284 610 264 630 264 656 c 0
767 16 m 0
 767 42 788 63 814 63 c 0
 840 63 861 42 861 16 c 0
 861 -10 840 -30 814 -30 c 0
 788 -30 767 -10 767 16 c 0
566 -100 m 0
 566 -74 587 -53 613 -53 c 0
 639 -53 659 -74 659 -100 c 0
 659 -126 639 -147 613 -147 c 0
 587 -147 566 -126 566 -100 c 0
667 -42 m 0
 667 -16 687 5 713 5 c 0
 739 5 760 -16 760 -42 c 0
 760 -68 739 -88 713 -88 c 0
 687 -88 667 -68 667 -42 c 0
62 423 m 0
 62 449 83 470 109 470 c 0
 135 470 156 449 156 423 c 0
 156 397 135 377 109 377 c 0
 83 377 62 397 62 423 c 0
62 191 m 0
 62 217 83 238 109 238 c 0
 135 238 156 217 156 191 c 0
 156 165 135 144 109 144 c 0
 83 144 62 165 62 191 c 0
62 307 m 0
 62 333 83 354 109 354 c 0
 135 354 156 333 156 307 c 0
 156 281 135 260 109 260 c 0
 83 260 62 281 62 307 c 0
EndSplineSet
Validated: 1
EndChar

StartChar: F
Encoding: 70 70 22
Width: 1024
Flags: HW
LayerCount: 2
Fore
SplineSet
465 772 m 0
 465 798 486 819 512 819 c 0
 538 819 559 798 559 772 c 0
 559 746 538 726 512 726 c 0
 486 726 465 746 465 772 c 0
465 307 m 0
 465 333 486 354 512 354 c 0
 538 354 559 333 559 307 c 0
 559 281 538 260 512 260 c 0
 486 260 465 281 465 307 c 0
62 75 m 0
 62 101 83 121 109 121 c 0
 135 121 156 101 156 75 c 0
 156 49 135 28 109 28 c 0
 83 28 62 49 62 75 c 0
62 540 m 0
 62 566 83 586 109 586 c 0
 135 586 156 566 156 540 c 0
 156 514 135 493 109 493 c 0
 83 493 62 514 62 540 c 0
163 482 m 0
 163 508 184 528 210 528 c 0
 236 528 257 508 257 482 c 0
 257 456 236 435 210 435 c 0
 184 435 163 456 163 482 c 0
365 365 m 0
 365 391 385 412 411 412 c 0
 437 412 458 391 458 365 c 0
 458 339 437 319 411 319 c 0
 385 319 365 339 365 365 c 0
264 423 m 0
 264 449 285 470 311 470 c 0
 337 470 357 449 357 423 c 0
 357 397 337 377 311 377 c 0
 285 377 264 397 264 423 c 0
566 714 m 0
 566 740 587 761 613 761 c 0
 639 761 659 740 659 714 c 0
 659 688 639 668 613 668 c 0
 587 668 566 688 566 714 c 0
767 598 m 0
 767 624 788 645 814 645 c 0
 840 645 861 624 861 598 c 0
 861 572 840 551 814 551 c 0
 788 551 767 572 767 598 c 0
667 656 m 0
 667 682 687 703 713 703 c 0
 739 703 760 682 760 656 c 0
 760 630 739 610 713 610 c 0
 687 610 667 630 667 656 c 0
364 714 m 0
 364 740 385 761 411 761 c 0
 437 761 458 740 458 714 c 0
 458 688 437 668 411 668 c 0
 385 668 364 688 364 714 c 0
163 598 m 0
 163 624 183 645 209 645 c 0
 235 645 256 624 256 598 c 0
 256 572 235 551 209 551 c 0
 183 551 163 572 163 598 c 0
264 656 m 0
 264 682 284 703 310 703 c 0
 336 703 357 682 357 656 c 0
 357 630 336 610 310 610 c 0
 284 610 264 630 264 656 c 0
62 423 m 0
 62 449 83 470 109 470 c 0
 135 470 156 449 156 423 c 0
 156 397 135 377 109 377 c 0
 83 377 62 397 62 423 c 0
62 191 m 0
 62 217 83 238 109 238 c 0
 135 238 156 217 156 191 c 0
 156 165 135 144 109 144 c 0
 83 144 62 165 62 191 c 0
62 307 m 0
 62 333 83 354 109 354 c 0
 135 354 156 333 156 307 c 0
 156 281 135 260 109 260 c 0
 83 260 62 281 62 307 c 0
EndSplineSet
Validated: 1
EndChar

StartChar: D
Encoding: 68 68 23
Width: 1024
Flags: HW
LayerCount: 2
Fore
SplineSet
465 772 m 0
 465 798 486 819 512 819 c 0
 538 819 559 798 559 772 c 0
 559 746 538 726 512 726 c 0
 486 726 465 746 465 772 c 0
465 656 m 0
 465 682 486 703 512 703 c 0
 538 703 559 682 559 656 c 0
 559 630 538 610 512 610 c 0
 486 610 465 630 465 656 c 0
465 423 m 0
 465 449 486 470 512 470 c 0
 538 470 559 449 559 423 c 0
 559 397 538 377 512 377 c 0
 486 377 465 397 465 423 c 0
465 540 m 0
 465 566 486 586 512 586 c 0
 538 586 559 566 559 540 c 0
 559 514 538 493 512 493 c 0
 486 493 465 514 465 540 c 0
465 307 m 0
 465 333 486 354 512 354 c 0
 538 354 559 333 559 307 c 0
 559 281 538 260 512 260 c 0
 486 260 465 281 465 307 c 0
465 191 m 0
 465 217 486 238 512 238 c 0
 538 238 559 217 559 191 c 0
 559 165 538 144 512 144 c 0
 486 144 465 165 465 191 c 0
465 -42 m 0
 465 -16 486 5 512 5 c 0
 538 5 559 -16 559 -42 c 0
 559 -68 538 -88 512 -88 c 0
 486 -88 465 -68 465 -42 c 0
465 75 m 0
 465 101 486 121 512 121 c 0
 538 121 559 101 559 75 c 0
 559 49 538 28 512 28 c 0
 486 28 465 49 465 75 c 0
465 -158 m 0
 465 -132 486 -111 512 -111 c 0
 538 -111 559 -132 559 -158 c 0
 559 -184 538 -205 512 -205 c 0
 486 -205 465 -184 465 -158 c 0
868 540 m 0
 868 566 889 586 915 586 c 0
 941 586 962 566 962 540 c 0
 962 514 941 493 915 493 c 0
 889 493 868 514 868 540 c 0
868 75 m 0
 868 101 889 121 915 121 c 0
 941 121 962 101 962 75 c 0
 962 49 941 28 915 28 c 0
 889 28 868 49 868 75 c 0
566 714 m 0
 566 740 587 761 613 761 c 0
 639 761 659 740 659 714 c 0
 659 688 639 668 613 668 c 0
 587 668 566 688 566 714 c 0
767 598 m 0
 767 624 788 645 814 645 c 0
 840 645 861 624 861 598 c 0
 861 572 840 551 814 551 c 0
 788 551 767 572 767 598 c 0
667 656 m 0
 667 682 687 703 713 703 c 0
 739 703 760 682 760 656 c 0
 760 630 739 610 713 610 c 0
 687 610 667 630 667 656 c 0
767 16 m 0
 767 42 788 63 814 63 c 0
 840 63 861 42 861 16 c 0
 861 -10 840 -30 814 -30 c 0
 788 -30 767 -10 767 16 c 0
566 -100 m 0
 566 -74 587 -53 613 -53 c 0
 639 -53 659 -74 659 -100 c 0
 659 -126 639 -147 613 -147 c 0
 587 -147 566 -126 566 -100 c 0
667 -42 m 0
 667 -16 687 5 713 5 c 0
 739 5 760 -16 760 -42 c 0
 760 -68 739 -88 713 -88 c 0
 687 -88 667 -68 667 -42 c 0
868 423 m 0
 868 449 889 470 915 470 c 0
 941 470 962 449 962 423 c 0
 962 397 941 377 915 377 c 0
 889 377 868 397 868 423 c 0
868 191 m 0
 868 217 889 238 915 238 c 0
 941 238 962 217 962 191 c 0
 962 165 941 144 915 144 c 0
 889 144 868 165 868 191 c 0
868 307 m 0
 868 333 889 354 915 354 c 0
 941 354 962 333 962 307 c 0
 962 281 941 260 915 260 c 0
 889 260 868 281 868 307 c 0
EndSplineSet
Validated: 1
EndChar

StartChar: C
Encoding: 67 67 24
Width: 1024
Flags: HW
LayerCount: 2
Fore
SplineSet
465 772 m 0
 465 798 486 819 512 819 c 0
 538 819 559 798 559 772 c 0
 559 746 538 726 512 726 c 0
 486 726 465 746 465 772 c 0
465 -158 m 0
 465 -132 486 -111 512 -111 c 0
 538 -111 559 -132 559 -158 c 0
 559 -184 538 -205 512 -205 c 0
 486 -205 465 -184 465 -158 c 0
62 75 m 0
 62 101 83 121 109 121 c 0
 135 121 156 101 156 75 c 0
 156 49 135 28 109 28 c 0
 83 28 62 49 62 75 c 0
62 540 m 0
 62 566 83 586 109 586 c 0
 135 586 156 566 156 540 c 0
 156 514 135 493 109 493 c 0
 83 493 62 514 62 540 c 0
566 714 m 0
 566 740 587 761 613 761 c 0
 639 761 659 740 659 714 c 0
 659 688 639 668 613 668 c 0
 587 668 566 688 566 714 c 0
667 656 m 0
 667 682 687 703 713 703 c 0
 739 703 760 682 760 656 c 0
 760 630 739 610 713 610 c 0
 687 610 667 630 667 656 c 0
163 16 m 0
 163 42 184 63 210 63 c 0
 236 63 257 42 257 16 c 0
 257 -10 236 -30 210 -30 c 0
 184 -30 163 -10 163 16 c 0
365 -100 m 0
 365 -74 385 -53 411 -53 c 0
 437 -53 458 -74 458 -100 c 0
 458 -126 437 -147 411 -147 c 0
 385 -147 365 -126 365 -100 c 0
264 -42 m 0
 264 -16 285 5 311 5 c 0
 337 5 357 -16 357 -42 c 0
 357 -68 337 -88 311 -88 c 0
 285 -88 264 -68 264 -42 c 0
364 714 m 0
 364 740 385 761 411 761 c 0
 437 761 458 740 458 714 c 0
 458 688 437 668 411 668 c 0
 385 668 364 688 364 714 c 0
163 598 m 0
 163 624 183 645 209 645 c 0
 235 645 256 624 256 598 c 0
 256 572 235 551 209 551 c 0
 183 551 163 572 163 598 c 0
264 656 m 0
 264 682 284 703 310 703 c 0
 336 703 357 682 357 656 c 0
 357 630 336 610 310 610 c 0
 284 610 264 630 264 656 c 0
566 -100 m 0
 566 -74 587 -53 613 -53 c 0
 639 -53 659 -74 659 -100 c 0
 659 -126 639 -147 613 -147 c 0
 587 -147 566 -126 566 -100 c 0
667 -42 m 0
 667 -16 687 5 713 5 c 0
 739 5 760 -16 760 -42 c 0
 760 -68 739 -88 713 -88 c 0
 687 -88 667 -68 667 -42 c 0
62 423 m 0
 62 449 83 470 109 470 c 0
 135 470 156 449 156 423 c 0
 156 397 135 377 109 377 c 0
 83 377 62 397 62 423 c 0
62 191 m 0
 62 217 83 238 109 238 c 0
 135 238 156 217 156 191 c 0
 156 165 135 144 109 144 c 0
 83 144 62 165 62 191 c 0
62 307 m 0
 62 333 83 354 109 354 c 0
 135 354 156 333 156 307 c 0
 156 281 135 260 109 260 c 0
 83 260 62 281 62 307 c 0
EndSplineSet
Validated: 1
EndChar

StartChar: B
Encoding: 66 66 25
Width: 1024
Flags: HW
LayerCount: 2
Fore
SplineSet
465 -158 m 0
 465 -132 486 -111 512 -111 c 0
 538 -111 559 -132 559 -158 c 0
 559 -184 538 -205 512 -205 c 0
 486 -205 465 -184 465 -158 c 0
465 772 m 0
 465 798 486 819 512 819 c 0
 538 819 559 798 559 772 c 0
 559 746 538 726 512 726 c 0
 486 726 465 746 465 772 c 0
465 656 m 0
 465 682 486 703 512 703 c 0
 538 703 559 682 559 656 c 0
 559 630 538 610 512 610 c 0
 486 610 465 630 465 656 c 0
465 423 m 0
 465 449 486 470 512 470 c 0
 538 470 559 449 559 423 c 0
 559 397 538 377 512 377 c 0
 486 377 465 397 465 423 c 0
465 540 m 0
 465 566 486 586 512 586 c 0
 538 586 559 566 559 540 c 0
 559 514 538 493 512 493 c 0
 486 493 465 514 465 540 c 0
465 307 m 0
 465 333 486 354 512 354 c 0
 538 354 559 333 559 307 c 0
 559 281 538 260 512 260 c 0
 486 260 465 281 465 307 c 0
465 191 m 0
 465 217 486 238 512 238 c 0
 538 238 559 217 559 191 c 0
 559 165 538 144 512 144 c 0
 486 144 465 165 465 191 c 0
465 -42 m 0
 465 -16 486 5 512 5 c 0
 538 5 559 -16 559 -42 c 0
 559 -68 538 -88 512 -88 c 0
 486 -88 465 -68 465 -42 c 0
465 75 m 0
 465 101 486 121 512 121 c 0
 538 121 559 101 559 75 c 0
 559 49 538 28 512 28 c 0
 486 28 465 49 465 75 c 0
868 540 m 0
 868 566 889 586 915 586 c 0
 941 586 962 566 962 540 c 0
 962 514 941 493 915 493 c 0
 889 493 868 514 868 540 c 0
767 482 m 0
 767 508 788 528 814 528 c 0
 840 528 861 508 861 482 c 0
 861 456 840 435 814 435 c 0
 788 435 767 456 767 482 c 0
566 365 m 0
 566 391 587 412 613 412 c 0
 639 412 659 391 659 365 c 0
 659 339 639 319 613 319 c 0
 587 319 566 339 566 365 c 0
667 423 m 0
 667 449 687 470 713 470 c 0
 739 470 760 449 760 423 c 0
 760 397 739 377 713 377 c 0
 687 377 667 397 667 423 c 0
566 249 m 0
 566 275 587 296 613 296 c 0
 639 296 659 275 659 249 c 0
 659 223 639 202 613 202 c 0
 587 202 566 223 566 249 c 0
767 133 m 0
 767 159 788 179 814 179 c 0
 840 179 861 159 861 133 c 0
 861 107 840 86 814 86 c 0
 788 86 767 107 767 133 c 0
667 191 m 0
 667 217 687 238 713 238 c 0
 739 238 760 217 760 191 c 0
 760 165 739 144 713 144 c 0
 687 144 667 165 667 191 c 0
868 75 m 0
 868 101 889 121 915 121 c 0
 941 121 962 101 962 75 c 0
 962 49 941 28 915 28 c 0
 889 28 868 49 868 75 c 0
566 714 m 0
 566 740 587 761 613 761 c 0
 639 761 659 740 659 714 c 0
 659 688 639 668 613 668 c 0
 587 668 566 688 566 714 c 0
767 598 m 0
 767 624 788 645 814 645 c 0
 840 645 861 624 861 598 c 0
 861 572 840 551 814 551 c 0
 788 551 767 572 767 598 c 0
667 656 m 0
 667 682 687 703 713 703 c 0
 739 703 760 682 760 656 c 0
 760 630 739 610 713 610 c 0
 687 610 667 630 667 656 c 0
767 16 m 0
 767 42 788 63 814 63 c 0
 840 63 861 42 861 16 c 0
 861 -10 840 -30 814 -30 c 0
 788 -30 767 -10 767 16 c 0
566 -100 m 0
 566 -74 587 -53 613 -53 c 0
 639 -53 659 -74 659 -100 c 0
 659 -126 639 -147 613 -147 c 0
 587 -147 566 -126 566 -100 c 0
667 -42 m 0
 667 -16 687 5 713 5 c 0
 739 5 760 -16 760 -42 c 0
 760 -68 739 -88 713 -88 c 0
 687 -88 667 -68 667 -42 c 0
EndSplineSet
Validated: 1
EndChar

StartChar: b
Encoding: 98 98 26
Width: 1024
Flags: HW
LayerCount: 2
Fore
SplineSet
465 -158 m 0
 465 -132 486 -111 512 -111 c 0
 538 -111 559 -132 559 -158 c 0
 559 -184 538 -205 512 -205 c 0
 486 -205 465 -184 465 -158 c 0
465 772 m 0
 465 798 486 819 512 819 c 0
 538 819 559 798 559 772 c 0
 559 746 538 726 512 726 c 0
 486 726 465 746 465 772 c 0
465 656 m 0
 465 682 486 703 512 703 c 0
 538 703 559 682 559 656 c 0
 559 630 538 610 512 610 c 0
 486 610 465 630 465 656 c 0
465 423 m 0
 465 449 486 470 512 470 c 0
 538 470 559 449 559 423 c 0
 559 397 538 377 512 377 c 0
 486 377 465 397 465 423 c 0
465 540 m 0
 465 566 486 586 512 586 c 0
 538 586 559 566 559 540 c 0
 559 514 538 493 512 493 c 0
 486 493 465 514 465 540 c 0
465 307 m 0
 465 333 486 354 512 354 c 0
 538 354 559 333 559 307 c 0
 559 281 538 260 512 260 c 0
 486 260 465 281 465 307 c 0
465 191 m 0
 465 217 486 238 512 238 c 0
 538 238 559 217 559 191 c 0
 559 165 538 144 512 144 c 0
 486 144 465 165 465 191 c 0
465 -42 m 0
 465 -16 486 5 512 5 c 0
 538 5 559 -16 559 -42 c 0
 559 -68 538 -88 512 -88 c 0
 486 -88 465 -68 465 -42 c 0
465 75 m 0
 465 101 486 121 512 121 c 0
 538 121 559 101 559 75 c 0
 559 49 538 28 512 28 c 0
 486 28 465 49 465 75 c 0
868 540 m 0
 868 566 889 586 915 586 c 0
 941 586 962 566 962 540 c 0
 962 514 941 493 915 493 c 0
 889 493 868 514 868 540 c 0
767 482 m 0
 767 508 788 528 814 528 c 0
 840 528 861 508 861 482 c 0
 861 456 840 435 814 435 c 0
 788 435 767 456 767 482 c 0
566 365 m 0
 566 391 587 412 613 412 c 0
 639 412 659 391 659 365 c 0
 659 339 639 319 613 319 c 0
 587 319 566 339 566 365 c 0
667 423 m 0
 667 449 687 470 713 470 c 0
 739 470 760 449 760 423 c 0
 760 397 739 377 713 377 c 0
 687 377 667 397 667 423 c 0
566 249 m 0
 566 275 587 296 613 296 c 0
 639 296 659 275 659 249 c 0
 659 223 639 202 613 202 c 0
 587 202 566 223 566 249 c 0
767 133 m 0
 767 159 788 179 814 179 c 0
 840 179 861 159 861 133 c 0
 861 107 840 86 814 86 c 0
 788 86 767 107 767 133 c 0
667 191 m 0
 667 217 687 238 713 238 c 0
 739 238 760 217 760 191 c 0
 760 165 739 144 713 144 c 0
 687 144 667 165 667 191 c 0
868 75 m 0
 868 101 889 121 915 121 c 0
 941 121 962 101 962 75 c 0
 962 49 941 28 915 28 c 0
 889 28 868 49 868 75 c 0
566 714 m 0
 566 740 587 761 613 761 c 0
 639 761 659 740 659 714 c 0
 659 688 639 668 613 668 c 0
 587 668 566 688 566 714 c 0
767 598 m 0
 767 624 788 645 814 645 c 0
 840 645 861 624 861 598 c 0
 861 572 840 551 814 551 c 0
 788 551 767 572 767 598 c 0
667 656 m 0
 667 682 687 703 713 703 c 0
 739 703 760 682 760 656 c 0
 760 630 739 610 713 610 c 0
 687 610 667 630 667 656 c 0
767 16 m 0
 767 42 788 63 814 63 c 0
 840 63 861 42 861 16 c 0
 861 -10 840 -30 814 -30 c 0
 788 -30 767 -10 767 16 c 0
566 -100 m 0
 566 -74 587 -53 613 -53 c 0
 639 -53 659 -74 659 -100 c 0
 659 -126 639 -147 613 -147 c 0
 587 -147 566 -126 566 -100 c 0
667 -42 m 0
 667 -16 687 5 713 5 c 0
 739 5 760 -16 760 -42 c 0
 760 -68 739 -88 713 -88 c 0
 687 -88 667 -68 667 -42 c 0
EndSplineSet
Validated: 1
EndChar

StartChar: A
Encoding: 65 65 27
Width: 1024
Flags: HW
LayerCount: 2
Fore
SplineSet
465 772 m 0
 465 798 486 819 512 819 c 0
 538 819 559 798 559 772 c 0
 559 746 538 726 512 726 c 0
 486 726 465 746 465 772 c 0
465 307 m 0
 465 333 486 354 512 354 c 0
 538 354 559 333 559 307 c 0
 559 281 538 260 512 260 c 0
 486 260 465 281 465 307 c 0
868 540 m 0
 868 566 889 586 915 586 c 0
 941 586 962 566 962 540 c 0
 962 514 941 493 915 493 c 0
 889 493 868 514 868 540 c 0
767 482 m 0
 767 508 788 528 814 528 c 0
 840 528 861 508 861 482 c 0
 861 456 840 435 814 435 c 0
 788 435 767 456 767 482 c 0
566 365 m 0
 566 391 587 412 613 412 c 0
 639 412 659 391 659 365 c 0
 659 339 639 319 613 319 c 0
 587 319 566 339 566 365 c 0
667 423 m 0
 667 449 687 470 713 470 c 0
 739 470 760 449 760 423 c 0
 760 397 739 377 713 377 c 0
 687 377 667 397 667 423 c 0
62 75 m 0
 62 101 83 121 109 121 c 0
 135 121 156 101 156 75 c 0
 156 49 135 28 109 28 c 0
 83 28 62 49 62 75 c 0
62 540 m 0
 62 566 83 586 109 586 c 0
 135 586 156 566 156 540 c 0
 156 514 135 493 109 493 c 0
 83 493 62 514 62 540 c 0
163 482 m 0
 163 508 184 528 210 528 c 0
 236 528 257 508 257 482 c 0
 257 456 236 435 210 435 c 0
 184 435 163 456 163 482 c 0
365 365 m 0
 365 391 385 412 411 412 c 0
 437 412 458 391 458 365 c 0
 458 339 437 319 411 319 c 0
 385 319 365 339 365 365 c 0
264 423 m 0
 264 449 285 470 311 470 c 0
 337 470 357 449 357 423 c 0
 357 397 337 377 311 377 c 0
 285 377 264 397 264 423 c 0
868 75 m 0
 868 101 889 121 915 121 c 0
 941 121 962 101 962 75 c 0
 962 49 941 28 915 28 c 0
 889 28 868 49 868 75 c 0
566 714 m 0
 566 740 587 761 613 761 c 0
 639 761 659 740 659 714 c 0
 659 688 639 668 613 668 c 0
 587 668 566 688 566 714 c 0
767 598 m 0
 767 624 788 645 814 645 c 0
 840 645 861 624 861 598 c 0
 861 572 840 551 814 551 c 0
 788 551 767 572 767 598 c 0
667 656 m 0
 667 682 687 703 713 703 c 0
 739 703 760 682 760 656 c 0
 760 630 739 610 713 610 c 0
 687 610 667 630 667 656 c 0
364 714 m 0
 364 740 385 761 411 761 c 0
 437 761 458 740 458 714 c 0
 458 688 437 668 411 668 c 0
 385 668 364 688 364 714 c 0
163 598 m 0
 163 624 183 645 209 645 c 0
 235 645 256 624 256 598 c 0
 256 572 235 551 209 551 c 0
 183 551 163 572 163 598 c 0
264 656 m 0
 264 682 284 703 310 703 c 0
 336 703 357 682 357 656 c 0
 357 630 336 610 310 610 c 0
 284 610 264 630 264 656 c 0
62 423 m 0
 62 449 83 470 109 470 c 0
 135 470 156 449 156 423 c 0
 156 397 135 377 109 377 c 0
 83 377 62 397 62 423 c 0
62 191 m 0
 62 217 83 238 109 238 c 0
 135 238 156 217 156 191 c 0
 156 165 135 144 109 144 c 0
 83 144 62 165 62 191 c 0
62 307 m 0
 62 333 83 354 109 354 c 0
 135 354 156 333 156 307 c 0
 156 281 135 260 109 260 c 0
 83 260 62 281 62 307 c 0
868 423 m 0
 868 449 889 470 915 470 c 0
 941 470 962 449 962 423 c 0
 962 397 941 377 915 377 c 0
 889 377 868 397 868 423 c 0
868 191 m 0
 868 217 889 238 915 238 c 0
 941 238 962 217 962 191 c 0
 962 165 941 144 915 144 c 0
 889 144 868 165 868 191 c 0
868 307 m 0
 868 333 889 354 915 354 c 0
 941 354 962 333 962 307 c 0
 962 281 941 260 915 260 c 0
 889 260 868 281 868 307 c 0
EndSplineSet
Validated: 1
EndChar

StartChar: a
Encoding: 97 97 28
Width: 1024
Flags: HW
LayerCount: 2
Fore
SplineSet
465 772 m 0
 465 798 486 819 512 819 c 0
 538 819 559 798 559 772 c 0
 559 746 538 726 512 726 c 0
 486 726 465 746 465 772 c 0
465 307 m 0
 465 333 486 354 512 354 c 0
 538 354 559 333 559 307 c 0
 559 281 538 260 512 260 c 0
 486 260 465 281 465 307 c 0
868 540 m 0
 868 566 889 586 915 586 c 0
 941 586 962 566 962 540 c 0
 962 514 941 493 915 493 c 0
 889 493 868 514 868 540 c 0
767 482 m 0
 767 508 788 528 814 528 c 0
 840 528 861 508 861 482 c 0
 861 456 840 435 814 435 c 0
 788 435 767 456 767 482 c 0
566 365 m 0
 566 391 587 412 613 412 c 0
 639 412 659 391 659 365 c 0
 659 339 639 319 613 319 c 0
 587 319 566 339 566 365 c 0
667 423 m 0
 667 449 687 470 713 470 c 0
 739 470 760 449 760 423 c 0
 760 397 739 377 713 377 c 0
 687 377 667 397 667 423 c 0
62 75 m 0
 62 101 83 121 109 121 c 0
 135 121 156 101 156 75 c 0
 156 49 135 28 109 28 c 0
 83 28 62 49 62 75 c 0
62 540 m 0
 62 566 83 586 109 586 c 0
 135 586 156 566 156 540 c 0
 156 514 135 493 109 493 c 0
 83 493 62 514 62 540 c 0
163 482 m 0
 163 508 184 528 210 528 c 0
 236 528 257 508 257 482 c 0
 257 456 236 435 210 435 c 0
 184 435 163 456 163 482 c 0
365 365 m 0
 365 391 385 412 411 412 c 0
 437 412 458 391 458 365 c 0
 458 339 437 319 411 319 c 0
 385 319 365 339 365 365 c 0
264 423 m 0
 264 449 285 470 311 470 c 0
 337 470 357 449 357 423 c 0
 357 397 337 377 311 377 c 0
 285 377 264 397 264 423 c 0
868 75 m 0
 868 101 889 121 915 121 c 0
 941 121 962 101 962 75 c 0
 962 49 941 28 915 28 c 0
 889 28 868 49 868 75 c 0
566 714 m 0
 566 740 587 761 613 761 c 0
 639 761 659 740 659 714 c 0
 659 688 639 668 613 668 c 0
 587 668 566 688 566 714 c 0
767 598 m 0
 767 624 788 645 814 645 c 0
 840 645 861 624 861 598 c 0
 861 572 840 551 814 551 c 0
 788 551 767 572 767 598 c 0
667 656 m 0
 667 682 687 703 713 703 c 0
 739 703 760 682 760 656 c 0
 760 630 739 610 713 610 c 0
 687 610 667 630 667 656 c 0
364 714 m 0
 364 740 385 761 411 761 c 0
 437 761 458 740 458 714 c 0
 458 688 437 668 411 668 c 0
 385 668 364 688 364 714 c 0
163 598 m 0
 163 624 183 645 209 645 c 0
 235 645 256 624 256 598 c 0
 256 572 235 551 209 551 c 0
 183 551 163 572 163 598 c 0
264 656 m 0
 264 682 284 703 310 703 c 0
 336 703 357 682 357 656 c 0
 357 630 336 610 310 610 c 0
 284 610 264 630 264 656 c 0
62 423 m 0
 62 449 83 470 109 470 c 0
 135 470 156 449 156 423 c 0
 156 397 135 377 109 377 c 0
 83 377 62 397 62 423 c 0
62 191 m 0
 62 217 83 238 109 238 c 0
 135 238 156 217 156 191 c 0
 156 165 135 144 109 144 c 0
 83 144 62 165 62 191 c 0
62 307 m 0
 62 333 83 354 109 354 c 0
 135 354 156 333 156 307 c 0
 156 281 135 260 109 260 c 0
 83 260 62 281 62 307 c 0
868 423 m 0
 868 449 889 470 915 470 c 0
 941 470 962 449 962 423 c 0
 962 397 941 377 915 377 c 0
 889 377 868 397 868 423 c 0
868 191 m 0
 868 217 889 238 915 238 c 0
 941 238 962 217 962 191 c 0
 962 165 941 144 915 144 c 0
 889 144 868 165 868 191 c 0
868 307 m 0
 868 333 889 354 915 354 c 0
 941 354 962 333 962 307 c 0
 962 281 941 260 915 260 c 0
 889 260 868 281 868 307 c 0
EndSplineSet
Validated: 1
EndChar

StartChar: c
Encoding: 99 99 29
Width: 1024
Flags: HW
LayerCount: 2
Fore
SplineSet
465 772 m 0
 465 798 486 819 512 819 c 0
 538 819 559 798 559 772 c 0
 559 746 538 726 512 726 c 0
 486 726 465 746 465 772 c 0
465 -158 m 0
 465 -132 486 -111 512 -111 c 0
 538 -111 559 -132 559 -158 c 0
 559 -184 538 -205 512 -205 c 0
 486 -205 465 -184 465 -158 c 0
62 75 m 0
 62 101 83 121 109 121 c 0
 135 121 156 101 156 75 c 0
 156 49 135 28 109 28 c 0
 83 28 62 49 62 75 c 0
62 540 m 0
 62 566 83 586 109 586 c 0
 135 586 156 566 156 540 c 0
 156 514 135 493 109 493 c 0
 83 493 62 514 62 540 c 0
566 714 m 0
 566 740 587 761 613 761 c 0
 639 761 659 740 659 714 c 0
 659 688 639 668 613 668 c 0
 587 668 566 688 566 714 c 0
667 656 m 0
 667 682 687 703 713 703 c 0
 739 703 760 682 760 656 c 0
 760 630 739 610 713 610 c 0
 687 610 667 630 667 656 c 0
163 16 m 0
 163 42 184 63 210 63 c 0
 236 63 257 42 257 16 c 0
 257 -10 236 -30 210 -30 c 0
 184 -30 163 -10 163 16 c 0
365 -100 m 0
 365 -74 385 -53 411 -53 c 0
 437 -53 458 -74 458 -100 c 0
 458 -126 437 -147 411 -147 c 0
 385 -147 365 -126 365 -100 c 0
264 -42 m 0
 264 -16 285 5 311 5 c 0
 337 5 357 -16 357 -42 c 0
 357 -68 337 -88 311 -88 c 0
 285 -88 264 -68 264 -42 c 0
364 714 m 0
 364 740 385 761 411 761 c 0
 437 761 458 740 458 714 c 0
 458 688 437 668 411 668 c 0
 385 668 364 688 364 714 c 0
163 598 m 0
 163 624 183 645 209 645 c 0
 235 645 256 624 256 598 c 0
 256 572 235 551 209 551 c 0
 183 551 163 572 163 598 c 0
264 656 m 0
 264 682 284 703 310 703 c 0
 336 703 357 682 357 656 c 0
 357 630 336 610 310 610 c 0
 284 610 264 630 264 656 c 0
566 -100 m 0
 566 -74 587 -53 613 -53 c 0
 639 -53 659 -74 659 -100 c 0
 659 -126 639 -147 613 -147 c 0
 587 -147 566 -126 566 -100 c 0
667 -42 m 0
 667 -16 687 5 713 5 c 0
 739 5 760 -16 760 -42 c 0
 760 -68 739 -88 713 -88 c 0
 687 -88 667 -68 667 -42 c 0
62 423 m 0
 62 449 83 470 109 470 c 0
 135 470 156 449 156 423 c 0
 156 397 135 377 109 377 c 0
 83 377 62 397 62 423 c 0
62 191 m 0
 62 217 83 238 109 238 c 0
 135 238 156 217 156 191 c 0
 156 165 135 144 109 144 c 0
 83 144 62 165 62 191 c 0
62 307 m 0
 62 333 83 354 109 354 c 0
 135 354 156 333 156 307 c 0
 156 281 135 260 109 260 c 0
 83 260 62 281 62 307 c 0
EndSplineSet
Validated: 1
EndChar

StartChar: d
Encoding: 100 100 30
Width: 1024
Flags: HW
LayerCount: 2
Fore
SplineSet
465 772 m 0
 465 798 486 819 512 819 c 0
 538 819 559 798 559 772 c 0
 559 746 538 726 512 726 c 0
 486 726 465 746 465 772 c 0
465 656 m 0
 465 682 486 703 512 703 c 0
 538 703 559 682 559 656 c 0
 559 630 538 610 512 610 c 0
 486 610 465 630 465 656 c 0
465 423 m 0
 465 449 486 470 512 470 c 0
 538 470 559 449 559 423 c 0
 559 397 538 377 512 377 c 0
 486 377 465 397 465 423 c 0
465 540 m 0
 465 566 486 586 512 586 c 0
 538 586 559 566 559 540 c 0
 559 514 538 493 512 493 c 0
 486 493 465 514 465 540 c 0
465 307 m 0
 465 333 486 354 512 354 c 0
 538 354 559 333 559 307 c 0
 559 281 538 260 512 260 c 0
 486 260 465 281 465 307 c 0
465 191 m 0
 465 217 486 238 512 238 c 0
 538 238 559 217 559 191 c 0
 559 165 538 144 512 144 c 0
 486 144 465 165 465 191 c 0
465 -42 m 0
 465 -16 486 5 512 5 c 0
 538 5 559 -16 559 -42 c 0
 559 -68 538 -88 512 -88 c 0
 486 -88 465 -68 465 -42 c 0
465 75 m 0
 465 101 486 121 512 121 c 0
 538 121 559 101 559 75 c 0
 559 49 538 28 512 28 c 0
 486 28 465 49 465 75 c 0
465 -158 m 0
 465 -132 486 -111 512 -111 c 0
 538 -111 559 -132 559 -158 c 0
 559 -184 538 -205 512 -205 c 0
 486 -205 465 -184 465 -158 c 0
868 540 m 0
 868 566 889 586 915 586 c 0
 941 586 962 566 962 540 c 0
 962 514 941 493 915 493 c 0
 889 493 868 514 868 540 c 0
868 75 m 0
 868 101 889 121 915 121 c 0
 941 121 962 101 962 75 c 0
 962 49 941 28 915 28 c 0
 889 28 868 49 868 75 c 0
566 714 m 0
 566 740 587 761 613 761 c 0
 639 761 659 740 659 714 c 0
 659 688 639 668 613 668 c 0
 587 668 566 688 566 714 c 0
767 598 m 0
 767 624 788 645 814 645 c 0
 840 645 861 624 861 598 c 0
 861 572 840 551 814 551 c 0
 788 551 767 572 767 598 c 0
667 656 m 0
 667 682 687 703 713 703 c 0
 739 703 760 682 760 656 c 0
 760 630 739 610 713 610 c 0
 687 610 667 630 667 656 c 0
767 16 m 0
 767 42 788 63 814 63 c 0
 840 63 861 42 861 16 c 0
 861 -10 840 -30 814 -30 c 0
 788 -30 767 -10 767 16 c 0
566 -100 m 0
 566 -74 587 -53 613 -53 c 0
 639 -53 659 -74 659 -100 c 0
 659 -126 639 -147 613 -147 c 0
 587 -147 566 -126 566 -100 c 0
667 -42 m 0
 667 -16 687 5 713 5 c 0
 739 5 760 -16 760 -42 c 0
 760 -68 739 -88 713 -88 c 0
 687 -88 667 -68 667 -42 c 0
868 423 m 0
 868 449 889 470 915 470 c 0
 941 470 962 449 962 423 c 0
 962 397 941 377 915 377 c 0
 889 377 868 397 868 423 c 0
868 191 m 0
 868 217 889 238 915 238 c 0
 941 238 962 217 962 191 c 0
 962 165 941 144 915 144 c 0
 889 144 868 165 868 191 c 0
868 307 m 0
 868 333 889 354 915 354 c 0
 941 354 962 333 962 307 c 0
 962 281 941 260 915 260 c 0
 889 260 868 281 868 307 c 0
EndSplineSet
Validated: 1
EndChar

StartChar: f
Encoding: 102 102 31
Width: 1024
Flags: HW
LayerCount: 2
Fore
SplineSet
465 772 m 0
 465 798 486 819 512 819 c 0
 538 819 559 798 559 772 c 0
 559 746 538 726 512 726 c 0
 486 726 465 746 465 772 c 0
465 307 m 0
 465 333 486 354 512 354 c 0
 538 354 559 333 559 307 c 0
 559 281 538 260 512 260 c 0
 486 260 465 281 465 307 c 0
62 75 m 0
 62 101 83 121 109 121 c 0
 135 121 156 101 156 75 c 0
 156 49 135 28 109 28 c 0
 83 28 62 49 62 75 c 0
62 540 m 0
 62 566 83 586 109 586 c 0
 135 586 156 566 156 540 c 0
 156 514 135 493 109 493 c 0
 83 493 62 514 62 540 c 0
163 482 m 0
 163 508 184 528 210 528 c 0
 236 528 257 508 257 482 c 0
 257 456 236 435 210 435 c 0
 184 435 163 456 163 482 c 0
365 365 m 0
 365 391 385 412 411 412 c 0
 437 412 458 391 458 365 c 0
 458 339 437 319 411 319 c 0
 385 319 365 339 365 365 c 0
264 423 m 0
 264 449 285 470 311 470 c 0
 337 470 357 449 357 423 c 0
 357 397 337 377 311 377 c 0
 285 377 264 397 264 423 c 0
566 714 m 0
 566 740 587 761 613 761 c 0
 639 761 659 740 659 714 c 0
 659 688 639 668 613 668 c 0
 587 668 566 688 566 714 c 0
767 598 m 0
 767 624 788 645 814 645 c 0
 840 645 861 624 861 598 c 0
 861 572 840 551 814 551 c 0
 788 551 767 572 767 598 c 0
667 656 m 0
 667 682 687 703 713 703 c 0
 739 703 760 682 760 656 c 0
 760 630 739 610 713 610 c 0
 687 610 667 630 667 656 c 0
364 714 m 0
 364 740 385 761 411 761 c 0
 437 761 458 740 458 714 c 0
 458 688 437 668 411 668 c 0
 385 668 364 688 364 714 c 0
163 598 m 0
 163 624 183 645 209 645 c 0
 235 645 256 624 256 598 c 0
 256 572 235 551 209 551 c 0
 183 551 163 572 163 598 c 0
264 656 m 0
 264 682 284 703 310 703 c 0
 336 703 357 682 357 656 c 0
 357 630 336 610 310 610 c 0
 284 610 264 630 264 656 c 0
62 423 m 0
 62 449 83 470 109 470 c 0
 135 470 156 449 156 423 c 0
 156 397 135 377 109 377 c 0
 83 377 62 397 62 423 c 0
62 191 m 0
 62 217 83 238 109 238 c 0
 135 238 156 217 156 191 c 0
 156 165 135 144 109 144 c 0
 83 144 62 165 62 191 c 0
62 307 m 0
 62 333 83 354 109 354 c 0
 135 354 156 333 156 307 c 0
 156 281 135 260 109 260 c 0
 83 260 62 281 62 307 c 0
EndSplineSet
Validated: 1
EndChar

StartChar: g
Encoding: 103 103 32
Width: 1024
Flags: HW
LayerCount: 2
Fore
SplineSet
465 772 m 0
 465 798 486 819 512 819 c 0
 538 819 559 798 559 772 c 0
 559 746 538 726 512 726 c 0
 486 726 465 746 465 772 c 0
465 307 m 0
 465 333 486 354 512 354 c 0
 538 354 559 333 559 307 c 0
 559 281 538 260 512 260 c 0
 486 260 465 281 465 307 c 0
465 -158 m 0
 465 -132 486 -111 512 -111 c 0
 538 -111 559 -132 559 -158 c 0
 559 -184 538 -205 512 -205 c 0
 486 -205 465 -184 465 -158 c 0
868 540 m 0
 868 566 889 586 915 586 c 0
 941 586 962 566 962 540 c 0
 962 514 941 493 915 493 c 0
 889 493 868 514 868 540 c 0
62 75 m 0
 62 101 83 121 109 121 c 0
 135 121 156 101 156 75 c 0
 156 49 135 28 109 28 c 0
 83 28 62 49 62 75 c 0
62 540 m 0
 62 566 83 586 109 586 c 0
 135 586 156 566 156 540 c 0
 156 514 135 493 109 493 c 0
 83 493 62 514 62 540 c 0
566 249 m 0
 566 275 587 296 613 296 c 0
 639 296 659 275 659 249 c 0
 659 223 639 202 613 202 c 0
 587 202 566 223 566 249 c 0
767 133 m 0
 767 159 788 179 814 179 c 0
 840 179 861 159 861 133 c 0
 861 107 840 86 814 86 c 0
 788 86 767 107 767 133 c 0
667 191 m 0
 667 217 687 238 713 238 c 0
 739 238 760 217 760 191 c 0
 760 165 739 144 713 144 c 0
 687 144 667 165 667 191 c 0
868 75 m 0
 868 101 889 121 915 121 c 0
 941 121 962 101 962 75 c 0
 962 49 941 28 915 28 c 0
 889 28 868 49 868 75 c 0
566 714 m 0
 566 740 587 761 613 761 c 0
 639 761 659 740 659 714 c 0
 659 688 639 668 613 668 c 0
 587 668 566 688 566 714 c 0
767 598 m 0
 767 624 788 645 814 645 c 0
 840 645 861 624 861 598 c 0
 861 572 840 551 814 551 c 0
 788 551 767 572 767 598 c 0
667 656 m 0
 667 682 687 703 713 703 c 0
 739 703 760 682 760 656 c 0
 760 630 739 610 713 610 c 0
 687 610 667 630 667 656 c 0
163 16 m 0
 163 42 184 63 210 63 c 0
 236 63 257 42 257 16 c 0
 257 -10 236 -30 210 -30 c 0
 184 -30 163 -10 163 16 c 0
365 -100 m 0
 365 -74 385 -53 411 -53 c 0
 437 -53 458 -74 458 -100 c 0
 458 -126 437 -147 411 -147 c 0
 385 -147 365 -126 365 -100 c 0
264 -42 m 0
 264 -16 285 5 311 5 c 0
 337 5 357 -16 357 -42 c 0
 357 -68 337 -88 311 -88 c 0
 285 -88 264 -68 264 -42 c 0
364 714 m 0
 364 740 385 761 411 761 c 0
 437 761 458 740 458 714 c 0
 458 688 437 668 411 668 c 0
 385 668 364 688 364 714 c 0
163 598 m 0
 163 624 183 645 209 645 c 0
 235 645 256 624 256 598 c 0
 256 572 235 551 209 551 c 0
 183 551 163 572 163 598 c 0
264 656 m 0
 264 682 284 703 310 703 c 0
 336 703 357 682 357 656 c 0
 357 630 336 610 310 610 c 0
 284 610 264 630 264 656 c 0
767 16 m 0
 767 42 788 63 814 63 c 0
 840 63 861 42 861 16 c 0
 861 -10 840 -30 814 -30 c 0
 788 -30 767 -10 767 16 c 0
566 -100 m 0
 566 -74 587 -53 613 -53 c 0
 639 -53 659 -74 659 -100 c 0
 659 -126 639 -147 613 -147 c 0
 587 -147 566 -126 566 -100 c 0
667 -42 m 0
 667 -16 687 5 713 5 c 0
 739 5 760 -16 760 -42 c 0
 760 -68 739 -88 713 -88 c 0
 687 -88 667 -68 667 -42 c 0
62 423 m 0
 62 449 83 470 109 470 c 0
 135 470 156 449 156 423 c 0
 156 397 135 377 109 377 c 0
 83 377 62 397 62 423 c 0
62 191 m 0
 62 217 83 238 109 238 c 0
 135 238 156 217 156 191 c 0
 156 165 135 144 109 144 c 0
 83 144 62 165 62 191 c 0
62 307 m 0
 62 333 83 354 109 354 c 0
 135 354 156 333 156 307 c 0
 156 281 135 260 109 260 c 0
 83 260 62 281 62 307 c 0
EndSplineSet
Validated: 1
EndChar

StartChar: h
Encoding: 104 104 33
Width: 1024
Flags: HW
LayerCount: 2
Fore
SplineSet
465 772 m 0
 465 798 486 819 512 819 c 0
 538 819 559 798 559 772 c 0
 559 746 538 726 512 726 c 0
 486 726 465 746 465 772 c 0
465 307 m 0
 465 333 486 354 512 354 c 0
 538 354 559 333 559 307 c 0
 559 281 538 260 512 260 c 0
 486 260 465 281 465 307 c 0
465 -158 m 0
 465 -132 486 -111 512 -111 c 0
 538 -111 559 -132 559 -158 c 0
 559 -184 538 -205 512 -205 c 0
 486 -205 465 -184 465 -158 c 0
868 540 m 0
 868 566 889 586 915 586 c 0
 941 586 962 566 962 540 c 0
 962 514 941 493 915 493 c 0
 889 493 868 514 868 540 c 0
62 75 m 0
 62 101 83 121 109 121 c 0
 135 121 156 101 156 75 c 0
 156 49 135 28 109 28 c 0
 83 28 62 49 62 75 c 0
62 540 m 0
 62 566 83 586 109 586 c 0
 135 586 156 566 156 540 c 0
 156 514 135 493 109 493 c 0
 83 493 62 514 62 540 c 0
163 482 m 0
 163 508 184 528 210 528 c 0
 236 528 257 508 257 482 c 0
 257 456 236 435 210 435 c 0
 184 435 163 456 163 482 c 0
365 365 m 0
 365 391 385 412 411 412 c 0
 437 412 458 391 458 365 c 0
 458 339 437 319 411 319 c 0
 385 319 365 339 365 365 c 0
264 423 m 0
 264 449 285 470 311 470 c 0
 337 470 357 449 357 423 c 0
 357 397 337 377 311 377 c 0
 285 377 264 397 264 423 c 0
566 249 m 0
 566 275 587 296 613 296 c 0
 639 296 659 275 659 249 c 0
 659 223 639 202 613 202 c 0
 587 202 566 223 566 249 c 0
767 133 m 0
 767 159 788 179 814 179 c 0
 840 179 861 159 861 133 c 0
 861 107 840 86 814 86 c 0
 788 86 767 107 767 133 c 0
667 191 m 0
 667 217 687 238 713 238 c 0
 739 238 760 217 760 191 c 0
 760 165 739 144 713 144 c 0
 687 144 667 165 667 191 c 0
868 75 m 0
 868 101 889 121 915 121 c 0
 941 121 962 101 962 75 c 0
 962 49 941 28 915 28 c 0
 889 28 868 49 868 75 c 0
364 714 m 0
 364 740 385 761 411 761 c 0
 437 761 458 740 458 714 c 0
 458 688 437 668 411 668 c 0
 385 668 364 688 364 714 c 0
163 598 m 0
 163 624 183 645 209 645 c 0
 235 645 256 624 256 598 c 0
 256 572 235 551 209 551 c 0
 183 551 163 572 163 598 c 0
264 656 m 0
 264 682 284 703 310 703 c 0
 336 703 357 682 357 656 c 0
 357 630 336 610 310 610 c 0
 284 610 264 630 264 656 c 0
767 16 m 0
 767 42 788 63 814 63 c 0
 840 63 861 42 861 16 c 0
 861 -10 840 -30 814 -30 c 0
 788 -30 767 -10 767 16 c 0
566 -100 m 0
 566 -74 587 -53 613 -53 c 0
 639 -53 659 -74 659 -100 c 0
 659 -126 639 -147 613 -147 c 0
 587 -147 566 -126 566 -100 c 0
667 -42 m 0
 667 -16 687 5 713 5 c 0
 739 5 760 -16 760 -42 c 0
 760 -68 739 -88 713 -88 c 0
 687 -88 667 -68 667 -42 c 0
62 423 m 0
 62 449 83 470 109 470 c 0
 135 470 156 449 156 423 c 0
 156 397 135 377 109 377 c 0
 83 377 62 397 62 423 c 0
62 191 m 0
 62 217 83 238 109 238 c 0
 135 238 156 217 156 191 c 0
 156 165 135 144 109 144 c 0
 83 144 62 165 62 191 c 0
62 307 m 0
 62 333 83 354 109 354 c 0
 135 354 156 333 156 307 c 0
 156 281 135 260 109 260 c 0
 83 260 62 281 62 307 c 0
868 423 m 0
 868 449 889 470 915 470 c 0
 941 470 962 449 962 423 c 0
 962 397 941 377 915 377 c 0
 889 377 868 397 868 423 c 0
868 191 m 0
 868 217 889 238 915 238 c 0
 941 238 962 217 962 191 c 0
 962 165 941 144 915 144 c 0
 889 144 868 165 868 191 c 0
868 307 m 0
 868 333 889 354 915 354 c 0
 941 354 962 333 962 307 c 0
 962 281 941 260 915 260 c 0
 889 260 868 281 868 307 c 0
EndSplineSet
Validated: 1
EndChar

StartChar: i
Encoding: 105 105 34
Width: 1024
Flags: HW
LayerCount: 2
Fore
SplineSet
465 772 m 0
 465 798 486 819 512 819 c 0
 538 819 559 798 559 772 c 0
 559 746 538 726 512 726 c 0
 486 726 465 746 465 772 c 0
465 656 m 0
 465 682 486 703 512 703 c 0
 538 703 559 682 559 656 c 0
 559 630 538 610 512 610 c 0
 486 610 465 630 465 656 c 0
465 423 m 0
 465 449 486 470 512 470 c 0
 538 470 559 449 559 423 c 0
 559 397 538 377 512 377 c 0
 486 377 465 397 465 423 c 0
465 540 m 0
 465 566 486 586 512 586 c 0
 538 586 559 566 559 540 c 0
 559 514 538 493 512 493 c 0
 486 493 465 514 465 540 c 0
465 307 m 0
 465 333 486 354 512 354 c 0
 538 354 559 333 559 307 c 0
 559 281 538 260 512 260 c 0
 486 260 465 281 465 307 c 0
465 191 m 0
 465 217 486 238 512 238 c 0
 538 238 559 217 559 191 c 0
 559 165 538 144 512 144 c 0
 486 144 465 165 465 191 c 0
465 -42 m 0
 465 -16 486 5 512 5 c 0
 538 5 559 -16 559 -42 c 0
 559 -68 538 -88 512 -88 c 0
 486 -88 465 -68 465 -42 c 0
465 75 m 0
 465 101 486 121 512 121 c 0
 538 121 559 101 559 75 c 0
 559 49 538 28 512 28 c 0
 486 28 465 49 465 75 c 0
465 -158 m 0
 465 -132 486 -111 512 -111 c 0
 538 -111 559 -132 559 -158 c 0
 559 -184 538 -205 512 -205 c 0
 486 -205 465 -184 465 -158 c 0
566 714 m 0
 566 740 587 761 613 761 c 0
 639 761 659 740 659 714 c 0
 659 688 639 668 613 668 c 0
 587 668 566 688 566 714 c 0
365 -100 m 0
 365 -74 385 -53 411 -53 c 0
 437 -53 458 -74 458 -100 c 0
 458 -126 437 -147 411 -147 c 0
 385 -147 365 -126 365 -100 c 0
364 714 m 0
 364 740 385 761 411 761 c 0
 437 761 458 740 458 714 c 0
 458 688 437 668 411 668 c 0
 385 668 364 688 364 714 c 0
566 -100 m 0
 566 -74 587 -53 613 -53 c 0
 639 -53 659 -74 659 -100 c 0
 659 -126 639 -147 613 -147 c 0
 587 -147 566 -126 566 -100 c 0
EndSplineSet
Validated: 1
EndChar

StartChar: j
Encoding: 106 106 35
Width: 1024
Flags: HW
LayerCount: 2
Fore
SplineSet
465 772 m 0
 465 798 486 819 512 819 c 0
 538 819 559 798 559 772 c 0
 559 746 538 726 512 726 c 0
 486 726 465 746 465 772 c 0
465 656 m 0
 465 682 486 703 512 703 c 0
 538 703 559 682 559 656 c 0
 559 630 538 610 512 610 c 0
 486 610 465 630 465 656 c 0
465 423 m 0
 465 449 486 470 512 470 c 0
 538 470 559 449 559 423 c 0
 559 397 538 377 512 377 c 0
 486 377 465 397 465 423 c 0
465 540 m 0
 465 566 486 586 512 586 c 0
 538 586 559 566 559 540 c 0
 559 514 538 493 512 493 c 0
 486 493 465 514 465 540 c 0
465 307 m 0
 465 333 486 354 512 354 c 0
 538 354 559 333 559 307 c 0
 559 281 538 260 512 260 c 0
 486 260 465 281 465 307 c 0
465 191 m 0
 465 217 486 238 512 238 c 0
 538 238 559 217 559 191 c 0
 559 165 538 144 512 144 c 0
 486 144 465 165 465 191 c 0
465 -42 m 0
 465 -16 486 5 512 5 c 0
 538 5 559 -16 559 -42 c 0
 559 -68 538 -88 512 -88 c 0
 486 -88 465 -68 465 -42 c 0
465 75 m 0
 465 101 486 121 512 121 c 0
 538 121 559 101 559 75 c 0
 559 49 538 28 512 28 c 0
 486 28 465 49 465 75 c 0
465 -158 m 0
 465 -132 486 -111 512 -111 c 0
 538 -111 559 -132 559 -158 c 0
 559 -184 538 -205 512 -205 c 0
 486 -205 465 -184 465 -158 c 0
566 714 m 0
 566 740 587 761 613 761 c 0
 639 761 659 740 659 714 c 0
 659 688 639 668 613 668 c 0
 587 668 566 688 566 714 c 0
365 -100 m 0
 365 -74 385 -53 411 -53 c 0
 437 -53 458 -74 458 -100 c 0
 458 -126 437 -147 411 -147 c 0
 385 -147 365 -126 365 -100 c 0
264 -42 m 0
 264 -16 285 5 311 5 c 0
 337 5 357 -16 357 -42 c 0
 357 -68 337 -88 311 -88 c 0
 285 -88 264 -68 264 -42 c 0
364 714 m 0
 364 740 385 761 411 761 c 0
 437 761 458 740 458 714 c 0
 458 688 437 668 411 668 c 0
 385 668 364 688 364 714 c 0
EndSplineSet
Validated: 1
EndChar

StartChar: k
Encoding: 107 107 36
Width: 1024
Flags: HW
LayerCount: 2
Fore
SplineSet
465 772 m 0
 465 798 486 819 512 819 c 0
 538 819 559 798 559 772 c 0
 559 746 538 726 512 726 c 0
 486 726 465 746 465 772 c 0
465 656 m 0
 465 682 486 703 512 703 c 0
 538 703 559 682 559 656 c 0
 559 630 538 610 512 610 c 0
 486 610 465 630 465 656 c 0
465 423 m 0
 465 449 486 470 512 470 c 0
 538 470 559 449 559 423 c 0
 559 397 538 377 512 377 c 0
 486 377 465 397 465 423 c 0
465 540 m 0
 465 566 486 586 512 586 c 0
 538 586 559 566 559 540 c 0
 559 514 538 493 512 493 c 0
 486 493 465 514 465 540 c 0
465 307 m 0
 465 333 486 354 512 354 c 0
 538 354 559 333 559 307 c 0
 559 281 538 260 512 260 c 0
 486 260 465 281 465 307 c 0
465 191 m 0
 465 217 486 238 512 238 c 0
 538 238 559 217 559 191 c 0
 559 165 538 144 512 144 c 0
 486 144 465 165 465 191 c 0
465 -42 m 0
 465 -16 486 5 512 5 c 0
 538 5 559 -16 559 -42 c 0
 559 -68 538 -88 512 -88 c 0
 486 -88 465 -68 465 -42 c 0
465 75 m 0
 465 101 486 121 512 121 c 0
 538 121 559 101 559 75 c 0
 559 49 538 28 512 28 c 0
 486 28 465 49 465 75 c 0
465 -158 m 0
 465 -132 486 -111 512 -111 c 0
 538 -111 559 -132 559 -158 c 0
 559 -184 538 -205 512 -205 c 0
 486 -205 465 -184 465 -158 c 0
868 540 m 0
 868 566 889 586 915 586 c 0
 941 586 962 566 962 540 c 0
 962 514 941 493 915 493 c 0
 889 493 868 514 868 540 c 0
767 482 m 0
 767 508 788 528 814 528 c 0
 840 528 861 508 861 482 c 0
 861 456 840 435 814 435 c 0
 788 435 767 456 767 482 c 0
566 365 m 0
 566 391 587 412 613 412 c 0
 639 412 659 391 659 365 c 0
 659 339 639 319 613 319 c 0
 587 319 566 339 566 365 c 0
667 423 m 0
 667 449 687 470 713 470 c 0
 739 470 760 449 760 423 c 0
 760 397 739 377 713 377 c 0
 687 377 667 397 667 423 c 0
566 249 m 0
 566 275 587 296 613 296 c 0
 639 296 659 275 659 249 c 0
 659 223 639 202 613 202 c 0
 587 202 566 223 566 249 c 0
767 133 m 0
 767 159 788 179 814 179 c 0
 840 179 861 159 861 133 c 0
 861 107 840 86 814 86 c 0
 788 86 767 107 767 133 c 0
667 191 m 0
 667 217 687 238 713 238 c 0
 739 238 760 217 760 191 c 0
 760 165 739 144 713 144 c 0
 687 144 667 165 667 191 c 0
868 75 m 0
 868 101 889 121 915 121 c 0
 941 121 962 101 962 75 c 0
 962 49 941 28 915 28 c 0
 889 28 868 49 868 75 c 0
EndSplineSet
Validated: 1
EndChar

StartChar: l
Encoding: 108 108 37
Width: 1024
Flags: HW
LayerCount: 2
Fore
SplineSet
465 772 m 0
 465 798 486 819 512 819 c 0
 538 819 559 798 559 772 c 0
 559 746 538 726 512 726 c 0
 486 726 465 746 465 772 c 0
465 656 m 0
 465 682 486 703 512 703 c 0
 538 703 559 682 559 656 c 0
 559 630 538 610 512 610 c 0
 486 610 465 630 465 656 c 0
465 423 m 0
 465 449 486 470 512 470 c 0
 538 470 559 449 559 423 c 0
 559 397 538 377 512 377 c 0
 486 377 465 397 465 423 c 0
465 540 m 0
 465 566 486 586 512 586 c 0
 538 586 559 566 559 540 c 0
 559 514 538 493 512 493 c 0
 486 493 465 514 465 540 c 0
465 307 m 0
 465 333 486 354 512 354 c 0
 538 354 559 333 559 307 c 0
 559 281 538 260 512 260 c 0
 486 260 465 281 465 307 c 0
465 191 m 0
 465 217 486 238 512 238 c 0
 538 238 559 217 559 191 c 0
 559 165 538 144 512 144 c 0
 486 144 465 165 465 191 c 0
465 -42 m 0
 465 -16 486 5 512 5 c 0
 538 5 559 -16 559 -42 c 0
 559 -68 538 -88 512 -88 c 0
 486 -88 465 -68 465 -42 c 0
465 75 m 0
 465 101 486 121 512 121 c 0
 538 121 559 101 559 75 c 0
 559 49 538 28 512 28 c 0
 486 28 465 49 465 75 c 0
465 -158 m 0
 465 -132 486 -111 512 -111 c 0
 538 -111 559 -132 559 -158 c 0
 559 -184 538 -205 512 -205 c 0
 486 -205 465 -184 465 -158 c 0
868 75 m 0
 868 101 889 121 915 121 c 0
 941 121 962 101 962 75 c 0
 962 49 941 28 915 28 c 0
 889 28 868 49 868 75 c 0
767 16 m 0
 767 42 788 63 814 63 c 0
 840 63 861 42 861 16 c 0
 861 -10 840 -30 814 -30 c 0
 788 -30 767 -10 767 16 c 0
566 -100 m 0
 566 -74 587 -53 613 -53 c 0
 639 -53 659 -74 659 -100 c 0
 659 -126 639 -147 613 -147 c 0
 587 -147 566 -126 566 -100 c 0
667 -42 m 0
 667 -16 687 5 713 5 c 0
 739 5 760 -16 760 -42 c 0
 760 -68 739 -88 713 -88 c 0
 687 -88 667 -68 667 -42 c 0
EndSplineSet
Validated: 1
EndChar

StartChar: m
Encoding: 109 109 38
Width: 1024
Flags: HW
LayerCount: 2
Fore
SplineSet
465 307 m 0
 465 333 486 354 512 354 c 0
 538 354 559 333 559 307 c 0
 559 281 538 260 512 260 c 0
 486 260 465 281 465 307 c 0
868 540 m 0
 868 566 889 586 915 586 c 0
 941 586 962 566 962 540 c 0
 962 514 941 493 915 493 c 0
 889 493 868 514 868 540 c 0
767 482 m 0
 767 508 788 528 814 528 c 0
 840 528 861 508 861 482 c 0
 861 456 840 435 814 435 c 0
 788 435 767 456 767 482 c 0
566 365 m 0
 566 391 587 412 613 412 c 0
 639 412 659 391 659 365 c 0
 659 339 639 319 613 319 c 0
 587 319 566 339 566 365 c 0
667 423 m 0
 667 449 687 470 713 470 c 0
 739 470 760 449 760 423 c 0
 760 397 739 377 713 377 c 0
 687 377 667 397 667 423 c 0
62 75 m 0
 62 101 83 121 109 121 c 0
 135 121 156 101 156 75 c 0
 156 49 135 28 109 28 c 0
 83 28 62 49 62 75 c 0
62 540 m 0
 62 566 83 586 109 586 c 0
 135 586 156 566 156 540 c 0
 156 514 135 493 109 493 c 0
 83 493 62 514 62 540 c 0
163 482 m 0
 163 508 184 528 210 528 c 0
 236 528 257 508 257 482 c 0
 257 456 236 435 210 435 c 0
 184 435 163 456 163 482 c 0
365 365 m 0
 365 391 385 412 411 412 c 0
 437 412 458 391 458 365 c 0
 458 339 437 319 411 319 c 0
 385 319 365 339 365 365 c 0
264 423 m 0
 264 449 285 470 311 470 c 0
 337 470 357 449 357 423 c 0
 357 397 337 377 311 377 c 0
 285 377 264 397 264 423 c 0
868 75 m 0
 868 101 889 121 915 121 c 0
 941 121 962 101 962 75 c 0
 962 49 941 28 915 28 c 0
 889 28 868 49 868 75 c 0
62 423 m 0
 62 449 83 470 109 470 c 0
 135 470 156 449 156 423 c 0
 156 397 135 377 109 377 c 0
 83 377 62 397 62 423 c 0
62 191 m 0
 62 217 83 238 109 238 c 0
 135 238 156 217 156 191 c 0
 156 165 135 144 109 144 c 0
 83 144 62 165 62 191 c 0
62 307 m 0
 62 333 83 354 109 354 c 0
 135 354 156 333 156 307 c 0
 156 281 135 260 109 260 c 0
 83 260 62 281 62 307 c 0
868 423 m 0
 868 449 889 470 915 470 c 0
 941 470 962 449 962 423 c 0
 962 397 941 377 915 377 c 0
 889 377 868 397 868 423 c 0
868 191 m 0
 868 217 889 238 915 238 c 0
 941 238 962 217 962 191 c 0
 962 165 941 144 915 144 c 0
 889 144 868 165 868 191 c 0
868 307 m 0
 868 333 889 354 915 354 c 0
 941 354 962 333 962 307 c 0
 962 281 941 260 915 260 c 0
 889 260 868 281 868 307 c 0
EndSplineSet
Validated: 1
EndChar

StartChar: n
Encoding: 110 110 39
Width: 1024
Flags: HW
LayerCount: 2
Fore
SplineSet
465 307 m 0
 465 333 486 354 512 354 c 0
 538 354 559 333 559 307 c 0
 559 281 538 260 512 260 c 0
 486 260 465 281 465 307 c 0
868 540 m 0
 868 566 889 586 915 586 c 0
 941 586 962 566 962 540 c 0
 962 514 941 493 915 493 c 0
 889 493 868 514 868 540 c 0
62 75 m 0
 62 101 83 121 109 121 c 0
 135 121 156 101 156 75 c 0
 156 49 135 28 109 28 c 0
 83 28 62 49 62 75 c 0
62 540 m 0
 62 566 83 586 109 586 c 0
 135 586 156 566 156 540 c 0
 156 514 135 493 109 493 c 0
 83 493 62 514 62 540 c 0
163 482 m 0
 163 508 184 528 210 528 c 0
 236 528 257 508 257 482 c 0
 257 456 236 435 210 435 c 0
 184 435 163 456 163 482 c 0
365 365 m 0
 365 391 385 412 411 412 c 0
 437 412 458 391 458 365 c 0
 458 339 437 319 411 319 c 0
 385 319 365 339 365 365 c 0
264 423 m 0
 264 449 285 470 311 470 c 0
 337 470 357 449 357 423 c 0
 357 397 337 377 311 377 c 0
 285 377 264 397 264 423 c 0
566 249 m 0
 566 275 587 296 613 296 c 0
 639 296 659 275 659 249 c 0
 659 223 639 202 613 202 c 0
 587 202 566 223 566 249 c 0
767 133 m 0
 767 159 788 179 814 179 c 0
 840 179 861 159 861 133 c 0
 861 107 840 86 814 86 c 0
 788 86 767 107 767 133 c 0
667 191 m 0
 667 217 687 238 713 238 c 0
 739 238 760 217 760 191 c 0
 760 165 739 144 713 144 c 0
 687 144 667 165 667 191 c 0
868 75 m 0
 868 101 889 121 915 121 c 0
 941 121 962 101 962 75 c 0
 962 49 941 28 915 28 c 0
 889 28 868 49 868 75 c 0
62 423 m 0
 62 449 83 470 109 470 c 0
 135 470 156 449 156 423 c 0
 156 397 135 377 109 377 c 0
 83 377 62 397 62 423 c 0
62 191 m 0
 62 217 83 238 109 238 c 0
 135 238 156 217 156 191 c 0
 156 165 135 144 109 144 c 0
 83 144 62 165 62 191 c 0
62 307 m 0
 62 333 83 354 109 354 c 0
 135 354 156 333 156 307 c 0
 156 281 135 260 109 260 c 0
 83 260 62 281 62 307 c 0
868 423 m 0
 868 449 889 470 915 470 c 0
 941 470 962 449 962 423 c 0
 962 397 941 377 915 377 c 0
 889 377 868 397 868 423 c 0
868 191 m 0
 868 217 889 238 915 238 c 0
 941 238 962 217 962 191 c 0
 962 165 941 144 915 144 c 0
 889 144 868 165 868 191 c 0
868 307 m 0
 868 333 889 354 915 354 c 0
 941 354 962 333 962 307 c 0
 962 281 941 260 915 260 c 0
 889 260 868 281 868 307 c 0
EndSplineSet
Validated: 1
EndChar

StartChar: o
Encoding: 111 111 40
Width: 1024
Flags: HW
LayerCount: 2
Fore
SplineSet
465 772 m 0
 465 798 486 819 512 819 c 0
 538 819 559 798 559 772 c 0
 559 746 538 726 512 726 c 0
 486 726 465 746 465 772 c 0
465 -158 m 0
 465 -132 486 -111 512 -111 c 0
 538 -111 559 -132 559 -158 c 0
 559 -184 538 -205 512 -205 c 0
 486 -205 465 -184 465 -158 c 0
868 540 m 0
 868 566 889 586 915 586 c 0
 941 586 962 566 962 540 c 0
 962 514 941 493 915 493 c 0
 889 493 868 514 868 540 c 0
62 75 m 0
 62 101 83 121 109 121 c 0
 135 121 156 101 156 75 c 0
 156 49 135 28 109 28 c 0
 83 28 62 49 62 75 c 0
62 540 m 0
 62 566 83 586 109 586 c 0
 135 586 156 566 156 540 c 0
 156 514 135 493 109 493 c 0
 83 493 62 514 62 540 c 0
868 75 m 0
 868 101 889 121 915 121 c 0
 941 121 962 101 962 75 c 0
 962 49 941 28 915 28 c 0
 889 28 868 49 868 75 c 0
566 714 m 0
 566 740 587 761 613 761 c 0
 639 761 659 740 659 714 c 0
 659 688 639 668 613 668 c 0
 587 668 566 688 566 714 c 0
767 598 m 0
 767 624 788 645 814 645 c 0
 840 645 861 624 861 598 c 0
 861 572 840 551 814 551 c 0
 788 551 767 572 767 598 c 0
667 656 m 0
 667 682 687 703 713 703 c 0
 739 703 760 682 760 656 c 0
 760 630 739 610 713 610 c 0
 687 610 667 630 667 656 c 0
163 16 m 0
 163 42 184 63 210 63 c 0
 236 63 257 42 257 16 c 0
 257 -10 236 -30 210 -30 c 0
 184 -30 163 -10 163 16 c 0
365 -100 m 0
 365 -74 385 -53 411 -53 c 0
 437 -53 458 -74 458 -100 c 0
 458 -126 437 -147 411 -147 c 0
 385 -147 365 -126 365 -100 c 0
264 -42 m 0
 264 -16 285 5 311 5 c 0
 337 5 357 -16 357 -42 c 0
 357 -68 337 -88 311 -88 c 0
 285 -88 264 -68 264 -42 c 0
364 714 m 0
 364 740 385 761 411 761 c 0
 437 761 458 740 458 714 c 0
 458 688 437 668 411 668 c 0
 385 668 364 688 364 714 c 0
163 598 m 0
 163 624 183 645 209 645 c 0
 235 645 256 624 256 598 c 0
 256 572 235 551 209 551 c 0
 183 551 163 572 163 598 c 0
264 656 m 0
 264 682 284 703 310 703 c 0
 336 703 357 682 357 656 c 0
 357 630 336 610 310 610 c 0
 284 610 264 630 264 656 c 0
767 16 m 0
 767 42 788 63 814 63 c 0
 840 63 861 42 861 16 c 0
 861 -10 840 -30 814 -30 c 0
 788 -30 767 -10 767 16 c 0
566 -100 m 0
 566 -74 587 -53 613 -53 c 0
 639 -53 659 -74 659 -100 c 0
 659 -126 639 -147 613 -147 c 0
 587 -147 566 -126 566 -100 c 0
667 -42 m 0
 667 -16 687 5 713 5 c 0
 739 5 760 -16 760 -42 c 0
 760 -68 739 -88 713 -88 c 0
 687 -88 667 -68 667 -42 c 0
62 423 m 0
 62 449 83 470 109 470 c 0
 135 470 156 449 156 423 c 0
 156 397 135 377 109 377 c 0
 83 377 62 397 62 423 c 0
62 191 m 0
 62 217 83 238 109 238 c 0
 135 238 156 217 156 191 c 0
 156 165 135 144 109 144 c 0
 83 144 62 165 62 191 c 0
62 307 m 0
 62 333 83 354 109 354 c 0
 135 354 156 333 156 307 c 0
 156 281 135 260 109 260 c 0
 83 260 62 281 62 307 c 0
868 423 m 0
 868 449 889 470 915 470 c 0
 941 470 962 449 962 423 c 0
 962 397 941 377 915 377 c 0
 889 377 868 397 868 423 c 0
868 191 m 0
 868 217 889 238 915 238 c 0
 941 238 962 217 962 191 c 0
 962 165 941 144 915 144 c 0
 889 144 868 165 868 191 c 0
868 307 m 0
 868 333 889 354 915 354 c 0
 941 354 962 333 962 307 c 0
 962 281 941 260 915 260 c 0
 889 260 868 281 868 307 c 0
EndSplineSet
Validated: 1
EndChar

StartChar: p
Encoding: 112 112 41
Width: 1024
Flags: HW
LayerCount: 2
Fore
SplineSet
465 772 m 0
 465 798 486 819 512 819 c 0
 538 819 559 798 559 772 c 0
 559 746 538 726 512 726 c 0
 486 726 465 746 465 772 c 0
465 656 m 0
 465 682 486 703 512 703 c 0
 538 703 559 682 559 656 c 0
 559 630 538 610 512 610 c 0
 486 610 465 630 465 656 c 0
465 423 m 0
 465 449 486 470 512 470 c 0
 538 470 559 449 559 423 c 0
 559 397 538 377 512 377 c 0
 486 377 465 397 465 423 c 0
465 540 m 0
 465 566 486 586 512 586 c 0
 538 586 559 566 559 540 c 0
 559 514 538 493 512 493 c 0
 486 493 465 514 465 540 c 0
465 307 m 0
 465 333 486 354 512 354 c 0
 538 354 559 333 559 307 c 0
 559 281 538 260 512 260 c 0
 486 260 465 281 465 307 c 0
465 191 m 0
 465 217 486 238 512 238 c 0
 538 238 559 217 559 191 c 0
 559 165 538 144 512 144 c 0
 486 144 465 165 465 191 c 0
465 -42 m 0
 465 -16 486 5 512 5 c 0
 538 5 559 -16 559 -42 c 0
 559 -68 538 -88 512 -88 c 0
 486 -88 465 -68 465 -42 c 0
465 75 m 0
 465 101 486 121 512 121 c 0
 538 121 559 101 559 75 c 0
 559 49 538 28 512 28 c 0
 486 28 465 49 465 75 c 0
465 -158 m 0
 465 -132 486 -111 512 -111 c 0
 538 -111 559 -132 559 -158 c 0
 559 -184 538 -205 512 -205 c 0
 486 -205 465 -184 465 -158 c 0
868 540 m 0
 868 566 889 586 915 586 c 0
 941 586 962 566 962 540 c 0
 962 514 941 493 915 493 c 0
 889 493 868 514 868 540 c 0
767 482 m 0
 767 508 788 528 814 528 c 0
 840 528 861 508 861 482 c 0
 861 456 840 435 814 435 c 0
 788 435 767 456 767 482 c 0
566 365 m 0
 566 391 587 412 613 412 c 0
 639 412 659 391 659 365 c 0
 659 339 639 319 613 319 c 0
 587 319 566 339 566 365 c 0
667 423 m 0
 667 449 687 470 713 470 c 0
 739 470 760 449 760 423 c 0
 760 397 739 377 713 377 c 0
 687 377 667 397 667 423 c 0
566 714 m 0
 566 740 587 761 613 761 c 0
 639 761 659 740 659 714 c 0
 659 688 639 668 613 668 c 0
 587 668 566 688 566 714 c 0
767 598 m 0
 767 624 788 645 814 645 c 0
 840 645 861 624 861 598 c 0
 861 572 840 551 814 551 c 0
 788 551 767 572 767 598 c 0
667 656 m 0
 667 682 687 703 713 703 c 0
 739 703 760 682 760 656 c 0
 760 630 739 610 713 610 c 0
 687 610 667 630 667 656 c 0
EndSplineSet
Validated: 1
EndChar

StartChar: q
Encoding: 113 113 42
Width: 1024
Flags: HW
LayerCount: 2
Fore
SplineSet
465 772 m 0
 465 798 486 819 512 819 c 0
 538 819 559 798 559 772 c 0
 559 746 538 726 512 726 c 0
 486 726 465 746 465 772 c 0
465 -158 m 0
 465 -132 486 -111 512 -111 c 0
 538 -111 559 -132 559 -158 c 0
 559 -184 538 -205 512 -205 c 0
 486 -205 465 -184 465 -158 c 0
868 540 m 0
 868 566 889 586 915 586 c 0
 941 586 962 566 962 540 c 0
 962 514 941 493 915 493 c 0
 889 493 868 514 868 540 c 0
62 75 m 0
 62 101 83 121 109 121 c 0
 135 121 156 101 156 75 c 0
 156 49 135 28 109 28 c 0
 83 28 62 49 62 75 c 0
62 540 m 0
 62 566 83 586 109 586 c 0
 135 586 156 566 156 540 c 0
 156 514 135 493 109 493 c 0
 83 493 62 514 62 540 c 0
566 249 m 0
 566 275 587 296 613 296 c 0
 639 296 659 275 659 249 c 0
 659 223 639 202 613 202 c 0
 587 202 566 223 566 249 c 0
767 133 m 0
 767 159 788 179 814 179 c 0
 840 179 861 159 861 133 c 0
 861 107 840 86 814 86 c 0
 788 86 767 107 767 133 c 0
667 191 m 0
 667 217 687 238 713 238 c 0
 739 238 760 217 760 191 c 0
 760 165 739 144 713 144 c 0
 687 144 667 165 667 191 c 0
868 75 m 0
 868 101 889 121 915 121 c 0
 941 121 962 101 962 75 c 0
 962 49 941 28 915 28 c 0
 889 28 868 49 868 75 c 0
566 714 m 0
 566 740 587 761 613 761 c 0
 639 761 659 740 659 714 c 0
 659 688 639 668 613 668 c 0
 587 668 566 688 566 714 c 0
767 598 m 0
 767 624 788 645 814 645 c 0
 840 645 861 624 861 598 c 0
 861 572 840 551 814 551 c 0
 788 551 767 572 767 598 c 0
667 656 m 0
 667 682 687 703 713 703 c 0
 739 703 760 682 760 656 c 0
 760 630 739 610 713 610 c 0
 687 610 667 630 667 656 c 0
163 16 m 0
 163 42 184 63 210 63 c 0
 236 63 257 42 257 16 c 0
 257 -10 236 -30 210 -30 c 0
 184 -30 163 -10 163 16 c 0
365 -100 m 0
 365 -74 385 -53 411 -53 c 0
 437 -53 458 -74 458 -100 c 0
 458 -126 437 -147 411 -147 c 0
 385 -147 365 -126 365 -100 c 0
264 -42 m 0
 264 -16 285 5 311 5 c 0
 337 5 357 -16 357 -42 c 0
 357 -68 337 -88 311 -88 c 0
 285 -88 264 -68 264 -42 c 0
364 714 m 0
 364 740 385 761 411 761 c 0
 437 761 458 740 458 714 c 0
 458 688 437 668 411 668 c 0
 385 668 364 688 364 714 c 0
163 598 m 0
 163 624 183 645 209 645 c 0
 235 645 256 624 256 598 c 0
 256 572 235 551 209 551 c 0
 183 551 163 572 163 598 c 0
264 656 m 0
 264 682 284 703 310 703 c 0
 336 703 357 682 357 656 c 0
 357 630 336 610 310 610 c 0
 284 610 264 630 264 656 c 0
767 16 m 0
 767 42 788 63 814 63 c 0
 840 63 861 42 861 16 c 0
 861 -10 840 -30 814 -30 c 0
 788 -30 767 -10 767 16 c 0
566 -100 m 0
 566 -74 587 -53 613 -53 c 0
 639 -53 659 -74 659 -100 c 0
 659 -126 639 -147 613 -147 c 0
 587 -147 566 -126 566 -100 c 0
667 -42 m 0
 667 -16 687 5 713 5 c 0
 739 5 760 -16 760 -42 c 0
 760 -68 739 -88 713 -88 c 0
 687 -88 667 -68 667 -42 c 0
62 423 m 0
 62 449 83 470 109 470 c 0
 135 470 156 449 156 423 c 0
 156 397 135 377 109 377 c 0
 83 377 62 397 62 423 c 0
62 191 m 0
 62 217 83 238 109 238 c 0
 135 238 156 217 156 191 c 0
 156 165 135 144 109 144 c 0
 83 144 62 165 62 191 c 0
62 307 m 0
 62 333 83 354 109 354 c 0
 135 354 156 333 156 307 c 0
 156 281 135 260 109 260 c 0
 83 260 62 281 62 307 c 0
868 423 m 0
 868 449 889 470 915 470 c 0
 941 470 962 449 962 423 c 0
 962 397 941 377 915 377 c 0
 889 377 868 397 868 423 c 0
868 191 m 0
 868 217 889 238 915 238 c 0
 941 238 962 217 962 191 c 0
 962 165 941 144 915 144 c 0
 889 144 868 165 868 191 c 0
868 307 m 0
 868 333 889 354 915 354 c 0
 941 354 962 333 962 307 c 0
 962 281 941 260 915 260 c 0
 889 260 868 281 868 307 c 0
EndSplineSet
Validated: 1
EndChar

StartChar: r
Encoding: 114 114 43
Width: 1024
Flags: HW
LayerCount: 2
Fore
SplineSet
465 772 m 0
 465 798 486 819 512 819 c 0
 538 819 559 798 559 772 c 0
 559 746 538 726 512 726 c 0
 486 726 465 746 465 772 c 0
465 656 m 0
 465 682 486 703 512 703 c 0
 538 703 559 682 559 656 c 0
 559 630 538 610 512 610 c 0
 486 610 465 630 465 656 c 0
465 423 m 0
 465 449 486 470 512 470 c 0
 538 470 559 449 559 423 c 0
 559 397 538 377 512 377 c 0
 486 377 465 397 465 423 c 0
465 540 m 0
 465 566 486 586 512 586 c 0
 538 586 559 566 559 540 c 0
 559 514 538 493 512 493 c 0
 486 493 465 514 465 540 c 0
465 307 m 0
 465 333 486 354 512 354 c 0
 538 354 559 333 559 307 c 0
 559 281 538 260 512 260 c 0
 486 260 465 281 465 307 c 0
465 191 m 0
 465 217 486 238 512 238 c 0
 538 238 559 217 559 191 c 0
 559 165 538 144 512 144 c 0
 486 144 465 165 465 191 c 0
465 -42 m 0
 465 -16 486 5 512 5 c 0
 538 5 559 -16 559 -42 c 0
 559 -68 538 -88 512 -88 c 0
 486 -88 465 -68 465 -42 c 0
465 75 m 0
 465 101 486 121 512 121 c 0
 538 121 559 101 559 75 c 0
 559 49 538 28 512 28 c 0
 486 28 465 49 465 75 c 0
465 -158 m 0
 465 -132 486 -111 512 -111 c 0
 538 -111 559 -132 559 -158 c 0
 559 -184 538 -205 512 -205 c 0
 486 -205 465 -184 465 -158 c 0
868 540 m 0
 868 566 889 586 915 586 c 0
 941 586 962 566 962 540 c 0
 962 514 941 493 915 493 c 0
 889 493 868 514 868 540 c 0
767 482 m 0
 767 508 788 528 814 528 c 0
 840 528 861 508 861 482 c 0
 861 456 840 435 814 435 c 0
 788 435 767 456 767 482 c 0
566 365 m 0
 566 391 587 412 613 412 c 0
 639 412 659 391 659 365 c 0
 659 339 639 319 613 319 c 0
 587 319 566 339 566 365 c 0
667 423 m 0
 667 449 687 470 713 470 c 0
 739 470 760 449 760 423 c 0
 760 397 739 377 713 377 c 0
 687 377 667 397 667 423 c 0
566 249 m 0
 566 275 587 296 613 296 c 0
 639 296 659 275 659 249 c 0
 659 223 639 202 613 202 c 0
 587 202 566 223 566 249 c 0
767 133 m 0
 767 159 788 179 814 179 c 0
 840 179 861 159 861 133 c 0
 861 107 840 86 814 86 c 0
 788 86 767 107 767 133 c 0
667 191 m 0
 667 217 687 238 713 238 c 0
 739 238 760 217 760 191 c 0
 760 165 739 144 713 144 c 0
 687 144 667 165 667 191 c 0
868 75 m 0
 868 101 889 121 915 121 c 0
 941 121 962 101 962 75 c 0
 962 49 941 28 915 28 c 0
 889 28 868 49 868 75 c 0
566 714 m 0
 566 740 587 761 613 761 c 0
 639 761 659 740 659 714 c 0
 659 688 639 668 613 668 c 0
 587 668 566 688 566 714 c 0
767 598 m 0
 767 624 788 645 814 645 c 0
 840 645 861 624 861 598 c 0
 861 572 840 551 814 551 c 0
 788 551 767 572 767 598 c 0
667 656 m 0
 667 682 687 703 713 703 c 0
 739 703 760 682 760 656 c 0
 760 630 739 610 713 610 c 0
 687 610 667 630 667 656 c 0
EndSplineSet
Validated: 1
EndChar

StartChar: s
Encoding: 115 115 44
Width: 1024
Flags: HW
LayerCount: 2
Fore
SplineSet
465 772 m 0
 465 798 486 819 512 819 c 0
 538 819 559 798 559 772 c 0
 559 746 538 726 512 726 c 0
 486 726 465 746 465 772 c 0
465 307 m 0
 465 333 486 354 512 354 c 0
 538 354 559 333 559 307 c 0
 559 281 538 260 512 260 c 0
 486 260 465 281 465 307 c 0
465 -158 m 0
 465 -132 486 -111 512 -111 c 0
 538 -111 559 -132 559 -158 c 0
 559 -184 538 -205 512 -205 c 0
 486 -205 465 -184 465 -158 c 0
868 540 m 0
 868 566 889 586 915 586 c 0
 941 586 962 566 962 540 c 0
 962 514 941 493 915 493 c 0
 889 493 868 514 868 540 c 0
62 75 m 0
 62 101 83 121 109 121 c 0
 135 121 156 101 156 75 c 0
 156 49 135 28 109 28 c 0
 83 28 62 49 62 75 c 0
62 540 m 0
 62 566 83 586 109 586 c 0
 135 586 156 566 156 540 c 0
 156 514 135 493 109 493 c 0
 83 493 62 514 62 540 c 0
163 482 m 0
 163 508 184 528 210 528 c 0
 236 528 257 508 257 482 c 0
 257 456 236 435 210 435 c 0
 184 435 163 456 163 482 c 0
365 365 m 0
 365 391 385 412 411 412 c 0
 437 412 458 391 458 365 c 0
 458 339 437 319 411 319 c 0
 385 319 365 339 365 365 c 0
264 423 m 0
 264 449 285 470 311 470 c 0
 337 470 357 449 357 423 c 0
 357 397 337 377 311 377 c 0
 285 377 264 397 264 423 c 0
566 249 m 0
 566 275 587 296 613 296 c 0
 639 296 659 275 659 249 c 0
 659 223 639 202 613 202 c 0
 587 202 566 223 566 249 c 0
767 133 m 0
 767 159 788 179 814 179 c 0
 840 179 861 159 861 133 c 0
 861 107 840 86 814 86 c 0
 788 86 767 107 767 133 c 0
667 191 m 0
 667 217 687 238 713 238 c 0
 739 238 760 217 760 191 c 0
 760 165 739 144 713 144 c 0
 687 144 667 165 667 191 c 0
868 75 m 0
 868 101 889 121 915 121 c 0
 941 121 962 101 962 75 c 0
 962 49 941 28 915 28 c 0
 889 28 868 49 868 75 c 0
566 714 m 0
 566 740 587 761 613 761 c 0
 639 761 659 740 659 714 c 0
 659 688 639 668 613 668 c 0
 587 668 566 688 566 714 c 0
767 598 m 0
 767 624 788 645 814 645 c 0
 840 645 861 624 861 598 c 0
 861 572 840 551 814 551 c 0
 788 551 767 572 767 598 c 0
667 656 m 0
 667 682 687 703 713 703 c 0
 739 703 760 682 760 656 c 0
 760 630 739 610 713 610 c 0
 687 610 667 630 667 656 c 0
163 16 m 0
 163 42 184 63 210 63 c 0
 236 63 257 42 257 16 c 0
 257 -10 236 -30 210 -30 c 0
 184 -30 163 -10 163 16 c 0
365 -100 m 0
 365 -74 385 -53 411 -53 c 0
 437 -53 458 -74 458 -100 c 0
 458 -126 437 -147 411 -147 c 0
 385 -147 365 -126 365 -100 c 0
264 -42 m 0
 264 -16 285 5 311 5 c 0
 337 5 357 -16 357 -42 c 0
 357 -68 337 -88 311 -88 c 0
 285 -88 264 -68 264 -42 c 0
364 714 m 0
 364 740 385 761 411 761 c 0
 437 761 458 740 458 714 c 0
 458 688 437 668 411 668 c 0
 385 668 364 688 364 714 c 0
163 598 m 0
 163 624 183 645 209 645 c 0
 235 645 256 624 256 598 c 0
 256 572 235 551 209 551 c 0
 183 551 163 572 163 598 c 0
264 656 m 0
 264 682 284 703 310 703 c 0
 336 703 357 682 357 656 c 0
 357 630 336 610 310 610 c 0
 284 610 264 630 264 656 c 0
767 16 m 0
 767 42 788 63 814 63 c 0
 840 63 861 42 861 16 c 0
 861 -10 840 -30 814 -30 c 0
 788 -30 767 -10 767 16 c 0
566 -100 m 0
 566 -74 587 -53 613 -53 c 0
 639 -53 659 -74 659 -100 c 0
 659 -126 639 -147 613 -147 c 0
 587 -147 566 -126 566 -100 c 0
667 -42 m 0
 667 -16 687 5 713 5 c 0
 739 5 760 -16 760 -42 c 0
 760 -68 739 -88 713 -88 c 0
 687 -88 667 -68 667 -42 c 0
EndSplineSet
Validated: 1
EndChar

StartChar: t
Encoding: 116 116 45
Width: 1024
Flags: HW
LayerCount: 2
Fore
SplineSet
465 772 m 0
 465 798 486 819 512 819 c 0
 538 819 559 798 559 772 c 0
 559 746 538 726 512 726 c 0
 486 726 465 746 465 772 c 0
465 656 m 0
 465 682 486 703 512 703 c 0
 538 703 559 682 559 656 c 0
 559 630 538 610 512 610 c 0
 486 610 465 630 465 656 c 0
465 423 m 0
 465 449 486 470 512 470 c 0
 538 470 559 449 559 423 c 0
 559 397 538 377 512 377 c 0
 486 377 465 397 465 423 c 0
465 540 m 0
 465 566 486 586 512 586 c 0
 538 586 559 566 559 540 c 0
 559 514 538 493 512 493 c 0
 486 493 465 514 465 540 c 0
465 307 m 0
 465 333 486 354 512 354 c 0
 538 354 559 333 559 307 c 0
 559 281 538 260 512 260 c 0
 486 260 465 281 465 307 c 0
465 191 m 0
 465 217 486 238 512 238 c 0
 538 238 559 217 559 191 c 0
 559 165 538 144 512 144 c 0
 486 144 465 165 465 191 c 0
465 -42 m 0
 465 -16 486 5 512 5 c 0
 538 5 559 -16 559 -42 c 0
 559 -68 538 -88 512 -88 c 0
 486 -88 465 -68 465 -42 c 0
465 75 m 0
 465 101 486 121 512 121 c 0
 538 121 559 101 559 75 c 0
 559 49 538 28 512 28 c 0
 486 28 465 49 465 75 c 0
465 -158 m 0
 465 -132 486 -111 512 -111 c 0
 538 -111 559 -132 559 -158 c 0
 559 -184 538 -205 512 -205 c 0
 486 -205 465 -184 465 -158 c 0
868 540 m 0
 868 566 889 586 915 586 c 0
 941 586 962 566 962 540 c 0
 962 514 941 493 915 493 c 0
 889 493 868 514 868 540 c 0
62 540 m 0
 62 566 83 586 109 586 c 0
 135 586 156 566 156 540 c 0
 156 514 135 493 109 493 c 0
 83 493 62 514 62 540 c 0
566 714 m 0
 566 740 587 761 613 761 c 0
 639 761 659 740 659 714 c 0
 659 688 639 668 613 668 c 0
 587 668 566 688 566 714 c 0
767 598 m 0
 767 624 788 645 814 645 c 0
 840 645 861 624 861 598 c 0
 861 572 840 551 814 551 c 0
 788 551 767 572 767 598 c 0
667 656 m 0
 667 682 687 703 713 703 c 0
 739 703 760 682 760 656 c 0
 760 630 739 610 713 610 c 0
 687 610 667 630 667 656 c 0
364 714 m 0
 364 740 385 761 411 761 c 0
 437 761 458 740 458 714 c 0
 458 688 437 668 411 668 c 0
 385 668 364 688 364 714 c 0
163 598 m 0
 163 624 183 645 209 645 c 0
 235 645 256 624 256 598 c 0
 256 572 235 551 209 551 c 0
 183 551 163 572 163 598 c 0
264 656 m 0
 264 682 284 703 310 703 c 0
 336 703 357 682 357 656 c 0
 357 630 336 610 310 610 c 0
 284 610 264 630 264 656 c 0
EndSplineSet
Validated: 1
EndChar

StartChar: u
Encoding: 117 117 46
Width: 1024
Flags: HW
LayerCount: 2
Fore
SplineSet
465 772 m 0
 465 798 486 819 512 819 c 0
 538 819 559 798 559 772 c 0
 559 746 538 726 512 726 c 0
 486 726 465 746 465 772 c 0
465 -158 m 0
 465 -132 486 -111 512 -111 c 0
 538 -111 559 -132 559 -158 c 0
 559 -184 538 -205 512 -205 c 0
 486 -205 465 -184 465 -158 c 0
868 540 m 0
 868 566 889 586 915 586 c 0
 941 586 962 566 962 540 c 0
 962 514 941 493 915 493 c 0
 889 493 868 514 868 540 c 0
62 75 m 0
 62 101 83 121 109 121 c 0
 135 121 156 101 156 75 c 0
 156 49 135 28 109 28 c 0
 83 28 62 49 62 75 c 0
62 540 m 0
 62 566 83 586 109 586 c 0
 135 586 156 566 156 540 c 0
 156 514 135 493 109 493 c 0
 83 493 62 514 62 540 c 0
868 75 m 0
 868 101 889 121 915 121 c 0
 941 121 962 101 962 75 c 0
 962 49 941 28 915 28 c 0
 889 28 868 49 868 75 c 0
163 16 m 0
 163 42 184 63 210 63 c 0
 236 63 257 42 257 16 c 0
 257 -10 236 -30 210 -30 c 0
 184 -30 163 -10 163 16 c 0
365 -100 m 0
 365 -74 385 -53 411 -53 c 0
 437 -53 458 -74 458 -100 c 0
 458 -126 437 -147 411 -147 c 0
 385 -147 365 -126 365 -100 c 0
264 -42 m 0
 264 -16 285 5 311 5 c 0
 337 5 357 -16 357 -42 c 0
 357 -68 337 -88 311 -88 c 0
 285 -88 264 -68 264 -42 c 0
364 714 m 0
 364 740 385 761 411 761 c 0
 437 761 458 740 458 714 c 0
 458 688 437 668 411 668 c 0
 385 668 364 688 364 714 c 0
163 598 m 0
 163 624 183 645 209 645 c 0
 235 645 256 624 256 598 c 0
 256 572 235 551 209 551 c 0
 183 551 163 572 163 598 c 0
264 656 m 0
 264 682 284 703 310 703 c 0
 336 703 357 682 357 656 c 0
 357 630 336 610 310 610 c 0
 284 610 264 630 264 656 c 0
767 16 m 0
 767 42 788 63 814 63 c 0
 840 63 861 42 861 16 c 0
 861 -10 840 -30 814 -30 c 0
 788 -30 767 -10 767 16 c 0
566 -100 m 0
 566 -74 587 -53 613 -53 c 0
 639 -53 659 -74 659 -100 c 0
 659 -126 639 -147 613 -147 c 0
 587 -147 566 -126 566 -100 c 0
667 -42 m 0
 667 -16 687 5 713 5 c 0
 739 5 760 -16 760 -42 c 0
 760 -68 739 -88 713 -88 c 0
 687 -88 667 -68 667 -42 c 0
62 423 m 0
 62 449 83 470 109 470 c 0
 135 470 156 449 156 423 c 0
 156 397 135 377 109 377 c 0
 83 377 62 397 62 423 c 0
62 191 m 0
 62 217 83 238 109 238 c 0
 135 238 156 217 156 191 c 0
 156 165 135 144 109 144 c 0
 83 144 62 165 62 191 c 0
62 307 m 0
 62 333 83 354 109 354 c 0
 135 354 156 333 156 307 c 0
 156 281 135 260 109 260 c 0
 83 260 62 281 62 307 c 0
868 423 m 0
 868 449 889 470 915 470 c 0
 941 470 962 449 962 423 c 0
 962 397 941 377 915 377 c 0
 889 377 868 397 868 423 c 0
868 191 m 0
 868 217 889 238 915 238 c 0
 941 238 962 217 962 191 c 0
 962 165 941 144 915 144 c 0
 889 144 868 165 868 191 c 0
868 307 m 0
 868 333 889 354 915 354 c 0
 941 354 962 333 962 307 c 0
 962 281 941 260 915 260 c 0
 889 260 868 281 868 307 c 0
EndSplineSet
Validated: 1
EndChar

StartChar: v
Encoding: 118 118 47
Width: 1024
Flags: HW
LayerCount: 2
Fore
SplineSet
465 -158 m 0
 465 -132 486 -111 512 -111 c 0
 538 -111 559 -132 559 -158 c 0
 559 -184 538 -205 512 -205 c 0
 486 -205 465 -184 465 -158 c 0
868 540 m 0
 868 566 889 586 915 586 c 0
 941 586 962 566 962 540 c 0
 962 514 941 493 915 493 c 0
 889 493 868 514 868 540 c 0
62 75 m 0
 62 101 83 121 109 121 c 0
 135 121 156 101 156 75 c 0
 156 49 135 28 109 28 c 0
 83 28 62 49 62 75 c 0
62 540 m 0
 62 566 83 586 109 586 c 0
 135 586 156 566 156 540 c 0
 156 514 135 493 109 493 c 0
 83 493 62 514 62 540 c 0
868 75 m 0
 868 101 889 121 915 121 c 0
 941 121 962 101 962 75 c 0
 962 49 941 28 915 28 c 0
 889 28 868 49 868 75 c 0
163 16 m 0
 163 42 184 63 210 63 c 0
 236 63 257 42 257 16 c 0
 257 -10 236 -30 210 -30 c 0
 184 -30 163 -10 163 16 c 0
365 -100 m 0
 365 -74 385 -53 411 -53 c 0
 437 -53 458 -74 458 -100 c 0
 458 -126 437 -147 411 -147 c 0
 385 -147 365 -126 365 -100 c 0
264 -42 m 0
 264 -16 285 5 311 5 c 0
 337 5 357 -16 357 -42 c 0
 357 -68 337 -88 311 -88 c 0
 285 -88 264 -68 264 -42 c 0
767 16 m 0
 767 42 788 63 814 63 c 0
 840 63 861 42 861 16 c 0
 861 -10 840 -30 814 -30 c 0
 788 -30 767 -10 767 16 c 0
566 -100 m 0
 566 -74 587 -53 613 -53 c 0
 639 -53 659 -74 659 -100 c 0
 659 -126 639 -147 613 -147 c 0
 587 -147 566 -126 566 -100 c 0
667 -42 m 0
 667 -16 687 5 713 5 c 0
 739 5 760 -16 760 -42 c 0
 760 -68 739 -88 713 -88 c 0
 687 -88 667 -68 667 -42 c 0
62 423 m 0
 62 449 83 470 109 470 c 0
 135 470 156 449 156 423 c 0
 156 397 135 377 109 377 c 0
 83 377 62 397 62 423 c 0
62 191 m 0
 62 217 83 238 109 238 c 0
 135 238 156 217 156 191 c 0
 156 165 135 144 109 144 c 0
 83 144 62 165 62 191 c 0
62 307 m 0
 62 333 83 354 109 354 c 0
 135 354 156 333 156 307 c 0
 156 281 135 260 109 260 c 0
 83 260 62 281 62 307 c 0
868 423 m 0
 868 449 889 470 915 470 c 0
 941 470 962 449 962 423 c 0
 962 397 941 377 915 377 c 0
 889 377 868 397 868 423 c 0
868 191 m 0
 868 217 889 238 915 238 c 0
 941 238 962 217 962 191 c 0
 962 165 941 144 915 144 c 0
 889 144 868 165 868 191 c 0
868 307 m 0
 868 333 889 354 915 354 c 0
 941 354 962 333 962 307 c 0
 962 281 941 260 915 260 c 0
 889 260 868 281 868 307 c 0
EndSplineSet
Validated: 1
EndChar

StartChar: w
Encoding: 119 119 48
Width: 1024
Flags: HW
LayerCount: 2
Fore
SplineSet
465 307 m 0
 465 333 486 354 512 354 c 0
 538 354 559 333 559 307 c 0
 559 281 538 260 512 260 c 0
 486 260 465 281 465 307 c 0
868 540 m 0
 868 566 889 586 915 586 c 0
 941 586 962 566 962 540 c 0
 962 514 941 493 915 493 c 0
 889 493 868 514 868 540 c 0
365 249 m 0
 365 275 385 296 411 296 c 0
 437 296 458 275 458 249 c 0
 458 223 437 202 411 202 c 0
 385 202 365 223 365 249 c 0
163 133 m 0
 163 159 184 179 210 179 c 0
 236 179 257 159 257 133 c 0
 257 107 236 86 210 86 c 0
 184 86 163 107 163 133 c 0
264 191 m 0
 264 217 285 238 311 238 c 0
 337 238 357 217 357 191 c 0
 357 165 337 144 311 144 c 0
 285 144 264 165 264 191 c 0
62 75 m 0
 62 101 83 121 109 121 c 0
 135 121 156 101 156 75 c 0
 156 49 135 28 109 28 c 0
 83 28 62 49 62 75 c 0
62 540 m 0
 62 566 83 586 109 586 c 0
 135 586 156 566 156 540 c 0
 156 514 135 493 109 493 c 0
 83 493 62 514 62 540 c 0
566 249 m 0
 566 275 587 296 613 296 c 0
 639 296 659 275 659 249 c 0
 659 223 639 202 613 202 c 0
 587 202 566 223 566 249 c 0
767 133 m 0
 767 159 788 179 814 179 c 0
 840 179 861 159 861 133 c 0
 861 107 840 86 814 86 c 0
 788 86 767 107 767 133 c 0
667 191 m 0
 667 217 687 238 713 238 c 0
 739 238 760 217 760 191 c 0
 760 165 739 144 713 144 c 0
 687 144 667 165 667 191 c 0
868 75 m 0
 868 101 889 121 915 121 c 0
 941 121 962 101 962 75 c 0
 962 49 941 28 915 28 c 0
 889 28 868 49 868 75 c 0
62 423 m 0
 62 449 83 470 109 470 c 0
 135 470 156 449 156 423 c 0
 156 397 135 377 109 377 c 0
 83 377 62 397 62 423 c 0
62 191 m 0
 62 217 83 238 109 238 c 0
 135 238 156 217 156 191 c 0
 156 165 135 144 109 144 c 0
 83 144 62 165 62 191 c 0
62 307 m 0
 62 333 83 354 109 354 c 0
 135 354 156 333 156 307 c 0
 156 281 135 260 109 260 c 0
 83 260 62 281 62 307 c 0
868 423 m 0
 868 449 889 470 915 470 c 0
 941 470 962 449 962 423 c 0
 962 397 941 377 915 377 c 0
 889 377 868 397 868 423 c 0
868 191 m 0
 868 217 889 238 915 238 c 0
 941 238 962 217 962 191 c 0
 962 165 941 144 915 144 c 0
 889 144 868 165 868 191 c 0
868 307 m 0
 868 333 889 354 915 354 c 0
 941 354 962 333 962 307 c 0
 962 281 941 260 915 260 c 0
 889 260 868 281 868 307 c 0
EndSplineSet
Validated: 1
EndChar

StartChar: x
Encoding: 120 120 49
Width: 1024
Flags: HW
LayerCount: 2
Fore
SplineSet
465 772 m 0
 465 798 486 819 512 819 c 0
 538 819 559 798 559 772 c 0
 559 746 538 726 512 726 c 0
 486 726 465 746 465 772 c 0
465 656 m 0
 465 682 486 703 512 703 c 0
 538 703 559 682 559 656 c 0
 559 630 538 610 512 610 c 0
 486 610 465 630 465 656 c 0
465 423 m 0
 465 449 486 470 512 470 c 0
 538 470 559 449 559 423 c 0
 559 397 538 377 512 377 c 0
 486 377 465 397 465 423 c 0
465 540 m 0
 465 566 486 586 512 586 c 0
 538 586 559 566 559 540 c 0
 559 514 538 493 512 493 c 0
 486 493 465 514 465 540 c 0
465 307 m 0
 465 333 486 354 512 354 c 0
 538 354 559 333 559 307 c 0
 559 281 538 260 512 260 c 0
 486 260 465 281 465 307 c 0
465 191 m 0
 465 217 486 238 512 238 c 0
 538 238 559 217 559 191 c 0
 559 165 538 144 512 144 c 0
 486 144 465 165 465 191 c 0
465 -42 m 0
 465 -16 486 5 512 5 c 0
 538 5 559 -16 559 -42 c 0
 559 -68 538 -88 512 -88 c 0
 486 -88 465 -68 465 -42 c 0
465 75 m 0
 465 101 486 121 512 121 c 0
 538 121 559 101 559 75 c 0
 559 49 538 28 512 28 c 0
 486 28 465 49 465 75 c 0
465 -158 m 0
 465 -132 486 -111 512 -111 c 0
 538 -111 559 -132 559 -158 c 0
 559 -184 538 -205 512 -205 c 0
 486 -205 465 -184 465 -158 c 0
868 540 m 0
 868 566 889 586 915 586 c 0
 941 586 962 566 962 540 c 0
 962 514 941 493 915 493 c 0
 889 493 868 514 868 540 c 0
767 482 m 0
 767 508 788 528 814 528 c 0
 840 528 861 508 861 482 c 0
 861 456 840 435 814 435 c 0
 788 435 767 456 767 482 c 0
566 365 m 0
 566 391 587 412 613 412 c 0
 639 412 659 391 659 365 c 0
 659 339 639 319 613 319 c 0
 587 319 566 339 566 365 c 0
667 423 m 0
 667 449 687 470 713 470 c 0
 739 470 760 449 760 423 c 0
 760 397 739 377 713 377 c 0
 687 377 667 397 667 423 c 0
365 249 m 0
 365 275 385 296 411 296 c 0
 437 296 458 275 458 249 c 0
 458 223 437 202 411 202 c 0
 385 202 365 223 365 249 c 0
163 133 m 0
 163 159 184 179 210 179 c 0
 236 179 257 159 257 133 c 0
 257 107 236 86 210 86 c 0
 184 86 163 107 163 133 c 0
264 191 m 0
 264 217 285 238 311 238 c 0
 337 238 357 217 357 191 c 0
 357 165 337 144 311 144 c 0
 285 144 264 165 264 191 c 0
62 75 m 0
 62 101 83 121 109 121 c 0
 135 121 156 101 156 75 c 0
 156 49 135 28 109 28 c 0
 83 28 62 49 62 75 c 0
EndSplineSet
Validated: 1
EndChar

StartChar: y
Encoding: 121 121 50
Width: 1024
Flags: HW
LayerCount: 2
Fore
SplineSet
465 307 m 0
 465 333 486 354 512 354 c 0
 538 354 559 333 559 307 c 0
 559 281 538 260 512 260 c 0
 486 260 465 281 465 307 c 0
465 191 m 0
 465 217 486 238 512 238 c 0
 538 238 559 217 559 191 c 0
 559 165 538 144 512 144 c 0
 486 144 465 165 465 191 c 0
465 -42 m 0
 465 -16 486 5 512 5 c 0
 538 5 559 -16 559 -42 c 0
 559 -68 538 -88 512 -88 c 0
 486 -88 465 -68 465 -42 c 0
465 75 m 0
 465 101 486 121 512 121 c 0
 538 121 559 101 559 75 c 0
 559 49 538 28 512 28 c 0
 486 28 465 49 465 75 c 0
465 -158 m 0
 465 -132 486 -111 512 -111 c 0
 538 -111 559 -132 559 -158 c 0
 559 -184 538 -205 512 -205 c 0
 486 -205 465 -184 465 -158 c 0
868 540 m 0
 868 566 889 586 915 586 c 0
 941 586 962 566 962 540 c 0
 962 514 941 493 915 493 c 0
 889 493 868 514 868 540 c 0
767 482 m 0
 767 508 788 528 814 528 c 0
 840 528 861 508 861 482 c 0
 861 456 840 435 814 435 c 0
 788 435 767 456 767 482 c 0
566 365 m 0
 566 391 587 412 613 412 c 0
 639 412 659 391 659 365 c 0
 659 339 639 319 613 319 c 0
 587 319 566 339 566 365 c 0
667 423 m 0
 667 449 687 470 713 470 c 0
 739 470 760 449 760 423 c 0
 760 397 739 377 713 377 c 0
 687 377 667 397 667 423 c 0
62 540 m 0
 62 566 83 586 109 586 c 0
 135 586 156 566 156 540 c 0
 156 514 135 493 109 493 c 0
 83 493 62 514 62 540 c 0
163 482 m 0
 163 508 184 528 210 528 c 0
 236 528 257 508 257 482 c 0
 257 456 236 435 210 435 c 0
 184 435 163 456 163 482 c 0
365 365 m 0
 365 391 385 412 411 412 c 0
 437 412 458 391 458 365 c 0
 458 339 437 319 411 319 c 0
 385 319 365 339 365 365 c 0
264 423 m 0
 264 449 285 470 311 470 c 0
 337 470 357 449 357 423 c 0
 357 397 337 377 311 377 c 0
 285 377 264 397 264 423 c 0
EndSplineSet
Validated: 1
EndChar

StartChar: z
Encoding: 122 122 51
Width: 1024
Flags: HW
LayerCount: 2
Fore
SplineSet
465 772 m 0
 465 798 486 819 512 819 c 0
 538 819 559 798 559 772 c 0
 559 746 538 726 512 726 c 0
 486 726 465 746 465 772 c 0
465 307 m 0
 465 333 486 354 512 354 c 0
 538 354 559 333 559 307 c 0
 559 281 538 260 512 260 c 0
 486 260 465 281 465 307 c 0
465 -158 m 0
 465 -132 486 -111 512 -111 c 0
 538 -111 559 -132 559 -158 c 0
 559 -184 538 -205 512 -205 c 0
 486 -205 465 -184 465 -158 c 0
868 540 m 0
 868 566 889 586 915 586 c 0
 941 586 962 566 962 540 c 0
 962 514 941 493 915 493 c 0
 889 493 868 514 868 540 c 0
767 482 m 0
 767 508 788 528 814 528 c 0
 840 528 861 508 861 482 c 0
 861 456 840 435 814 435 c 0
 788 435 767 456 767 482 c 0
566 365 m 0
 566 391 587 412 613 412 c 0
 639 412 659 391 659 365 c 0
 659 339 639 319 613 319 c 0
 587 319 566 339 566 365 c 0
667 423 m 0
 667 449 687 470 713 470 c 0
 739 470 760 449 760 423 c 0
 760 397 739 377 713 377 c 0
 687 377 667 397 667 423 c 0
365 249 m 0
 365 275 385 296 411 296 c 0
 437 296 458 275 458 249 c 0
 458 223 437 202 411 202 c 0
 385 202 365 223 365 249 c 0
163 133 m 0
 163 159 184 179 210 179 c 0
 236 179 257 159 257 133 c 0
 257 107 236 86 210 86 c 0
 184 86 163 107 163 133 c 0
264 191 m 0
 264 217 285 238 311 238 c 0
 337 238 357 217 357 191 c 0
 357 165 337 144 311 144 c 0
 285 144 264 165 264 191 c 0
62 75 m 0
 62 101 83 121 109 121 c 0
 135 121 156 101 156 75 c 0
 156 49 135 28 109 28 c 0
 83 28 62 49 62 75 c 0
566 714 m 0
 566 740 587 761 613 761 c 0
 639 761 659 740 659 714 c 0
 659 688 639 668 613 668 c 0
 587 668 566 688 566 714 c 0
767 598 m 0
 767 624 788 645 814 645 c 0
 840 645 861 624 861 598 c 0
 861 572 840 551 814 551 c 0
 788 551 767 572 767 598 c 0
667 656 m 0
 667 682 687 703 713 703 c 0
 739 703 760 682 760 656 c 0
 760 630 739 610 713 610 c 0
 687 610 667 630 667 656 c 0
163 16 m 0
 163 42 184 63 210 63 c 0
 236 63 257 42 257 16 c 0
 257 -10 236 -30 210 -30 c 0
 184 -30 163 -10 163 16 c 0
365 -100 m 0
 365 -74 385 -53 411 -53 c 0
 437 -53 458 -74 458 -100 c 0
 458 -126 437 -147 411 -147 c 0
 385 -147 365 -126 365 -100 c 0
264 -42 m 0
 264 -16 285 5 311 5 c 0
 337 5 357 -16 357 -42 c 0
 357 -68 337 -88 311 -88 c 0
 285 -88 264 -68 264 -42 c 0
EndSplineSet
Validated: 1
EndChar

StartChar: zero
Encoding: 48 48 52
Width: 1024
Flags: HW
LayerCount: 2
Fore
SplineSet
465 772 m 0
 465 798 486 819 512 819 c 0
 538 819 559 798 559 772 c 0
 559 746 538 726 512 726 c 0
 486 726 465 746 465 772 c 0
465 307 m 0
 465 333 486 354 512 354 c 0
 538 354 559 333 559 307 c 0
 559 281 538 260 512 260 c 0
 486 260 465 281 465 307 c 0
465 -158 m 0
 465 -132 486 -111 512 -111 c 0
 538 -111 559 -132 559 -158 c 0
 559 -184 538 -205 512 -205 c 0
 486 -205 465 -184 465 -158 c 0
868 540 m 0
 868 566 889 586 915 586 c 0
 941 586 962 566 962 540 c 0
 962 514 941 493 915 493 c 0
 889 493 868 514 868 540 c 0
767 482 m 0
 767 508 788 528 814 528 c 0
 840 528 861 508 861 482 c 0
 861 456 840 435 814 435 c 0
 788 435 767 456 767 482 c 0
566 365 m 0
 566 391 587 412 613 412 c 0
 639 412 659 391 659 365 c 0
 659 339 639 319 613 319 c 0
 587 319 566 339 566 365 c 0
667 423 m 0
 667 449 687 470 713 470 c 0
 739 470 760 449 760 423 c 0
 760 397 739 377 713 377 c 0
 687 377 667 397 667 423 c 0
365 249 m 0
 365 275 385 296 411 296 c 0
 437 296 458 275 458 249 c 0
 458 223 437 202 411 202 c 0
 385 202 365 223 365 249 c 0
163 133 m 0
 163 159 184 179 210 179 c 0
 236 179 257 159 257 133 c 0
 257 107 236 86 210 86 c 0
 184 86 163 107 163 133 c 0
264 191 m 0
 264 217 285 238 311 238 c 0
 337 238 357 217 357 191 c 0
 357 165 337 144 311 144 c 0
 285 144 264 165 264 191 c 0
62 75 m 0
 62 101 83 121 109 121 c 0
 135 121 156 101 156 75 c 0
 156 49 135 28 109 28 c 0
 83 28 62 49 62 75 c 0
62 540 m 0
 62 566 83 586 109 586 c 0
 135 586 156 566 156 540 c 0
 156 514 135 493 109 493 c 0
 83 493 62 514 62 540 c 0
868 75 m 0
 868 101 889 121 915 121 c 0
 941 121 962 101 962 75 c 0
 962 49 941 28 915 28 c 0
 889 28 868 49 868 75 c 0
566 714 m 0
 566 740 587 761 613 761 c 0
 639 761 659 740 659 714 c 0
 659 688 639 668 613 668 c 0
 587 668 566 688 566 714 c 0
767 598 m 0
 767 624 788 645 814 645 c 0
 840 645 861 624 861 598 c 0
 861 572 840 551 814 551 c 0
 788 551 767 572 767 598 c 0
667 656 m 0
 667 682 687 703 713 703 c 0
 739 703 760 682 760 656 c 0
 760 630 739 610 713 610 c 0
 687 610 667 630 667 656 c 0
163 16 m 0
 163 42 184 63 210 63 c 0
 236 63 257 42 257 16 c 0
 257 -10 236 -30 210 -30 c 0
 184 -30 163 -10 163 16 c 0
365 -100 m 0
 365 -74 385 -53 411 -53 c 0
 437 -53 458 -74 458 -100 c 0
 458 -126 437 -147 411 -147 c 0
 385 -147 365 -126 365 -100 c 0
264 -42 m 0
 264 -16 285 5 311 5 c 0
 337 5 357 -16 357 -42 c 0
 357 -68 337 -88 311 -88 c 0
 285 -88 264 -68 264 -42 c 0
364 714 m 0
 364 740 385 761 411 761 c 0
 437 761 458 740 458 714 c 0
 458 688 437 668 411 668 c 0
 385 668 364 688 364 714 c 0
163 598 m 0
 163 624 183 645 209 645 c 0
 235 645 256 624 256 598 c 0
 256 572 235 551 209 551 c 0
 183 551 163 572 163 598 c 0
264 656 m 0
 264 682 284 703 310 703 c 0
 336 703 357 682 357 656 c 0
 357 630 336 610 310 610 c 0
 284 610 264 630 264 656 c 0
767 16 m 0
 767 42 788 63 814 63 c 0
 840 63 861 42 861 16 c 0
 861 -10 840 -30 814 -30 c 0
 788 -30 767 -10 767 16 c 0
566 -100 m 0
 566 -74 587 -53 613 -53 c 0
 639 -53 659 -74 659 -100 c 0
 659 -126 639 -147 613 -147 c 0
 587 -147 566 -126 566 -100 c 0
667 -42 m 0
 667 -16 687 5 713 5 c 0
 739 5 760 -16 760 -42 c 0
 760 -68 739 -88 713 -88 c 0
 687 -88 667 -68 667 -42 c 0
62 423 m 0
 62 449 83 470 109 470 c 0
 135 470 156 449 156 423 c 0
 156 397 135 377 109 377 c 0
 83 377 62 397 62 423 c 0
62 191 m 0
 62 217 83 238 109 238 c 0
 135 238 156 217 156 191 c 0
 156 165 135 144 109 144 c 0
 83 144 62 165 62 191 c 0
62 307 m 0
 62 333 83 354 109 354 c 0
 135 354 156 333 156 307 c 0
 156 281 135 260 109 260 c 0
 83 260 62 281 62 307 c 0
868 423 m 0
 868 449 889 470 915 470 c 0
 941 470 962 449 962 423 c 0
 962 397 941 377 915 377 c 0
 889 377 868 397 868 423 c 0
868 191 m 0
 868 217 889 238 915 238 c 0
 941 238 962 217 962 191 c 0
 962 165 941 144 915 144 c 0
 889 144 868 165 868 191 c 0
868 307 m 0
 868 333 889 354 915 354 c 0
 941 354 962 333 962 307 c 0
 962 281 941 260 915 260 c 0
 889 260 868 281 868 307 c 0
EndSplineSet
Validated: 1
EndChar

StartChar: one
Encoding: 49 49 53
Width: 1024
Flags: HW
LayerCount: 2
Fore
SplineSet
465 772 m 0
 465 798 486 819 512 819 c 0
 538 819 559 798 559 772 c 0
 559 746 538 726 512 726 c 0
 486 726 465 746 465 772 c 0
465 656 m 0
 465 682 486 703 512 703 c 0
 538 703 559 682 559 656 c 0
 559 630 538 610 512 610 c 0
 486 610 465 630 465 656 c 0
465 423 m 0
 465 449 486 470 512 470 c 0
 538 470 559 449 559 423 c 0
 559 397 538 377 512 377 c 0
 486 377 465 397 465 423 c 0
465 540 m 0
 465 566 486 586 512 586 c 0
 538 586 559 566 559 540 c 0
 559 514 538 493 512 493 c 0
 486 493 465 514 465 540 c 0
465 307 m 0
 465 333 486 354 512 354 c 0
 538 354 559 333 559 307 c 0
 559 281 538 260 512 260 c 0
 486 260 465 281 465 307 c 0
465 191 m 0
 465 217 486 238 512 238 c 0
 538 238 559 217 559 191 c 0
 559 165 538 144 512 144 c 0
 486 144 465 165 465 191 c 0
465 -42 m 0
 465 -16 486 5 512 5 c 0
 538 5 559 -16 559 -42 c 0
 559 -68 538 -88 512 -88 c 0
 486 -88 465 -68 465 -42 c 0
465 75 m 0
 465 101 486 121 512 121 c 0
 538 121 559 101 559 75 c 0
 559 49 538 28 512 28 c 0
 486 28 465 49 465 75 c 0
465 -158 m 0
 465 -132 486 -111 512 -111 c 0
 538 -111 559 -132 559 -158 c 0
 559 -184 538 -205 512 -205 c 0
 486 -205 465 -184 465 -158 c 0
62 540 m 0
 62 566 83 586 109 586 c 0
 135 586 156 566 156 540 c 0
 156 514 135 493 109 493 c 0
 83 493 62 514 62 540 c 0
364 714 m 0
 364 740 385 761 411 761 c 0
 437 761 458 740 458 714 c 0
 458 688 437 668 411 668 c 0
 385 668 364 688 364 714 c 0
163 598 m 0
 163 624 183 645 209 645 c 0
 235 645 256 624 256 598 c 0
 256 572 235 551 209 551 c 0
 183 551 163 572 163 598 c 0
264 656 m 0
 264 682 284 703 310 703 c 0
 336 703 357 682 357 656 c 0
 357 630 336 610 310 610 c 0
 284 610 264 630 264 656 c 0
EndSplineSet
Validated: 1
EndChar

StartChar: two
Encoding: 50 50 54
Width: 1024
Flags: HW
LayerCount: 2
Fore
SplineSet
465 772 m 0
 465 798 486 819 512 819 c 0
 538 819 559 798 559 772 c 0
 559 746 538 726 512 726 c 0
 486 726 465 746 465 772 c 0
465 307 m 0
 465 333 486 354 512 354 c 0
 538 354 559 333 559 307 c 0
 559 281 538 260 512 260 c 0
 486 260 465 281 465 307 c 0
465 -158 m 0
 465 -132 486 -111 512 -111 c 0
 538 -111 559 -132 559 -158 c 0
 559 -184 538 -205 512 -205 c 0
 486 -205 465 -184 465 -158 c 0
868 540 m 0
 868 566 889 586 915 586 c 0
 941 586 962 566 962 540 c 0
 962 514 941 493 915 493 c 0
 889 493 868 514 868 540 c 0
767 482 m 0
 767 508 788 528 814 528 c 0
 840 528 861 508 861 482 c 0
 861 456 840 435 814 435 c 0
 788 435 767 456 767 482 c 0
566 365 m 0
 566 391 587 412 613 412 c 0
 639 412 659 391 659 365 c 0
 659 339 639 319 613 319 c 0
 587 319 566 339 566 365 c 0
667 423 m 0
 667 449 687 470 713 470 c 0
 739 470 760 449 760 423 c 0
 760 397 739 377 713 377 c 0
 687 377 667 397 667 423 c 0
365 249 m 0
 365 275 385 296 411 296 c 0
 437 296 458 275 458 249 c 0
 458 223 437 202 411 202 c 0
 385 202 365 223 365 249 c 0
163 133 m 0
 163 159 184 179 210 179 c 0
 236 179 257 159 257 133 c 0
 257 107 236 86 210 86 c 0
 184 86 163 107 163 133 c 0
264 191 m 0
 264 217 285 238 311 238 c 0
 337 238 357 217 357 191 c 0
 357 165 337 144 311 144 c 0
 285 144 264 165 264 191 c 0
62 75 m 0
 62 101 83 121 109 121 c 0
 135 121 156 101 156 75 c 0
 156 49 135 28 109 28 c 0
 83 28 62 49 62 75 c 0
62 540 m 0
 62 566 83 586 109 586 c 0
 135 586 156 566 156 540 c 0
 156 514 135 493 109 493 c 0
 83 493 62 514 62 540 c 0
868 75 m 0
 868 101 889 121 915 121 c 0
 941 121 962 101 962 75 c 0
 962 49 941 28 915 28 c 0
 889 28 868 49 868 75 c 0
566 714 m 0
 566 740 587 761 613 761 c 0
 639 761 659 740 659 714 c 0
 659 688 639 668 613 668 c 0
 587 668 566 688 566 714 c 0
767 598 m 0
 767 624 788 645 814 645 c 0
 840 645 861 624 861 598 c 0
 861 572 840 551 814 551 c 0
 788 551 767 572 767 598 c 0
667 656 m 0
 667 682 687 703 713 703 c 0
 739 703 760 682 760 656 c 0
 760 630 739 610 713 610 c 0
 687 610 667 630 667 656 c 0
163 16 m 0
 163 42 184 63 210 63 c 0
 236 63 257 42 257 16 c 0
 257 -10 236 -30 210 -30 c 0
 184 -30 163 -10 163 16 c 0
365 -100 m 0
 365 -74 385 -53 411 -53 c 0
 437 -53 458 -74 458 -100 c 0
 458 -126 437 -147 411 -147 c 0
 385 -147 365 -126 365 -100 c 0
264 -42 m 0
 264 -16 285 5 311 5 c 0
 337 5 357 -16 357 -42 c 0
 357 -68 337 -88 311 -88 c 0
 285 -88 264 -68 264 -42 c 0
364 714 m 0
 364 740 385 761 411 761 c 0
 437 761 458 740 458 714 c 0
 458 688 437 668 411 668 c 0
 385 668 364 688 364 714 c 0
163 598 m 0
 163 624 183 645 209 645 c 0
 235 645 256 624 256 598 c 0
 256 572 235 551 209 551 c 0
 183 551 163 572 163 598 c 0
264 656 m 0
 264 682 284 703 310 703 c 0
 336 703 357 682 357 656 c 0
 357 630 336 610 310 610 c 0
 284 610 264 630 264 656 c 0
767 16 m 0
 767 42 788 63 814 63 c 0
 840 63 861 42 861 16 c 0
 861 -10 840 -30 814 -30 c 0
 788 -30 767 -10 767 16 c 0
566 -100 m 0
 566 -74 587 -53 613 -53 c 0
 639 -53 659 -74 659 -100 c 0
 659 -126 639 -147 613 -147 c 0
 587 -147 566 -126 566 -100 c 0
667 -42 m 0
 667 -16 687 5 713 5 c 0
 739 5 760 -16 760 -42 c 0
 760 -68 739 -88 713 -88 c 0
 687 -88 667 -68 667 -42 c 0
EndSplineSet
Validated: 1
EndChar

StartChar: three
Encoding: 51 51 55
Width: 1024
Flags: HW
LayerCount: 2
Fore
SplineSet
465 772 m 0
 465 798 486 819 512 819 c 0
 538 819 559 798 559 772 c 0
 559 746 538 726 512 726 c 0
 486 726 465 746 465 772 c 0
465 307 m 0
 465 333 486 354 512 354 c 0
 538 354 559 333 559 307 c 0
 559 281 538 260 512 260 c 0
 486 260 465 281 465 307 c 0
465 -158 m 0
 465 -132 486 -111 512 -111 c 0
 538 -111 559 -132 559 -158 c 0
 559 -184 538 -205 512 -205 c 0
 486 -205 465 -184 465 -158 c 0
868 540 m 0
 868 566 889 586 915 586 c 0
 941 586 962 566 962 540 c 0
 962 514 941 493 915 493 c 0
 889 493 868 514 868 540 c 0
767 482 m 0
 767 508 788 528 814 528 c 0
 840 528 861 508 861 482 c 0
 861 456 840 435 814 435 c 0
 788 435 767 456 767 482 c 0
566 365 m 0
 566 391 587 412 613 412 c 0
 639 412 659 391 659 365 c 0
 659 339 639 319 613 319 c 0
 587 319 566 339 566 365 c 0
667 423 m 0
 667 449 687 470 713 470 c 0
 739 470 760 449 760 423 c 0
 760 397 739 377 713 377 c 0
 687 377 667 397 667 423 c 0
566 249 m 0
 566 275 587 296 613 296 c 0
 639 296 659 275 659 249 c 0
 659 223 639 202 613 202 c 0
 587 202 566 223 566 249 c 0
767 133 m 0
 767 159 788 179 814 179 c 0
 840 179 861 159 861 133 c 0
 861 107 840 86 814 86 c 0
 788 86 767 107 767 133 c 0
667 191 m 0
 667 217 687 238 713 238 c 0
 739 238 760 217 760 191 c 0
 760 165 739 144 713 144 c 0
 687 144 667 165 667 191 c 0
868 75 m 0
 868 101 889 121 915 121 c 0
 941 121 962 101 962 75 c 0
 962 49 941 28 915 28 c 0
 889 28 868 49 868 75 c 0
566 714 m 0
 566 740 587 761 613 761 c 0
 639 761 659 740 659 714 c 0
 659 688 639 668 613 668 c 0
 587 668 566 688 566 714 c 0
767 598 m 0
 767 624 788 645 814 645 c 0
 840 645 861 624 861 598 c 0
 861 572 840 551 814 551 c 0
 788 551 767 572 767 598 c 0
667 656 m 0
 667 682 687 703 713 703 c 0
 739 703 760 682 760 656 c 0
 760 630 739 610 713 610 c 0
 687 610 667 630 667 656 c 0
163 16 m 0
 163 42 184 63 210 63 c 0
 236 63 257 42 257 16 c 0
 257 -10 236 -30 210 -30 c 0
 184 -30 163 -10 163 16 c 0
365 -100 m 0
 365 -74 385 -53 411 -53 c 0
 437 -53 458 -74 458 -100 c 0
 458 -126 437 -147 411 -147 c 0
 385 -147 365 -126 365 -100 c 0
264 -42 m 0
 264 -16 285 5 311 5 c 0
 337 5 357 -16 357 -42 c 0
 357 -68 337 -88 311 -88 c 0
 285 -88 264 -68 264 -42 c 0
364 714 m 0
 364 740 385 761 411 761 c 0
 437 761 458 740 458 714 c 0
 458 688 437 668 411 668 c 0
 385 668 364 688 364 714 c 0
163 598 m 0
 163 624 183 645 209 645 c 0
 235 645 256 624 256 598 c 0
 256 572 235 551 209 551 c 0
 183 551 163 572 163 598 c 0
264 656 m 0
 264 682 284 703 310 703 c 0
 336 703 357 682 357 656 c 0
 357 630 336 610 310 610 c 0
 284 610 264 630 264 656 c 0
767 16 m 0
 767 42 788 63 814 63 c 0
 840 63 861 42 861 16 c 0
 861 -10 840 -30 814 -30 c 0
 788 -30 767 -10 767 16 c 0
566 -100 m 0
 566 -74 587 -53 613 -53 c 0
 639 -53 659 -74 659 -100 c 0
 659 -126 639 -147 613 -147 c 0
 587 -147 566 -126 566 -100 c 0
667 -42 m 0
 667 -16 687 5 713 5 c 0
 739 5 760 -16 760 -42 c 0
 760 -68 739 -88 713 -88 c 0
 687 -88 667 -68 667 -42 c 0
EndSplineSet
Validated: 1
EndChar

StartChar: four
Encoding: 52 52 56
Width: 1024
Flags: HW
LayerCount: 2
Fore
SplineSet
465 772 m 0
 465 798 486 819 512 819 c 0
 538 819 559 798 559 772 c 0
 559 746 538 726 512 726 c 0
 486 726 465 746 465 772 c 0
465 656 m 0
 465 682 486 703 512 703 c 0
 538 703 559 682 559 656 c 0
 559 630 538 610 512 610 c 0
 486 610 465 630 465 656 c 0
465 423 m 0
 465 449 486 470 512 470 c 0
 538 470 559 449 559 423 c 0
 559 397 538 377 512 377 c 0
 486 377 465 397 465 423 c 0
465 540 m 0
 465 566 486 586 512 586 c 0
 538 586 559 566 559 540 c 0
 559 514 538 493 512 493 c 0
 486 493 465 514 465 540 c 0
465 307 m 0
 465 333 486 354 512 354 c 0
 538 354 559 333 559 307 c 0
 559 281 538 260 512 260 c 0
 486 260 465 281 465 307 c 0
465 191 m 0
 465 217 486 238 512 238 c 0
 538 238 559 217 559 191 c 0
 559 165 538 144 512 144 c 0
 486 144 465 165 465 191 c 0
465 -42 m 0
 465 -16 486 5 512 5 c 0
 538 5 559 -16 559 -42 c 0
 559 -68 538 -88 512 -88 c 0
 486 -88 465 -68 465 -42 c 0
465 75 m 0
 465 101 486 121 512 121 c 0
 538 121 559 101 559 75 c 0
 559 49 538 28 512 28 c 0
 486 28 465 49 465 75 c 0
465 -158 m 0
 465 -132 486 -111 512 -111 c 0
 538 -111 559 -132 559 -158 c 0
 559 -184 538 -205 512 -205 c 0
 486 -205 465 -184 465 -158 c 0
365 249 m 0
 365 275 385 296 411 296 c 0
 437 296 458 275 458 249 c 0
 458 223 437 202 411 202 c 0
 385 202 365 223 365 249 c 0
163 133 m 0
 163 159 184 179 210 179 c 0
 236 179 257 159 257 133 c 0
 257 107 236 86 210 86 c 0
 184 86 163 107 163 133 c 0
264 191 m 0
 264 217 285 238 311 238 c 0
 337 238 357 217 357 191 c 0
 357 165 337 144 311 144 c 0
 285 144 264 165 264 191 c 0
62 75 m 0
 62 101 83 121 109 121 c 0
 135 121 156 101 156 75 c 0
 156 49 135 28 109 28 c 0
 83 28 62 49 62 75 c 0
62 540 m 0
 62 566 83 586 109 586 c 0
 135 586 156 566 156 540 c 0
 156 514 135 493 109 493 c 0
 83 493 62 514 62 540 c 0
62 423 m 0
 62 449 83 470 109 470 c 0
 135 470 156 449 156 423 c 0
 156 397 135 377 109 377 c 0
 83 377 62 397 62 423 c 0
62 191 m 0
 62 217 83 238 109 238 c 0
 135 238 156 217 156 191 c 0
 156 165 135 144 109 144 c 0
 83 144 62 165 62 191 c 0
62 307 m 0
 62 333 83 354 109 354 c 0
 135 354 156 333 156 307 c 0
 156 281 135 260 109 260 c 0
 83 260 62 281 62 307 c 0
EndSplineSet
Validated: 1
EndChar

StartChar: five
Encoding: 53 53 57
Width: 1024
Flags: HW
LayerCount: 2
Fore
SplineSet
465 772 m 0
 465 798 486 819 512 819 c 0
 538 819 559 798 559 772 c 0
 559 746 538 726 512 726 c 0
 486 726 465 746 465 772 c 0
465 656 m 0
 465 682 486 703 512 703 c 0
 538 703 559 682 559 656 c 0
 559 630 538 610 512 610 c 0
 486 610 465 630 465 656 c 0
465 423 m 0
 465 449 486 470 512 470 c 0
 538 470 559 449 559 423 c 0
 559 397 538 377 512 377 c 0
 486 377 465 397 465 423 c 0
465 540 m 0
 465 566 486 586 512 586 c 0
 538 586 559 566 559 540 c 0
 559 514 538 493 512 493 c 0
 486 493 465 514 465 540 c 0
465 307 m 0
 465 333 486 354 512 354 c 0
 538 354 559 333 559 307 c 0
 559 281 538 260 512 260 c 0
 486 260 465 281 465 307 c 0
465 -158 m 0
 465 -132 486 -111 512 -111 c 0
 538 -111 559 -132 559 -158 c 0
 559 -184 538 -205 512 -205 c 0
 486 -205 465 -184 465 -158 c 0
868 540 m 0
 868 566 889 586 915 586 c 0
 941 586 962 566 962 540 c 0
 962 514 941 493 915 493 c 0
 889 493 868 514 868 540 c 0
62 75 m 0
 62 101 83 121 109 121 c 0
 135 121 156 101 156 75 c 0
 156 49 135 28 109 28 c 0
 83 28 62 49 62 75 c 0
566 249 m 0
 566 275 587 296 613 296 c 0
 639 296 659 275 659 249 c 0
 659 223 639 202 613 202 c 0
 587 202 566 223 566 249 c 0
767 133 m 0
 767 159 788 179 814 179 c 0
 840 179 861 159 861 133 c 0
 861 107 840 86 814 86 c 0
 788 86 767 107 767 133 c 0
667 191 m 0
 667 217 687 238 713 238 c 0
 739 238 760 217 760 191 c 0
 760 165 739 144 713 144 c 0
 687 144 667 165 667 191 c 0
868 75 m 0
 868 101 889 121 915 121 c 0
 941 121 962 101 962 75 c 0
 962 49 941 28 915 28 c 0
 889 28 868 49 868 75 c 0
566 714 m 0
 566 740 587 761 613 761 c 0
 639 761 659 740 659 714 c 0
 659 688 639 668 613 668 c 0
 587 668 566 688 566 714 c 0
767 598 m 0
 767 624 788 645 814 645 c 0
 840 645 861 624 861 598 c 0
 861 572 840 551 814 551 c 0
 788 551 767 572 767 598 c 0
667 656 m 0
 667 682 687 703 713 703 c 0
 739 703 760 682 760 656 c 0
 760 630 739 610 713 610 c 0
 687 610 667 630 667 656 c 0
163 16 m 0
 163 42 184 63 210 63 c 0
 236 63 257 42 257 16 c 0
 257 -10 236 -30 210 -30 c 0
 184 -30 163 -10 163 16 c 0
365 -100 m 0
 365 -74 385 -53 411 -53 c 0
 437 -53 458 -74 458 -100 c 0
 458 -126 437 -147 411 -147 c 0
 385 -147 365 -126 365 -100 c 0
264 -42 m 0
 264 -16 285 5 311 5 c 0
 337 5 357 -16 357 -42 c 0
 357 -68 337 -88 311 -88 c 0
 285 -88 264 -68 264 -42 c 0
767 16 m 0
 767 42 788 63 814 63 c 0
 840 63 861 42 861 16 c 0
 861 -10 840 -30 814 -30 c 0
 788 -30 767 -10 767 16 c 0
566 -100 m 0
 566 -74 587 -53 613 -53 c 0
 639 -53 659 -74 659 -100 c 0
 659 -126 639 -147 613 -147 c 0
 587 -147 566 -126 566 -100 c 0
667 -42 m 0
 667 -16 687 5 713 5 c 0
 739 5 760 -16 760 -42 c 0
 760 -68 739 -88 713 -88 c 0
 687 -88 667 -68 667 -42 c 0
EndSplineSet
Validated: 1
EndChar

StartChar: six
Encoding: 54 54 58
Width: 1024
Flags: HW
LayerCount: 2
Fore
SplineSet
465 772 m 0
 465 798 486 819 512 819 c 0
 538 819 559 798 559 772 c 0
 559 746 538 726 512 726 c 0
 486 726 465 746 465 772 c 0
465 307 m 0
 465 333 486 354 512 354 c 0
 538 354 559 333 559 307 c 0
 559 281 538 260 512 260 c 0
 486 260 465 281 465 307 c 0
465 -158 m 0
 465 -132 486 -111 512 -111 c 0
 538 -111 559 -132 559 -158 c 0
 559 -184 538 -205 512 -205 c 0
 486 -205 465 -184 465 -158 c 0
868 540 m 0
 868 566 889 586 915 586 c 0
 941 586 962 566 962 540 c 0
 962 514 941 493 915 493 c 0
 889 493 868 514 868 540 c 0
365 249 m 0
 365 275 385 296 411 296 c 0
 437 296 458 275 458 249 c 0
 458 223 437 202 411 202 c 0
 385 202 365 223 365 249 c 0
163 133 m 0
 163 159 184 179 210 179 c 0
 236 179 257 159 257 133 c 0
 257 107 236 86 210 86 c 0
 184 86 163 107 163 133 c 0
264 191 m 0
 264 217 285 238 311 238 c 0
 337 238 357 217 357 191 c 0
 357 165 337 144 311 144 c 0
 285 144 264 165 264 191 c 0
62 75 m 0
 62 101 83 121 109 121 c 0
 135 121 156 101 156 75 c 0
 156 49 135 28 109 28 c 0
 83 28 62 49 62 75 c 0
62 540 m 0
 62 566 83 586 109 586 c 0
 135 586 156 566 156 540 c 0
 156 514 135 493 109 493 c 0
 83 493 62 514 62 540 c 0
566 249 m 0
 566 275 587 296 613 296 c 0
 639 296 659 275 659 249 c 0
 659 223 639 202 613 202 c 0
 587 202 566 223 566 249 c 0
767 133 m 0
 767 159 788 179 814 179 c 0
 840 179 861 159 861 133 c 0
 861 107 840 86 814 86 c 0
 788 86 767 107 767 133 c 0
667 191 m 0
 667 217 687 238 713 238 c 0
 739 238 760 217 760 191 c 0
 760 165 739 144 713 144 c 0
 687 144 667 165 667 191 c 0
868 75 m 0
 868 101 889 121 915 121 c 0
 941 121 962 101 962 75 c 0
 962 49 941 28 915 28 c 0
 889 28 868 49 868 75 c 0
566 714 m 0
 566 740 587 761 613 761 c 0
 639 761 659 740 659 714 c 0
 659 688 639 668 613 668 c 0
 587 668 566 688 566 714 c 0
767 598 m 0
 767 624 788 645 814 645 c 0
 840 645 861 624 861 598 c 0
 861 572 840 551 814 551 c 0
 788 551 767 572 767 598 c 0
667 656 m 0
 667 682 687 703 713 703 c 0
 739 703 760 682 760 656 c 0
 760 630 739 610 713 610 c 0
 687 610 667 630 667 656 c 0
163 16 m 0
 163 42 184 63 210 63 c 0
 236 63 257 42 257 16 c 0
 257 -10 236 -30 210 -30 c 0
 184 -30 163 -10 163 16 c 0
365 -100 m 0
 365 -74 385 -53 411 -53 c 0
 437 -53 458 -74 458 -100 c 0
 458 -126 437 -147 411 -147 c 0
 385 -147 365 -126 365 -100 c 0
264 -42 m 0
 264 -16 285 5 311 5 c 0
 337 5 357 -16 357 -42 c 0
 357 -68 337 -88 311 -88 c 0
 285 -88 264 -68 264 -42 c 0
364 714 m 0
 364 740 385 761 411 761 c 0
 437 761 458 740 458 714 c 0
 458 688 437 668 411 668 c 0
 385 668 364 688 364 714 c 0
163 598 m 0
 163 624 183 645 209 645 c 0
 235 645 256 624 256 598 c 0
 256 572 235 551 209 551 c 0
 183 551 163 572 163 598 c 0
264 656 m 0
 264 682 284 703 310 703 c 0
 336 703 357 682 357 656 c 0
 357 630 336 610 310 610 c 0
 284 610 264 630 264 656 c 0
767 16 m 0
 767 42 788 63 814 63 c 0
 840 63 861 42 861 16 c 0
 861 -10 840 -30 814 -30 c 0
 788 -30 767 -10 767 16 c 0
566 -100 m 0
 566 -74 587 -53 613 -53 c 0
 639 -53 659 -74 659 -100 c 0
 659 -126 639 -147 613 -147 c 0
 587 -147 566 -126 566 -100 c 0
667 -42 m 0
 667 -16 687 5 713 5 c 0
 739 5 760 -16 760 -42 c 0
 760 -68 739 -88 713 -88 c 0
 687 -88 667 -68 667 -42 c 0
62 423 m 0
 62 449 83 470 109 470 c 0
 135 470 156 449 156 423 c 0
 156 397 135 377 109 377 c 0
 83 377 62 397 62 423 c 0
62 191 m 0
 62 217 83 238 109 238 c 0
 135 238 156 217 156 191 c 0
 156 165 135 144 109 144 c 0
 83 144 62 165 62 191 c 0
62 307 m 0
 62 333 83 354 109 354 c 0
 135 354 156 333 156 307 c 0
 156 281 135 260 109 260 c 0
 83 260 62 281 62 307 c 0
EndSplineSet
Validated: 1
EndChar

StartChar: seven
Encoding: 55 55 59
Width: 1024
Flags: HW
LayerCount: 2
Fore
SplineSet
465 772 m 0
 465 798 486 819 512 819 c 0
 538 819 559 798 559 772 c 0
 559 746 538 726 512 726 c 0
 486 726 465 746 465 772 c 0
465 307 m 0
 465 333 486 354 512 354 c 0
 538 354 559 333 559 307 c 0
 559 281 538 260 512 260 c 0
 486 260 465 281 465 307 c 0
868 540 m 0
 868 566 889 586 915 586 c 0
 941 586 962 566 962 540 c 0
 962 514 941 493 915 493 c 0
 889 493 868 514 868 540 c 0
767 482 m 0
 767 508 788 528 814 528 c 0
 840 528 861 508 861 482 c 0
 861 456 840 435 814 435 c 0
 788 435 767 456 767 482 c 0
566 365 m 0
 566 391 587 412 613 412 c 0
 639 412 659 391 659 365 c 0
 659 339 639 319 613 319 c 0
 587 319 566 339 566 365 c 0
667 423 m 0
 667 449 687 470 713 470 c 0
 739 470 760 449 760 423 c 0
 760 397 739 377 713 377 c 0
 687 377 667 397 667 423 c 0
365 249 m 0
 365 275 385 296 411 296 c 0
 437 296 458 275 458 249 c 0
 458 223 437 202 411 202 c 0
 385 202 365 223 365 249 c 0
163 133 m 0
 163 159 184 179 210 179 c 0
 236 179 257 159 257 133 c 0
 257 107 236 86 210 86 c 0
 184 86 163 107 163 133 c 0
264 191 m 0
 264 217 285 238 311 238 c 0
 337 238 357 217 357 191 c 0
 357 165 337 144 311 144 c 0
 285 144 264 165 264 191 c 0
62 75 m 0
 62 101 83 121 109 121 c 0
 135 121 156 101 156 75 c 0
 156 49 135 28 109 28 c 0
 83 28 62 49 62 75 c 0
566 714 m 0
 566 740 587 761 613 761 c 0
 639 761 659 740 659 714 c 0
 659 688 639 668 613 668 c 0
 587 668 566 688 566 714 c 0
767 598 m 0
 767 624 788 645 814 645 c 0
 840 645 861 624 861 598 c 0
 861 572 840 551 814 551 c 0
 788 551 767 572 767 598 c 0
667 656 m 0
 667 682 687 703 713 703 c 0
 739 703 760 682 760 656 c 0
 760 630 739 610 713 610 c 0
 687 610 667 630 667 656 c 0
EndSplineSet
Validated: 1
EndChar

StartChar: eight
Encoding: 56 56 60
Width: 1024
Flags: HW
LayerCount: 2
Fore
SplineSet
465 772 m 0
 465 798 486 819 512 819 c 0
 538 819 559 798 559 772 c 0
 559 746 538 726 512 726 c 0
 486 726 465 746 465 772 c 0
465 307 m 0
 465 333 486 354 512 354 c 0
 538 354 559 333 559 307 c 0
 559 281 538 260 512 260 c 0
 486 260 465 281 465 307 c 0
465 -158 m 0
 465 -132 486 -111 512 -111 c 0
 538 -111 559 -132 559 -158 c 0
 559 -184 538 -205 512 -205 c 0
 486 -205 465 -184 465 -158 c 0
868 540 m 0
 868 566 889 586 915 586 c 0
 941 586 962 566 962 540 c 0
 962 514 941 493 915 493 c 0
 889 493 868 514 868 540 c 0
767 482 m 0
 767 508 788 528 814 528 c 0
 840 528 861 508 861 482 c 0
 861 456 840 435 814 435 c 0
 788 435 767 456 767 482 c 0
566 365 m 0
 566 391 587 412 613 412 c 0
 639 412 659 391 659 365 c 0
 659 339 639 319 613 319 c 0
 587 319 566 339 566 365 c 0
667 423 m 0
 667 449 687 470 713 470 c 0
 739 470 760 449 760 423 c 0
 760 397 739 377 713 377 c 0
 687 377 667 397 667 423 c 0
365 249 m 0
 365 275 385 296 411 296 c 0
 437 296 458 275 458 249 c 0
 458 223 437 202 411 202 c 0
 385 202 365 223 365 249 c 0
163 133 m 0
 163 159 184 179 210 179 c 0
 236 179 257 159 257 133 c 0
 257 107 236 86 210 86 c 0
 184 86 163 107 163 133 c 0
264 191 m 0
 264 217 285 238 311 238 c 0
 337 238 357 217 357 191 c 0
 357 165 337 144 311 144 c 0
 285 144 264 165 264 191 c 0
62 75 m 0
 62 101 83 121 109 121 c 0
 135 121 156 101 156 75 c 0
 156 49 135 28 109 28 c 0
 83 28 62 49 62 75 c 0
62 540 m 0
 62 566 83 586 109 586 c 0
 135 586 156 566 156 540 c 0
 156 514 135 493 109 493 c 0
 83 493 62 514 62 540 c 0
163 482 m 0
 163 508 184 528 210 528 c 0
 236 528 257 508 257 482 c 0
 257 456 236 435 210 435 c 0
 184 435 163 456 163 482 c 0
365 365 m 0
 365 391 385 412 411 412 c 0
 437 412 458 391 458 365 c 0
 458 339 437 319 411 319 c 0
 385 319 365 339 365 365 c 0
264 423 m 0
 264 449 285 470 311 470 c 0
 337 470 357 449 357 423 c 0
 357 397 337 377 311 377 c 0
 285 377 264 397 264 423 c 0
566 249 m 0
 566 275 587 296 613 296 c 0
 639 296 659 275 659 249 c 0
 659 223 639 202 613 202 c 0
 587 202 566 223 566 249 c 0
767 133 m 0
 767 159 788 179 814 179 c 0
 840 179 861 159 861 133 c 0
 861 107 840 86 814 86 c 0
 788 86 767 107 767 133 c 0
667 191 m 0
 667 217 687 238 713 238 c 0
 739 238 760 217 760 191 c 0
 760 165 739 144 713 144 c 0
 687 144 667 165 667 191 c 0
868 75 m 0
 868 101 889 121 915 121 c 0
 941 121 962 101 962 75 c 0
 962 49 941 28 915 28 c 0
 889 28 868 49 868 75 c 0
566 714 m 0
 566 740 587 761 613 761 c 0
 639 761 659 740 659 714 c 0
 659 688 639 668 613 668 c 0
 587 668 566 688 566 714 c 0
767 598 m 0
 767 624 788 645 814 645 c 0
 840 645 861 624 861 598 c 0
 861 572 840 551 814 551 c 0
 788 551 767 572 767 598 c 0
667 656 m 0
 667 682 687 703 713 703 c 0
 739 703 760 682 760 656 c 0
 760 630 739 610 713 610 c 0
 687 610 667 630 667 656 c 0
163 16 m 0
 163 42 184 63 210 63 c 0
 236 63 257 42 257 16 c 0
 257 -10 236 -30 210 -30 c 0
 184 -30 163 -10 163 16 c 0
365 -100 m 0
 365 -74 385 -53 411 -53 c 0
 437 -53 458 -74 458 -100 c 0
 458 -126 437 -147 411 -147 c 0
 385 -147 365 -126 365 -100 c 0
264 -42 m 0
 264 -16 285 5 311 5 c 0
 337 5 357 -16 357 -42 c 0
 357 -68 337 -88 311 -88 c 0
 285 -88 264 -68 264 -42 c 0
364 714 m 0
 364 740 385 761 411 761 c 0
 437 761 458 740 458 714 c 0
 458 688 437 668 411 668 c 0
 385 668 364 688 364 714 c 0
163 598 m 0
 163 624 183 645 209 645 c 0
 235 645 256 624 256 598 c 0
 256 572 235 551 209 551 c 0
 183 551 163 572 163 598 c 0
264 656 m 0
 264 682 284 703 310 703 c 0
 336 703 357 682 357 656 c 0
 357 630 336 610 310 610 c 0
 284 610 264 630 264 656 c 0
767 16 m 0
 767 42 788 63 814 63 c 0
 840 63 861 42 861 16 c 0
 861 -10 840 -30 814 -30 c 0
 788 -30 767 -10 767 16 c 0
566 -100 m 0
 566 -74 587 -53 613 -53 c 0
 639 -53 659 -74 659 -100 c 0
 659 -126 639 -147 613 -147 c 0
 587 -147 566 -126 566 -100 c 0
667 -42 m 0
 667 -16 687 5 713 5 c 0
 739 5 760 -16 760 -42 c 0
 760 -68 739 -88 713 -88 c 0
 687 -88 667 -68 667 -42 c 0
EndSplineSet
Validated: 1
EndChar

StartChar: nine
Encoding: 57 57 61
Width: 1024
Flags: HW
LayerCount: 2
Fore
SplineSet
465 772 m 0
 465 798 486 819 512 819 c 0
 538 819 559 798 559 772 c 0
 559 746 538 726 512 726 c 0
 486 726 465 746 465 772 c 0
465 307 m 0
 465 333 486 354 512 354 c 0
 538 354 559 333 559 307 c 0
 559 281 538 260 512 260 c 0
 486 260 465 281 465 307 c 0
465 -158 m 0
 465 -132 486 -111 512 -111 c 0
 538 -111 559 -132 559 -158 c 0
 559 -184 538 -205 512 -205 c 0
 486 -205 465 -184 465 -158 c 0
868 540 m 0
 868 566 889 586 915 586 c 0
 941 586 962 566 962 540 c 0
 962 514 941 493 915 493 c 0
 889 493 868 514 868 540 c 0
767 482 m 0
 767 508 788 528 814 528 c 0
 840 528 861 508 861 482 c 0
 861 456 840 435 814 435 c 0
 788 435 767 456 767 482 c 0
566 365 m 0
 566 391 587 412 613 412 c 0
 639 412 659 391 659 365 c 0
 659 339 639 319 613 319 c 0
 587 319 566 339 566 365 c 0
667 423 m 0
 667 449 687 470 713 470 c 0
 739 470 760 449 760 423 c 0
 760 397 739 377 713 377 c 0
 687 377 667 397 667 423 c 0
62 75 m 0
 62 101 83 121 109 121 c 0
 135 121 156 101 156 75 c 0
 156 49 135 28 109 28 c 0
 83 28 62 49 62 75 c 0
62 540 m 0
 62 566 83 586 109 586 c 0
 135 586 156 566 156 540 c 0
 156 514 135 493 109 493 c 0
 83 493 62 514 62 540 c 0
163 482 m 0
 163 508 184 528 210 528 c 0
 236 528 257 508 257 482 c 0
 257 456 236 435 210 435 c 0
 184 435 163 456 163 482 c 0
365 365 m 0
 365 391 385 412 411 412 c 0
 437 412 458 391 458 365 c 0
 458 339 437 319 411 319 c 0
 385 319 365 339 365 365 c 0
264 423 m 0
 264 449 285 470 311 470 c 0
 337 470 357 449 357 423 c 0
 357 397 337 377 311 377 c 0
 285 377 264 397 264 423 c 0
868 75 m 0
 868 101 889 121 915 121 c 0
 941 121 962 101 962 75 c 0
 962 49 941 28 915 28 c 0
 889 28 868 49 868 75 c 0
566 714 m 0
 566 740 587 761 613 761 c 0
 639 761 659 740 659 714 c 0
 659 688 639 668 613 668 c 0
 587 668 566 688 566 714 c 0
767 598 m 0
 767 624 788 645 814 645 c 0
 840 645 861 624 861 598 c 0
 861 572 840 551 814 551 c 0
 788 551 767 572 767 598 c 0
667 656 m 0
 667 682 687 703 713 703 c 0
 739 703 760 682 760 656 c 0
 760 630 739 610 713 610 c 0
 687 610 667 630 667 656 c 0
163 16 m 0
 163 42 184 63 210 63 c 0
 236 63 257 42 257 16 c 0
 257 -10 236 -30 210 -30 c 0
 184 -30 163 -10 163 16 c 0
365 -100 m 0
 365 -74 385 -53 411 -53 c 0
 437 -53 458 -74 458 -100 c 0
 458 -126 437 -147 411 -147 c 0
 385 -147 365 -126 365 -100 c 0
264 -42 m 0
 264 -16 285 5 311 5 c 0
 337 5 357 -16 357 -42 c 0
 357 -68 337 -88 311 -88 c 0
 285 -88 264 -68 264 -42 c 0
364 714 m 0
 364 740 385 761 411 761 c 0
 437 761 458 740 458 714 c 0
 458 688 437 668 411 668 c 0
 385 668 364 688 364 714 c 0
163 598 m 0
 163 624 183 645 209 645 c 0
 235 645 256 624 256 598 c 0
 256 572 235 551 209 551 c 0
 183 551 163 572 163 598 c 0
264 656 m 0
 264 682 284 703 310 703 c 0
 336 703 357 682 357 656 c 0
 357 630 336 610 310 610 c 0
 284 610 264 630 264 656 c 0
767 16 m 0
 767 42 788 63 814 63 c 0
 840 63 861 42 861 16 c 0
 861 -10 840 -30 814 -30 c 0
 788 -30 767 -10 767 16 c 0
566 -100 m 0
 566 -74 587 -53 613 -53 c 0
 639 -53 659 -74 659 -100 c 0
 659 -126 639 -147 613 -147 c 0
 587 -147 566 -126 566 -100 c 0
667 -42 m 0
 667 -16 687 5 713 5 c 0
 739 5 760 -16 760 -42 c 0
 760 -68 739 -88 713 -88 c 0
 687 -88 667 -68 667 -42 c 0
868 423 m 0
 868 449 889 470 915 470 c 0
 941 470 962 449 962 423 c 0
 962 397 941 377 915 377 c 0
 889 377 868 397 868 423 c 0
868 191 m 0
 868 217 889 238 915 238 c 0
 941 238 962 217 962 191 c 0
 962 165 941 144 915 144 c 0
 889 144 868 165 868 191 c 0
868 307 m 0
 868 333 889 354 915 354 c 0
 941 354 962 333 962 307 c 0
 962 281 941 260 915 260 c 0
 889 260 868 281 868 307 c 0
EndSplineSet
Validated: 1
EndChar
